%TF.GenerationSoftware,KiCad,Pcbnew,8.0.2*%
%TF.CreationDate,2024-06-30T08:04:25+02:00*%
%TF.ProjectId,Undroid,556e6472-6f69-4642-9e6b-696361645f70,C*%
%TF.SameCoordinates,Original*%
%TF.FileFunction,Paste,Top*%
%TF.FilePolarity,Positive*%
%FSLAX46Y46*%
G04 Gerber Fmt 4.6, Leading zero omitted, Abs format (unit mm)*
G04 Created by KiCad (PCBNEW 8.0.2) date 2024-06-30 08:04:25*
%MOMM*%
%LPD*%
G01*
G04 APERTURE LIST*
G04 Aperture macros list*
%AMRoundRect*
0 Rectangle with rounded corners*
0 $1 Rounding radius*
0 $2 $3 $4 $5 $6 $7 $8 $9 X,Y pos of 4 corners*
0 Add a 4 corners polygon primitive as box body*
4,1,4,$2,$3,$4,$5,$6,$7,$8,$9,$2,$3,0*
0 Add four circle primitives for the rounded corners*
1,1,$1+$1,$2,$3*
1,1,$1+$1,$4,$5*
1,1,$1+$1,$6,$7*
1,1,$1+$1,$8,$9*
0 Add four rect primitives between the rounded corners*
20,1,$1+$1,$2,$3,$4,$5,0*
20,1,$1+$1,$4,$5,$6,$7,0*
20,1,$1+$1,$6,$7,$8,$9,0*
20,1,$1+$1,$8,$9,$2,$3,0*%
G04 Aperture macros list end*
%ADD10C,0.010000*%
%ADD11R,1.550000X2.200000*%
%ADD12R,0.900000X0.700000*%
%ADD13R,0.700000X0.700000*%
%ADD14R,1.200000X0.650000*%
%ADD15R,0.450000X2.900000*%
%ADD16R,0.450000X1.900000*%
%ADD17R,0.450000X2.400000*%
%ADD18R,1.400000X0.500000*%
%ADD19R,0.300000X0.600000*%
%ADD20R,0.750000X0.700000*%
%ADD21RoundRect,0.079500X0.100500X-0.079500X0.100500X0.079500X-0.100500X0.079500X-0.100500X-0.079500X0*%
%ADD22RoundRect,0.079500X-0.079500X-0.100500X0.079500X-0.100500X0.079500X0.100500X-0.079500X0.100500X0*%
%ADD23RoundRect,0.079500X0.079500X0.100500X-0.079500X0.100500X-0.079500X-0.100500X0.079500X-0.100500X0*%
%ADD24R,1.200000X2.500000*%
%ADD25RoundRect,0.075000X-0.700000X-0.075000X0.700000X-0.075000X0.700000X0.075000X-0.700000X0.075000X0*%
%ADD26RoundRect,0.075000X-0.075000X-0.700000X0.075000X-0.700000X0.075000X0.700000X-0.075000X0.700000X0*%
%ADD27R,0.850000X1.100000*%
%ADD28R,0.750000X1.100000*%
%ADD29R,1.200000X1.000000*%
%ADD30R,1.550000X1.350000*%
%ADD31R,1.900000X1.350000*%
%ADD32R,1.170000X1.800000*%
%ADD33RoundRect,0.175000X-0.175000X-0.425000X0.175000X-0.425000X0.175000X0.425000X-0.175000X0.425000X0*%
%ADD34RoundRect,0.190000X0.190000X0.410000X-0.190000X0.410000X-0.190000X-0.410000X0.190000X-0.410000X0*%
%ADD35RoundRect,0.200000X0.200000X0.400000X-0.200000X0.400000X-0.200000X-0.400000X0.200000X-0.400000X0*%
%ADD36RoundRect,0.175000X0.175000X0.425000X-0.175000X0.425000X-0.175000X-0.425000X0.175000X-0.425000X0*%
%ADD37RoundRect,0.190000X-0.190000X-0.410000X0.190000X-0.410000X0.190000X0.410000X-0.190000X0.410000X0*%
%ADD38RoundRect,0.200000X-0.200000X-0.400000X0.200000X-0.400000X0.200000X0.400000X-0.200000X0.400000X0*%
%ADD39RoundRect,0.250000X-0.650000X-0.425000X0.650000X-0.425000X0.650000X0.425000X-0.650000X0.425000X0*%
%ADD40RoundRect,0.250000X-0.650000X-0.500000X0.650000X-0.500000X0.650000X0.500000X-0.650000X0.500000X0*%
%ADD41RoundRect,0.150000X0.150000X-0.450000X0.150000X0.450000X-0.150000X0.450000X-0.150000X-0.450000X0*%
%ADD42RoundRect,0.030000X-0.750000X-0.090000X0.750000X-0.090000X0.750000X0.090000X-0.750000X0.090000X0*%
%ADD43RoundRect,0.030000X0.090000X-0.750000X0.090000X0.750000X-0.090000X0.750000X-0.090000X-0.750000X0*%
%ADD44RoundRect,0.207500X-0.207500X-0.207500X0.207500X-0.207500X0.207500X0.207500X-0.207500X0.207500X0*%
%ADD45RoundRect,0.062500X-0.375000X-0.062500X0.375000X-0.062500X0.375000X0.062500X-0.375000X0.062500X0*%
%ADD46RoundRect,0.062500X-0.062500X-0.375000X0.062500X-0.375000X0.062500X0.375000X-0.062500X0.375000X0*%
%ADD47O,1.800000X0.550000*%
%ADD48O,0.550000X1.800000*%
%ADD49RoundRect,0.140000X-0.170000X0.140000X-0.170000X-0.140000X0.170000X-0.140000X0.170000X0.140000X0*%
%ADD50C,0.400000*%
G04 APERTURE END LIST*
D10*
%TO.C,CPU_1*%
X140810000Y-100417830D02*
X138582170Y-100417830D01*
X138582170Y-98190000D01*
X140810000Y-98190000D01*
X140810000Y-100417830D01*
G36*
X140810000Y-100417830D02*
G01*
X138582170Y-100417830D01*
X138582170Y-98190000D01*
X140810000Y-98190000D01*
X140810000Y-100417830D01*
G37*
X140810000Y-97409577D02*
X138587170Y-97409577D01*
X138587170Y-95190000D01*
X140810000Y-95190000D01*
X140810000Y-97409577D01*
G36*
X140810000Y-97409577D02*
G01*
X138587170Y-97409577D01*
X138587170Y-95190000D01*
X140810000Y-95190000D01*
X140810000Y-97409577D01*
G37*
X143810000Y-97408525D02*
X141591475Y-97408525D01*
X141591475Y-95190000D01*
X143810000Y-95190000D01*
X143810000Y-97408525D01*
G36*
X143810000Y-97408525D02*
G01*
X141591475Y-97408525D01*
X141591475Y-95190000D01*
X143810000Y-95190000D01*
X143810000Y-97408525D01*
G37*
X143810000Y-100423100D02*
X141591957Y-100423100D01*
X141591957Y-98190000D01*
X143810000Y-98190000D01*
X143810000Y-100423100D01*
G36*
X143810000Y-100423100D02*
G01*
X141591957Y-100423100D01*
X141591957Y-98190000D01*
X143810000Y-98190000D01*
X143810000Y-100423100D01*
G37*
%TD*%
D11*
%TO.C,D1*%
X166525000Y-31800000D03*
X163675000Y-31800000D03*
%TD*%
D12*
%TO.C,SIM_SLOT_1*%
X172340000Y-38025000D03*
X174880000Y-38025000D03*
X177420000Y-38025000D03*
X172340000Y-41195000D03*
X174880000Y-41195000D03*
X177420000Y-41195000D03*
D13*
X179150000Y-44525000D03*
D14*
X175430000Y-48200000D03*
D15*
X168325000Y-37325000D03*
D16*
X168325000Y-42175000D03*
D17*
X168325000Y-47325000D03*
D18*
X172680000Y-49275000D03*
D19*
X173660000Y-36175000D03*
X176100000Y-36175000D03*
D18*
X177100000Y-49275000D03*
D20*
X178975000Y-46325000D03*
D15*
X179475000Y-37325000D03*
D16*
X179475000Y-42175000D03*
%TD*%
D21*
%TO.C,CC1_R1*%
X157275000Y-148770000D03*
X157275000Y-148080000D03*
%TD*%
%TO.C,RAM_PWR_R2*%
X145700000Y-122300000D03*
X145700000Y-121610000D03*
%TD*%
%TO.C,RAM_GND_VSSQ_R1*%
X126500000Y-121745000D03*
X126500000Y-121055000D03*
%TD*%
D22*
%TO.C,MCU_PWR_R1*%
X154575000Y-59200000D03*
X155265000Y-59200000D03*
%TD*%
D21*
%TO.C,MCU_PWR_R2*%
X161700000Y-59900000D03*
X161700000Y-59210000D03*
%TD*%
D22*
%TO.C,VCC_S_1*%
X172375000Y-33900000D03*
X173065000Y-33900000D03*
%TD*%
D21*
%TO.C,RAM_GND_VSS_R1*%
X145700000Y-128545000D03*
X145700000Y-127855000D03*
%TD*%
%TO.C,RVSS_S_1*%
X175100000Y-32400000D03*
X175100000Y-31710000D03*
%TD*%
%TO.C,VSS_FL_2*%
X128565000Y-54040000D03*
X128565000Y-53350000D03*
%TD*%
%TO.C,RAM_GND_VSS_R3*%
X144900000Y-133145000D03*
X144900000Y-132455000D03*
%TD*%
D23*
%TO.C,VCC_FL_2*%
X135110000Y-50650000D03*
X134420000Y-50650000D03*
%TD*%
D24*
%TO.C,JACK_PORT1*%
X178825000Y-152250000D03*
X175825000Y-152250000D03*
X183925000Y-158750000D03*
X182825000Y-152250000D03*
%TD*%
D21*
%TO.C,NETLIGHT_R1*%
X160100000Y-31925000D03*
X160100000Y-31235000D03*
%TD*%
D22*
%TO.C,VBAT_R1*%
X179855000Y-86100000D03*
X180545000Y-86100000D03*
%TD*%
D21*
%TO.C,MBCI_PWR_R1*%
X168500000Y-120600000D03*
X168500000Y-119910000D03*
%TD*%
%TO.C,CC2_R1*%
X159000000Y-147990000D03*
X159000000Y-147300000D03*
%TD*%
D25*
%TO.C,BRIDGE_CHIP1*%
X149675000Y-64475000D03*
X149675000Y-64975000D03*
X149675000Y-65475000D03*
X149675000Y-65975000D03*
X149675000Y-66475000D03*
X149675000Y-66975000D03*
X149675000Y-67475000D03*
X149675000Y-67975000D03*
X149675000Y-68475000D03*
X149675000Y-68975000D03*
X149675000Y-69475000D03*
X149675000Y-69975000D03*
X149675000Y-70475000D03*
X149675000Y-70975000D03*
X149675000Y-71475000D03*
X149675000Y-71975000D03*
D26*
X151600000Y-73900000D03*
X152100000Y-73900000D03*
X152600000Y-73900000D03*
X153100000Y-73900000D03*
X153600000Y-73900000D03*
X154100000Y-73900000D03*
X154600000Y-73900000D03*
X155100000Y-73900000D03*
X155600000Y-73900000D03*
X156100000Y-73900000D03*
X156600000Y-73900000D03*
X157100000Y-73900000D03*
X157600000Y-73900000D03*
X158100000Y-73900000D03*
X158600000Y-73900000D03*
X159100000Y-73900000D03*
D25*
X161025000Y-71975000D03*
X161025000Y-71475000D03*
X161025000Y-70975000D03*
X161025000Y-70475000D03*
X161025000Y-69975000D03*
X161025000Y-69475000D03*
X161025000Y-68975000D03*
X161025000Y-68475000D03*
X161025000Y-67975000D03*
X161025000Y-67475000D03*
X161025000Y-66975000D03*
X161025000Y-66475000D03*
X161025000Y-65975000D03*
X161025000Y-65475000D03*
X161025000Y-64975000D03*
X161025000Y-64475000D03*
D26*
X159100000Y-62550000D03*
X158600000Y-62550000D03*
X158100000Y-62550000D03*
X157600000Y-62550000D03*
X157100000Y-62550000D03*
X156600000Y-62550000D03*
X156100000Y-62550000D03*
X155600000Y-62550000D03*
X155100000Y-62550000D03*
X154600000Y-62550000D03*
X154100000Y-62550000D03*
X153600000Y-62550000D03*
X153100000Y-62550000D03*
X152600000Y-62550000D03*
X152100000Y-62550000D03*
X151600000Y-62550000D03*
%TD*%
D27*
%TO.C,SD_SLOT_1*%
X130195000Y-34750000D03*
X131295000Y-34750000D03*
X132395000Y-34750000D03*
X133495000Y-34750000D03*
X134595000Y-34750000D03*
X135695000Y-34750000D03*
X136795000Y-34750000D03*
D28*
X137845000Y-34750000D03*
D29*
X127560000Y-40900000D03*
X127560000Y-44600000D03*
D30*
X127735000Y-34875000D03*
D31*
X131060000Y-45575000D03*
X137030000Y-45575000D03*
D32*
X139055000Y-35100000D03*
%TD*%
D22*
%TO.C,VCC_FL_1*%
X153555000Y-41900000D03*
X154245000Y-41900000D03*
%TD*%
D33*
%TO.C,POWER_USB_C1*%
X155125000Y-151565000D03*
D34*
X157145000Y-151565000D03*
D35*
X158375000Y-151565000D03*
D36*
X156125000Y-151565000D03*
D37*
X154105000Y-151565000D03*
D38*
X152875000Y-151565000D03*
D39*
X150500000Y-151620000D03*
D40*
X150500000Y-155200000D03*
D39*
X160750000Y-151620000D03*
D40*
X160750000Y-155200000D03*
%TD*%
D21*
%TO.C,VSS_SD_VSS1*%
X141300000Y-37400000D03*
X141300000Y-36710000D03*
%TD*%
D41*
%TO.C,FLASH_MEM_MASS1*%
X154290000Y-51400000D03*
X155560000Y-51400000D03*
X156830000Y-51400000D03*
X158100000Y-51400000D03*
X158100000Y-43900000D03*
X156830000Y-43900000D03*
X155560000Y-43900000D03*
X154290000Y-43900000D03*
%TD*%
D21*
%TO.C,VSS_SD_VDD1*%
X141300000Y-34800000D03*
X141300000Y-34110000D03*
%TD*%
D42*
%TO.C,CPU_1*%
X130520000Y-89200000D03*
X130520000Y-89600000D03*
X130520000Y-90000000D03*
X130520000Y-90400000D03*
X130520000Y-90800000D03*
X130520000Y-91200000D03*
X130520000Y-91600000D03*
X130520000Y-92000000D03*
X130520000Y-92400000D03*
X130520000Y-92800000D03*
X130520000Y-93200000D03*
X130520000Y-93600000D03*
X130520000Y-94000000D03*
X130520000Y-94400000D03*
X130520000Y-94800000D03*
X130520000Y-95200000D03*
X130520000Y-95600000D03*
X130520000Y-96000000D03*
X130520000Y-96400000D03*
X130520000Y-96800000D03*
X130520000Y-97200000D03*
X130520000Y-97600000D03*
X130520000Y-98000000D03*
X130520000Y-98400000D03*
X130520000Y-98800000D03*
X130520000Y-99200000D03*
X130520000Y-99600000D03*
X130520000Y-100000000D03*
X130520000Y-100400000D03*
X130520000Y-100800000D03*
X130520000Y-101200000D03*
X130520000Y-101600000D03*
X130520000Y-102000000D03*
X130520000Y-102400000D03*
X130520000Y-102800000D03*
X130520000Y-103200000D03*
X130520000Y-103600000D03*
X130520000Y-104000000D03*
X130520000Y-104400000D03*
X130520000Y-104800000D03*
X130520000Y-105200000D03*
X130520000Y-105600000D03*
X130520000Y-106000000D03*
X130520000Y-106400000D03*
D43*
X132600000Y-108480000D03*
X133000000Y-108480000D03*
X133400000Y-108480000D03*
X133800000Y-108480000D03*
X134200000Y-108480000D03*
X134600000Y-108480000D03*
X135000000Y-108480000D03*
X135400000Y-108480000D03*
X135800000Y-108480000D03*
X136200000Y-108480000D03*
X136600000Y-108480000D03*
X137000000Y-108480000D03*
X137400000Y-108480000D03*
X137800000Y-108480000D03*
X138200000Y-108480000D03*
X138600000Y-108480000D03*
X139000000Y-108480000D03*
X139400000Y-108480000D03*
X139800000Y-108480000D03*
X140200000Y-108480000D03*
X140600000Y-108480000D03*
X141000000Y-108480000D03*
X141400000Y-108480000D03*
X141800000Y-108480000D03*
X142200000Y-108480000D03*
X142600000Y-108480000D03*
X143000000Y-108480000D03*
X143400000Y-108480000D03*
X143800000Y-108480000D03*
X144200000Y-108480000D03*
X144600000Y-108480000D03*
X145000000Y-108480000D03*
X145400000Y-108480000D03*
X145800000Y-108480000D03*
X146200000Y-108480000D03*
X146600000Y-108480000D03*
X147000000Y-108480000D03*
X147400000Y-108480000D03*
X147800000Y-108480000D03*
X148200000Y-108480000D03*
X148600000Y-108480000D03*
X149000000Y-108480000D03*
X149400000Y-108480000D03*
X149800000Y-108480000D03*
D42*
X151880000Y-106400000D03*
X151880000Y-106000000D03*
X151880000Y-105600000D03*
X151880000Y-105200000D03*
X151880000Y-104800000D03*
X151880000Y-104400000D03*
X151880000Y-104000000D03*
X151880000Y-103600000D03*
X151880000Y-103200000D03*
X151880000Y-102800000D03*
X151880000Y-102400000D03*
X151880000Y-102000000D03*
X151880000Y-101600000D03*
X151880000Y-101200000D03*
X151880000Y-100800000D03*
X151880000Y-100400000D03*
X151880000Y-100000000D03*
X151880000Y-99600000D03*
X151880000Y-99200000D03*
X151880000Y-98800000D03*
X151880000Y-98400000D03*
X151880000Y-98000000D03*
X151880000Y-97600000D03*
X151880000Y-97200000D03*
X151880000Y-96800000D03*
X151880000Y-96400000D03*
X151880000Y-96000000D03*
X151880000Y-95600000D03*
X151880000Y-95200000D03*
X151880000Y-94800000D03*
X151880000Y-94400000D03*
X151880000Y-94000000D03*
X151880000Y-93600000D03*
X151880000Y-93200000D03*
X151880000Y-92800000D03*
X151880000Y-92400000D03*
X151880000Y-92000000D03*
X151880000Y-91600000D03*
X151880000Y-91200000D03*
X151880000Y-90800000D03*
X151880000Y-90400000D03*
X151880000Y-90000000D03*
X151880000Y-89600000D03*
X151880000Y-89200000D03*
D43*
X149800000Y-87120000D03*
X149400000Y-87120000D03*
X149000000Y-87120000D03*
X148600000Y-87120000D03*
X148200000Y-87120000D03*
X147800000Y-87120000D03*
X147400000Y-87120000D03*
X147000000Y-87120000D03*
X146600000Y-87120000D03*
X146200000Y-87120000D03*
X145800000Y-87120000D03*
X145400000Y-87120000D03*
X145000000Y-87120000D03*
X144600000Y-87120000D03*
X144200000Y-87120000D03*
X143800000Y-87120000D03*
X143400000Y-87120000D03*
X143000000Y-87120000D03*
X142600000Y-87120000D03*
X142200000Y-87120000D03*
X141800000Y-87120000D03*
X141400000Y-87120000D03*
X141000000Y-87120000D03*
X140600000Y-87120000D03*
X140200000Y-87120000D03*
X139800000Y-87120000D03*
X139400000Y-87120000D03*
X139000000Y-87120000D03*
X138600000Y-87120000D03*
X138200000Y-87120000D03*
X137800000Y-87120000D03*
X137400000Y-87120000D03*
X137000000Y-87120000D03*
X136600000Y-87120000D03*
X136200000Y-87120000D03*
X135800000Y-87120000D03*
X135400000Y-87120000D03*
X135000000Y-87120000D03*
X134600000Y-87120000D03*
X134200000Y-87120000D03*
X133800000Y-87120000D03*
X133400000Y-87120000D03*
X133000000Y-87120000D03*
X132600000Y-87120000D03*
%TD*%
D41*
%TO.C,FLASH_MEM_OS1*%
X131260000Y-60800000D03*
X132530000Y-60800000D03*
X133800000Y-60800000D03*
X135070000Y-60800000D03*
X135070000Y-53300000D03*
X133800000Y-53300000D03*
X132530000Y-53300000D03*
X131260000Y-53300000D03*
%TD*%
D22*
%TO.C,VSS_FL_1*%
X157530000Y-55275000D03*
X158220000Y-55275000D03*
%TD*%
D44*
%TO.C,MBCI_0*%
X171570000Y-118970000D03*
X171570000Y-120000000D03*
X171570000Y-121030000D03*
X172600000Y-118970000D03*
X172600000Y-120000000D03*
X172600000Y-121030000D03*
X173630000Y-118970000D03*
X173630000Y-120000000D03*
X173630000Y-121030000D03*
D45*
X170162500Y-118250000D03*
X170162500Y-118750000D03*
X170162500Y-119250000D03*
X170162500Y-119750000D03*
X170162500Y-120250000D03*
X170162500Y-120750000D03*
X170162500Y-121250000D03*
X170162500Y-121750000D03*
D46*
X170850000Y-122437500D03*
X171350000Y-122437500D03*
X171850000Y-122437500D03*
X172350000Y-122437500D03*
X172850000Y-122437500D03*
X173350000Y-122437500D03*
X173850000Y-122437500D03*
X174350000Y-122437500D03*
D45*
X175037500Y-121750000D03*
X175037500Y-121250000D03*
X175037500Y-120750000D03*
X175037500Y-120250000D03*
X175037500Y-119750000D03*
X175037500Y-119250000D03*
X175037500Y-118750000D03*
X175037500Y-118250000D03*
D46*
X174350000Y-117562500D03*
X173850000Y-117562500D03*
X173350000Y-117562500D03*
X172850000Y-117562500D03*
X172350000Y-117562500D03*
X171850000Y-117562500D03*
X171350000Y-117562500D03*
X170850000Y-117562500D03*
%TD*%
D22*
%TO.C,GND_R1*%
X152225000Y-147375000D03*
X152915000Y-147375000D03*
%TD*%
D47*
%TO.C,SIM_CHIP1*%
X168150000Y-91250000D03*
X168150000Y-92350000D03*
X168150000Y-93450000D03*
X168150000Y-94550000D03*
X168150000Y-95650000D03*
X168150000Y-96750000D03*
X168150000Y-97850000D03*
X168150000Y-98950000D03*
X168150000Y-100050000D03*
X168150000Y-101150000D03*
X168150000Y-102250000D03*
X168150000Y-103350000D03*
D48*
X171700000Y-88400000D03*
X171700000Y-106200000D03*
X172800000Y-88400000D03*
X172800000Y-106200000D03*
X173900000Y-88400000D03*
X173900000Y-106200000D03*
X175000000Y-88400000D03*
X175000000Y-106200000D03*
X176100000Y-88400000D03*
X176100000Y-106200000D03*
X177200000Y-88400000D03*
X177200000Y-106200000D03*
X178300000Y-88400000D03*
X178300000Y-106200000D03*
X179400000Y-88400000D03*
X179400000Y-106200000D03*
X180500000Y-88400000D03*
X180500000Y-106200000D03*
D47*
X184050000Y-91250000D03*
X184050000Y-92350000D03*
X184050000Y-93450000D03*
X184050000Y-94550000D03*
X184050000Y-95650000D03*
X184050000Y-96750000D03*
X184050000Y-97850000D03*
X184050000Y-98950000D03*
X184050000Y-100050000D03*
X184050000Y-101150000D03*
X184050000Y-102250000D03*
X184050000Y-103350000D03*
%TD*%
D49*
%TO.C,C1*%
X177600000Y-118645000D03*
X177600000Y-119605000D03*
%TD*%
D50*
%TO.C,DDR_RAM1*%
X130500000Y-127900000D03*
X130500000Y-127100000D03*
X130500000Y-126300000D03*
X130500000Y-123100000D03*
X130500000Y-122300000D03*
X130500000Y-121500000D03*
X131300000Y-127900000D03*
X131300000Y-127100000D03*
X131300000Y-126300000D03*
X131300000Y-123100000D03*
X131300000Y-122300000D03*
X131300000Y-121500000D03*
X132100000Y-127900000D03*
X132100000Y-127100000D03*
X132100000Y-126300000D03*
X132100000Y-123100000D03*
X132100000Y-122300000D03*
X132100000Y-121500000D03*
X132900000Y-127900000D03*
X132900000Y-127100000D03*
X132900000Y-126300000D03*
X132900000Y-123100000D03*
X132900000Y-122300000D03*
X132900000Y-121500000D03*
X133700000Y-127900000D03*
X133700000Y-127100000D03*
X133700000Y-126300000D03*
X133700000Y-123100000D03*
X133700000Y-122300000D03*
X133700000Y-121500000D03*
X134500000Y-127900000D03*
X134500000Y-127100000D03*
X134500000Y-126300000D03*
X134500000Y-123100000D03*
X134500000Y-122300000D03*
X134500000Y-121500000D03*
X135300000Y-127900000D03*
X135300000Y-127100000D03*
X135300000Y-126300000D03*
X135300000Y-123100000D03*
X135300000Y-122300000D03*
X135300000Y-121500000D03*
X136100000Y-127900000D03*
X136100000Y-127100000D03*
X136100000Y-126300000D03*
X136100000Y-123100000D03*
X136100000Y-122300000D03*
X136100000Y-121500000D03*
X136900000Y-127900000D03*
X136900000Y-127100000D03*
X136900000Y-126300000D03*
X136900000Y-123100000D03*
X136900000Y-122300000D03*
X136900000Y-121500000D03*
X137700000Y-127900000D03*
X137700000Y-127100000D03*
X137700000Y-126300000D03*
X137700000Y-123100000D03*
X137700000Y-122300000D03*
X137700000Y-121500000D03*
X138500000Y-127900000D03*
X138500000Y-127100000D03*
X138500000Y-126300000D03*
X138500000Y-123100000D03*
X138500000Y-122300000D03*
X138500000Y-121500000D03*
X139300000Y-127900000D03*
X139300000Y-127100000D03*
X139300000Y-126300000D03*
X139300000Y-123100000D03*
X139300000Y-122300000D03*
X139300000Y-121500000D03*
X140100000Y-127900000D03*
X140100000Y-127100000D03*
X140100000Y-126300000D03*
X140100000Y-123100000D03*
X140100000Y-122300000D03*
X140100000Y-121500000D03*
X140900000Y-127900000D03*
X140900000Y-127100000D03*
X140900000Y-126300000D03*
X140900000Y-123100000D03*
X140900000Y-122300000D03*
X140900000Y-121500000D03*
X141700000Y-127900000D03*
X141700000Y-127100000D03*
X141700000Y-126300000D03*
X141700000Y-123100000D03*
X141700000Y-122300000D03*
X141700000Y-121500000D03*
X142500000Y-127900000D03*
X142500000Y-127100000D03*
X142500000Y-126300000D03*
X142500000Y-123100000D03*
X142500000Y-122300000D03*
X142500000Y-121500000D03*
%TD*%
D22*
%TO.C,GND_BRIDGE_R1*%
X148300000Y-40200000D03*
X148990000Y-40200000D03*
%TD*%
M02*
