%TF.GenerationSoftware,KiCad,Pcbnew,8.0.2*%
%TF.CreationDate,2024-06-30T04:24:24+02:00*%
%TF.ProjectId,Undroid,556e6472-6f69-4642-9e6b-696361645f70,rev?*%
%TF.SameCoordinates,Original*%
%TF.FileFunction,Soldermask,Top*%
%TF.FilePolarity,Negative*%
%FSLAX46Y46*%
G04 Gerber Fmt 4.6, Leading zero omitted, Abs format (unit mm)*
G04 Created by KiCad (PCBNEW 8.0.2) date 2024-06-30 04:24:24*
%MOMM*%
%LPD*%
G01*
G04 APERTURE LIST*
G04 Aperture macros list*
%AMRoundRect*
0 Rectangle with rounded corners*
0 $1 Rounding radius*
0 $2 $3 $4 $5 $6 $7 $8 $9 X,Y pos of 4 corners*
0 Add a 4 corners polygon primitive as box body*
4,1,4,$2,$3,$4,$5,$6,$7,$8,$9,$2,$3,0*
0 Add four circle primitives for the rounded corners*
1,1,$1+$1,$2,$3*
1,1,$1+$1,$4,$5*
1,1,$1+$1,$6,$7*
1,1,$1+$1,$8,$9*
0 Add four rect primitives between the rounded corners*
20,1,$1+$1,$2,$3,$4,$5,0*
20,1,$1+$1,$4,$5,$6,$7,0*
20,1,$1+$1,$6,$7,$8,$9,0*
20,1,$1+$1,$8,$9,$2,$3,0*%
G04 Aperture macros list end*
%ADD10R,1.550000X2.200000*%
%ADD11R,0.850000X0.850000*%
%ADD12O,0.850000X0.850000*%
%ADD13R,0.900000X0.700000*%
%ADD14R,0.700000X0.700000*%
%ADD15R,1.200000X0.650000*%
%ADD16R,0.450000X2.900000*%
%ADD17R,0.450000X1.900000*%
%ADD18R,0.450000X2.400000*%
%ADD19R,1.400000X0.500000*%
%ADD20R,0.300000X0.600000*%
%ADD21R,0.750000X0.700000*%
%ADD22RoundRect,0.100000X0.100000X-0.130000X0.100000X0.130000X-0.100000X0.130000X-0.100000X-0.130000X0*%
%ADD23RoundRect,0.100000X-0.130000X-0.100000X0.130000X-0.100000X0.130000X0.100000X-0.130000X0.100000X0*%
%ADD24RoundRect,0.246063X-0.503937X-0.503937X0.503937X-0.503937X0.503937X0.503937X-0.503937X0.503937X0*%
%ADD25RoundRect,0.100000X0.130000X0.100000X-0.130000X0.100000X-0.130000X-0.100000X0.130000X-0.100000X0*%
%ADD26C,1.500000*%
%ADD27R,1.200000X2.500000*%
%ADD28RoundRect,0.075000X-0.700000X-0.075000X0.700000X-0.075000X0.700000X0.075000X-0.700000X0.075000X0*%
%ADD29RoundRect,0.075000X-0.075000X-0.700000X0.075000X-0.700000X0.075000X0.700000X-0.075000X0.700000X0*%
%ADD30R,0.850000X1.100000*%
%ADD31R,0.750000X1.100000*%
%ADD32R,1.200000X1.000000*%
%ADD33R,1.550000X1.350000*%
%ADD34R,1.900000X1.350000*%
%ADD35R,1.170000X1.800000*%
%ADD36RoundRect,0.175000X-0.175000X-0.425000X0.175000X-0.425000X0.175000X0.425000X-0.175000X0.425000X0*%
%ADD37RoundRect,0.190000X0.190000X0.410000X-0.190000X0.410000X-0.190000X-0.410000X0.190000X-0.410000X0*%
%ADD38RoundRect,0.200000X0.200000X0.400000X-0.200000X0.400000X-0.200000X-0.400000X0.200000X-0.400000X0*%
%ADD39RoundRect,0.175000X0.175000X0.425000X-0.175000X0.425000X-0.175000X-0.425000X0.175000X-0.425000X0*%
%ADD40RoundRect,0.190000X-0.190000X-0.410000X0.190000X-0.410000X0.190000X0.410000X-0.190000X0.410000X0*%
%ADD41RoundRect,0.200000X-0.200000X-0.400000X0.200000X-0.400000X0.200000X0.400000X-0.200000X0.400000X0*%
%ADD42RoundRect,0.250000X-0.650000X-0.425000X0.650000X-0.425000X0.650000X0.425000X-0.650000X0.425000X0*%
%ADD43RoundRect,0.250000X-0.650000X-0.500000X0.650000X-0.500000X0.650000X0.500000X-0.650000X0.500000X0*%
%ADD44RoundRect,0.150000X0.150000X-0.450000X0.150000X0.450000X-0.150000X0.450000X-0.150000X-0.450000X0*%
%ADD45RoundRect,0.055500X-0.826500X-0.166500X0.826500X-0.166500X0.826500X0.166500X-0.826500X0.166500X0*%
%ADD46RoundRect,0.055500X0.166500X-0.826500X0.166500X0.826500X-0.166500X0.826500X-0.166500X-0.826500X0*%
%ADD47RoundRect,0.102000X-3.000000X-3.000000X3.000000X-3.000000X3.000000X3.000000X-3.000000X3.000000X0*%
%ADD48RoundRect,0.062500X-0.375000X-0.062500X0.375000X-0.062500X0.375000X0.062500X-0.375000X0.062500X0*%
%ADD49RoundRect,0.062500X-0.062500X-0.375000X0.062500X-0.375000X0.062500X0.375000X-0.062500X0.375000X0*%
%ADD50R,3.100000X3.100000*%
%ADD51O,1.600000X0.600000*%
%ADD52O,0.600000X1.600000*%
%ADD53RoundRect,0.140000X-0.170000X0.140000X-0.170000X-0.140000X0.170000X-0.140000X0.170000X0.140000X0*%
%ADD54C,0.400000*%
G04 APERTURE END LIST*
D10*
%TO.C,D1*%
X166525000Y-31800000D03*
X163675000Y-31800000D03*
%TD*%
D11*
%TO.C,MBCI_VIDEO1*%
X175600000Y-126800000D03*
D12*
X175600000Y-127800000D03*
X175600000Y-128800000D03*
X175600000Y-129800000D03*
X175600000Y-130800000D03*
X175600000Y-131800000D03*
X175600000Y-132800000D03*
X175600000Y-133800000D03*
X175600000Y-134800000D03*
X175600000Y-135800000D03*
X175600000Y-136800000D03*
X175600000Y-137800000D03*
X175600000Y-138800000D03*
X175600000Y-139800000D03*
X175600000Y-140800000D03*
%TD*%
D13*
%TO.C,SIM_SLOT_1*%
X172340000Y-38025000D03*
X174880000Y-38025000D03*
X177420000Y-38025000D03*
X172340000Y-41195000D03*
X174880000Y-41195000D03*
X177420000Y-41195000D03*
D14*
X179150000Y-44525000D03*
D15*
X175430000Y-48200000D03*
D16*
X168325000Y-37325000D03*
D17*
X168325000Y-42175000D03*
D18*
X168325000Y-47325000D03*
D19*
X172680000Y-49275000D03*
D20*
X173660000Y-36175000D03*
X176100000Y-36175000D03*
D19*
X177100000Y-49275000D03*
D21*
X178975000Y-46325000D03*
D16*
X179475000Y-37325000D03*
D17*
X179475000Y-42175000D03*
%TD*%
D22*
%TO.C,CC1_R1*%
X157275000Y-148745000D03*
X157275000Y-148105000D03*
%TD*%
D11*
%TO.C,MBCI_IO1*%
X164400000Y-126700000D03*
D12*
X164400000Y-127700000D03*
X164400000Y-128700000D03*
X164400000Y-129700000D03*
X164400000Y-130700000D03*
X164400000Y-131700000D03*
X164400000Y-132700000D03*
X164400000Y-133700000D03*
X164400000Y-134700000D03*
X164400000Y-135700000D03*
X164400000Y-136700000D03*
X164400000Y-137700000D03*
X164400000Y-138700000D03*
X164400000Y-139700000D03*
X164400000Y-140700000D03*
%TD*%
D22*
%TO.C,RAM_PWR_R2*%
X145700000Y-122275000D03*
X145700000Y-121635000D03*
%TD*%
%TO.C,RAM_GND_VSSQ_R1*%
X126500000Y-121720000D03*
X126500000Y-121080000D03*
%TD*%
D23*
%TO.C,MCU_PWR_R1*%
X154600000Y-59200000D03*
X155240000Y-59200000D03*
%TD*%
D22*
%TO.C,MCU_PWR_R2*%
X161700000Y-59875000D03*
X161700000Y-59235000D03*
%TD*%
D23*
%TO.C,VCC_S_1*%
X172400000Y-33900000D03*
X173040000Y-33900000D03*
%TD*%
D22*
%TO.C,RAM_GND_VSS_R1*%
X145700000Y-128520000D03*
X145700000Y-127880000D03*
%TD*%
%TO.C,RVSS_S_1*%
X175100000Y-32375000D03*
X175100000Y-31735000D03*
%TD*%
D24*
%TO.C,ANT1*%
X183000000Y-35600000D03*
%TD*%
D22*
%TO.C,VSS_FL_2*%
X128565000Y-54015000D03*
X128565000Y-53375000D03*
%TD*%
%TO.C,RAM_GND_VSS_R3*%
X144900000Y-133120000D03*
X144900000Y-132480000D03*
%TD*%
D11*
%TO.C,MBCI_NETWORK1*%
X169900000Y-126700000D03*
D12*
X169900000Y-127700000D03*
X169900000Y-128700000D03*
X169900000Y-129700000D03*
X169900000Y-130700000D03*
X169900000Y-131700000D03*
X169900000Y-132700000D03*
X169900000Y-133700000D03*
X169900000Y-134700000D03*
X169900000Y-135700000D03*
X169900000Y-136700000D03*
X169900000Y-137700000D03*
X169900000Y-138700000D03*
X169900000Y-139700000D03*
X169900000Y-140700000D03*
%TD*%
D25*
%TO.C,VCC_FL_2*%
X135085000Y-50650000D03*
X134445000Y-50650000D03*
%TD*%
D26*
%TO.C,JACK_PORT1*%
X174225000Y-155500000D03*
X181225000Y-155500000D03*
D27*
X178825000Y-152250000D03*
X175825000Y-152250000D03*
X183925000Y-158750000D03*
X182825000Y-152250000D03*
%TD*%
D22*
%TO.C,NETLIGHT_R1*%
X160100000Y-31900000D03*
X160100000Y-31260000D03*
%TD*%
D23*
%TO.C,VBAT_R1*%
X179880000Y-86100000D03*
X180520000Y-86100000D03*
%TD*%
D22*
%TO.C,MBCI_PWR_R1*%
X168500000Y-120575000D03*
X168500000Y-119935000D03*
%TD*%
%TO.C,CC2_R1*%
X159000000Y-147965000D03*
X159000000Y-147325000D03*
%TD*%
D28*
%TO.C,BRIDGE_CHIP1*%
X149675000Y-64475000D03*
X149675000Y-64975000D03*
X149675000Y-65475000D03*
X149675000Y-65975000D03*
X149675000Y-66475000D03*
X149675000Y-66975000D03*
X149675000Y-67475000D03*
X149675000Y-67975000D03*
X149675000Y-68475000D03*
X149675000Y-68975000D03*
X149675000Y-69475000D03*
X149675000Y-69975000D03*
X149675000Y-70475000D03*
X149675000Y-70975000D03*
X149675000Y-71475000D03*
X149675000Y-71975000D03*
D29*
X151600000Y-73900000D03*
X152100000Y-73900000D03*
X152600000Y-73900000D03*
X153100000Y-73900000D03*
X153600000Y-73900000D03*
X154100000Y-73900000D03*
X154600000Y-73900000D03*
X155100000Y-73900000D03*
X155600000Y-73900000D03*
X156100000Y-73900000D03*
X156600000Y-73900000D03*
X157100000Y-73900000D03*
X157600000Y-73900000D03*
X158100000Y-73900000D03*
X158600000Y-73900000D03*
X159100000Y-73900000D03*
D28*
X161025000Y-71975000D03*
X161025000Y-71475000D03*
X161025000Y-70975000D03*
X161025000Y-70475000D03*
X161025000Y-69975000D03*
X161025000Y-69475000D03*
X161025000Y-68975000D03*
X161025000Y-68475000D03*
X161025000Y-67975000D03*
X161025000Y-67475000D03*
X161025000Y-66975000D03*
X161025000Y-66475000D03*
X161025000Y-65975000D03*
X161025000Y-65475000D03*
X161025000Y-64975000D03*
X161025000Y-64475000D03*
D29*
X159100000Y-62550000D03*
X158600000Y-62550000D03*
X158100000Y-62550000D03*
X157600000Y-62550000D03*
X157100000Y-62550000D03*
X156600000Y-62550000D03*
X156100000Y-62550000D03*
X155600000Y-62550000D03*
X155100000Y-62550000D03*
X154600000Y-62550000D03*
X154100000Y-62550000D03*
X153600000Y-62550000D03*
X153100000Y-62550000D03*
X152600000Y-62550000D03*
X152100000Y-62550000D03*
X151600000Y-62550000D03*
%TD*%
D30*
%TO.C,SD_SLOT_1*%
X130195000Y-34750000D03*
X131295000Y-34750000D03*
X132395000Y-34750000D03*
X133495000Y-34750000D03*
X134595000Y-34750000D03*
X135695000Y-34750000D03*
X136795000Y-34750000D03*
D31*
X137845000Y-34750000D03*
D32*
X127560000Y-40900000D03*
X127560000Y-44600000D03*
D33*
X127735000Y-34875000D03*
D34*
X131060000Y-45575000D03*
X137030000Y-45575000D03*
D35*
X139055000Y-35100000D03*
%TD*%
D23*
%TO.C,VCC_FL_1*%
X153580000Y-41900000D03*
X154220000Y-41900000D03*
%TD*%
D36*
%TO.C,POWER_USB_C1*%
X155125000Y-151565000D03*
D37*
X157145000Y-151565000D03*
D38*
X158375000Y-151565000D03*
D39*
X156125000Y-151565000D03*
D40*
X154105000Y-151565000D03*
D41*
X152875000Y-151565000D03*
D42*
X150500000Y-151620000D03*
D43*
X150500000Y-155200000D03*
D42*
X160750000Y-151620000D03*
D43*
X160750000Y-155200000D03*
%TD*%
D22*
%TO.C,VSS_SD_VSS1*%
X141300000Y-37375000D03*
X141300000Y-36735000D03*
%TD*%
D44*
%TO.C,FLASH_MEM_MASS1*%
X154290000Y-51400000D03*
X155560000Y-51400000D03*
X156830000Y-51400000D03*
X158100000Y-51400000D03*
X158100000Y-43900000D03*
X156830000Y-43900000D03*
X155560000Y-43900000D03*
X154290000Y-43900000D03*
%TD*%
D22*
%TO.C,VSS_SD_VDD1*%
X141300000Y-34775000D03*
X141300000Y-34135000D03*
%TD*%
D45*
%TO.C,CPU_1*%
X130520000Y-89200000D03*
X130520000Y-89600000D03*
X130520000Y-90000000D03*
X130520000Y-90400000D03*
X130520000Y-90800000D03*
X130520000Y-91200000D03*
X130520000Y-91600000D03*
X130520000Y-92000000D03*
X130520000Y-92400000D03*
X130520000Y-92800000D03*
X130520000Y-93200000D03*
X130520000Y-93600000D03*
X130520000Y-94000000D03*
X130520000Y-94400000D03*
X130520000Y-94800000D03*
X130520000Y-95200000D03*
X130520000Y-95600000D03*
X130520000Y-96000000D03*
X130520000Y-96400000D03*
X130520000Y-96800000D03*
X130520000Y-97200000D03*
X130520000Y-97600000D03*
X130520000Y-98000000D03*
X130520000Y-98400000D03*
X130520000Y-98800000D03*
X130520000Y-99200000D03*
X130520000Y-99600000D03*
X130520000Y-100000000D03*
X130520000Y-100400000D03*
X130520000Y-100800000D03*
X130520000Y-101200000D03*
X130520000Y-101600000D03*
X130520000Y-102000000D03*
X130520000Y-102400000D03*
X130520000Y-102800000D03*
X130520000Y-103200000D03*
X130520000Y-103600000D03*
X130520000Y-104000000D03*
X130520000Y-104400000D03*
X130520000Y-104800000D03*
X130520000Y-105200000D03*
X130520000Y-105600000D03*
X130520000Y-106000000D03*
X130520000Y-106400000D03*
D46*
X132600000Y-108480000D03*
X133000000Y-108480000D03*
X133400000Y-108480000D03*
X133800000Y-108480000D03*
X134200000Y-108480000D03*
X134600000Y-108480000D03*
X135000000Y-108480000D03*
X135400000Y-108480000D03*
X135800000Y-108480000D03*
X136200000Y-108480000D03*
X136600000Y-108480000D03*
X137000000Y-108480000D03*
X137400000Y-108480000D03*
X137800000Y-108480000D03*
X138200000Y-108480000D03*
X138600000Y-108480000D03*
X139000000Y-108480000D03*
X139400000Y-108480000D03*
X139800000Y-108480000D03*
X140200000Y-108480000D03*
X140600000Y-108480000D03*
X141000000Y-108480000D03*
X141400000Y-108480000D03*
X141800000Y-108480000D03*
X142200000Y-108480000D03*
X142600000Y-108480000D03*
X143000000Y-108480000D03*
X143400000Y-108480000D03*
X143800000Y-108480000D03*
X144200000Y-108480000D03*
X144600000Y-108480000D03*
X145000000Y-108480000D03*
X145400000Y-108480000D03*
X145800000Y-108480000D03*
X146200000Y-108480000D03*
X146600000Y-108480000D03*
X147000000Y-108480000D03*
X147400000Y-108480000D03*
X147800000Y-108480000D03*
X148200000Y-108480000D03*
X148600000Y-108480000D03*
X149000000Y-108480000D03*
X149400000Y-108480000D03*
X149800000Y-108480000D03*
D45*
X151880000Y-106400000D03*
X151880000Y-106000000D03*
X151880000Y-105600000D03*
X151880000Y-105200000D03*
X151880000Y-104800000D03*
X151880000Y-104400000D03*
X151880000Y-104000000D03*
X151880000Y-103600000D03*
X151880000Y-103200000D03*
X151880000Y-102800000D03*
X151880000Y-102400000D03*
X151880000Y-102000000D03*
X151880000Y-101600000D03*
X151880000Y-101200000D03*
X151880000Y-100800000D03*
X151880000Y-100400000D03*
X151880000Y-100000000D03*
X151880000Y-99600000D03*
X151880000Y-99200000D03*
X151880000Y-98800000D03*
X151880000Y-98400000D03*
X151880000Y-98000000D03*
X151880000Y-97600000D03*
X151880000Y-97200000D03*
X151880000Y-96800000D03*
X151880000Y-96400000D03*
X151880000Y-96000000D03*
X151880000Y-95600000D03*
X151880000Y-95200000D03*
X151880000Y-94800000D03*
X151880000Y-94400000D03*
X151880000Y-94000000D03*
X151880000Y-93600000D03*
X151880000Y-93200000D03*
X151880000Y-92800000D03*
X151880000Y-92400000D03*
X151880000Y-92000000D03*
X151880000Y-91600000D03*
X151880000Y-91200000D03*
X151880000Y-90800000D03*
X151880000Y-90400000D03*
X151880000Y-90000000D03*
X151880000Y-89600000D03*
X151880000Y-89200000D03*
D46*
X149800000Y-87120000D03*
X149400000Y-87120000D03*
X149000000Y-87120000D03*
X148600000Y-87120000D03*
X148200000Y-87120000D03*
X147800000Y-87120000D03*
X147400000Y-87120000D03*
X147000000Y-87120000D03*
X146600000Y-87120000D03*
X146200000Y-87120000D03*
X145800000Y-87120000D03*
X145400000Y-87120000D03*
X145000000Y-87120000D03*
X144600000Y-87120000D03*
X144200000Y-87120000D03*
X143800000Y-87120000D03*
X143400000Y-87120000D03*
X143000000Y-87120000D03*
X142600000Y-87120000D03*
X142200000Y-87120000D03*
X141800000Y-87120000D03*
X141400000Y-87120000D03*
X141000000Y-87120000D03*
X140600000Y-87120000D03*
X140200000Y-87120000D03*
X139800000Y-87120000D03*
X139400000Y-87120000D03*
X139000000Y-87120000D03*
X138600000Y-87120000D03*
X138200000Y-87120000D03*
X137800000Y-87120000D03*
X137400000Y-87120000D03*
X137000000Y-87120000D03*
X136600000Y-87120000D03*
X136200000Y-87120000D03*
X135800000Y-87120000D03*
X135400000Y-87120000D03*
X135000000Y-87120000D03*
X134600000Y-87120000D03*
X134200000Y-87120000D03*
X133800000Y-87120000D03*
X133400000Y-87120000D03*
X133000000Y-87120000D03*
X132600000Y-87120000D03*
D47*
X141200000Y-97800000D03*
%TD*%
D44*
%TO.C,FLASH_MEM_OS1*%
X131260000Y-60800000D03*
X132530000Y-60800000D03*
X133800000Y-60800000D03*
X135070000Y-60800000D03*
X135070000Y-53300000D03*
X133800000Y-53300000D03*
X132530000Y-53300000D03*
X131260000Y-53300000D03*
%TD*%
D23*
%TO.C,VSS_FL_1*%
X157555000Y-55275000D03*
X158195000Y-55275000D03*
%TD*%
D48*
%TO.C,MBCI_0*%
X170162500Y-118250000D03*
X170162500Y-118750000D03*
X170162500Y-119250000D03*
X170162500Y-119750000D03*
X170162500Y-120250000D03*
X170162500Y-120750000D03*
X170162500Y-121250000D03*
X170162500Y-121750000D03*
D49*
X170850000Y-122437500D03*
X171350000Y-122437500D03*
X171850000Y-122437500D03*
X172350000Y-122437500D03*
X172850000Y-122437500D03*
X173350000Y-122437500D03*
X173850000Y-122437500D03*
X174350000Y-122437500D03*
D48*
X175037500Y-121750000D03*
X175037500Y-121250000D03*
X175037500Y-120750000D03*
X175037500Y-120250000D03*
X175037500Y-119750000D03*
X175037500Y-119250000D03*
X175037500Y-118750000D03*
X175037500Y-118250000D03*
D49*
X174350000Y-117562500D03*
X173850000Y-117562500D03*
X173350000Y-117562500D03*
X172850000Y-117562500D03*
X172350000Y-117562500D03*
X171850000Y-117562500D03*
X171350000Y-117562500D03*
X170850000Y-117562500D03*
D50*
X172600000Y-120000000D03*
%TD*%
D23*
%TO.C,GND_R1*%
X152250000Y-147375000D03*
X152890000Y-147375000D03*
%TD*%
D51*
%TO.C,SIM_CHIP1*%
X168250000Y-91250000D03*
X168250000Y-92350000D03*
X168250000Y-93450000D03*
X168250000Y-94550000D03*
X168250000Y-95650000D03*
X168250000Y-96750000D03*
X168250000Y-97850000D03*
X168250000Y-98950000D03*
X168250000Y-100050000D03*
X168250000Y-101150000D03*
X168250000Y-102250000D03*
X168250000Y-103350000D03*
D52*
X171700000Y-106100000D03*
X172800000Y-106100000D03*
X173900000Y-106100000D03*
X175000000Y-106100000D03*
X176100000Y-106100000D03*
X177200000Y-106100000D03*
X178300000Y-106100000D03*
X179400000Y-106100000D03*
X180500000Y-106100000D03*
D51*
X183950000Y-103350000D03*
X183950000Y-102250000D03*
X183950000Y-101150000D03*
X183950000Y-100050000D03*
X183950000Y-98950000D03*
X183950000Y-97850000D03*
X183950000Y-96750000D03*
X183950000Y-95650000D03*
X183950000Y-94550000D03*
X183950000Y-93450000D03*
X183950000Y-92350000D03*
X183950000Y-91250000D03*
D52*
X180500000Y-88500000D03*
X179400000Y-88500000D03*
X178300000Y-88500000D03*
X177200000Y-88500000D03*
X176100000Y-88500000D03*
X175000000Y-88500000D03*
X173900000Y-88500000D03*
X172800000Y-88500000D03*
X171700000Y-88500000D03*
%TD*%
D53*
%TO.C,C1*%
X177600000Y-118645000D03*
X177600000Y-119605000D03*
%TD*%
D54*
%TO.C,DDR_RAM1*%
X130500000Y-127900000D03*
X130500000Y-127100000D03*
X130500000Y-126300000D03*
X130500000Y-123100000D03*
X130500000Y-122300000D03*
X130500000Y-121500000D03*
X131300000Y-127900000D03*
X131300000Y-127100000D03*
X131300000Y-126300000D03*
X131300000Y-123100000D03*
X131300000Y-122300000D03*
X131300000Y-121500000D03*
X132100000Y-127900000D03*
X132100000Y-127100000D03*
X132100000Y-126300000D03*
X132100000Y-123100000D03*
X132100000Y-122300000D03*
X132100000Y-121500000D03*
X132900000Y-127900000D03*
X132900000Y-127100000D03*
X132900000Y-126300000D03*
X132900000Y-123100000D03*
X132900000Y-122300000D03*
X132900000Y-121500000D03*
X133700000Y-127900000D03*
X133700000Y-127100000D03*
X133700000Y-126300000D03*
X133700000Y-123100000D03*
X133700000Y-122300000D03*
X133700000Y-121500000D03*
X134500000Y-127900000D03*
X134500000Y-127100000D03*
X134500000Y-126300000D03*
X134500000Y-123100000D03*
X134500000Y-122300000D03*
X134500000Y-121500000D03*
X135300000Y-127900000D03*
X135300000Y-127100000D03*
X135300000Y-126300000D03*
X135300000Y-123100000D03*
X135300000Y-122300000D03*
X135300000Y-121500000D03*
X136100000Y-127900000D03*
X136100000Y-127100000D03*
X136100000Y-126300000D03*
X136100000Y-123100000D03*
X136100000Y-122300000D03*
X136100000Y-121500000D03*
X136900000Y-127900000D03*
X136900000Y-127100000D03*
X136900000Y-126300000D03*
X136900000Y-123100000D03*
X136900000Y-122300000D03*
X136900000Y-121500000D03*
X137700000Y-127900000D03*
X137700000Y-127100000D03*
X137700000Y-126300000D03*
X137700000Y-123100000D03*
X137700000Y-122300000D03*
X137700000Y-121500000D03*
X138500000Y-127900000D03*
X138500000Y-127100000D03*
X138500000Y-126300000D03*
X138500000Y-123100000D03*
X138500000Y-122300000D03*
X138500000Y-121500000D03*
X139300000Y-127900000D03*
X139300000Y-127100000D03*
X139300000Y-126300000D03*
X139300000Y-123100000D03*
X139300000Y-122300000D03*
X139300000Y-121500000D03*
X140100000Y-127900000D03*
X140100000Y-127100000D03*
X140100000Y-126300000D03*
X140100000Y-123100000D03*
X140100000Y-122300000D03*
X140100000Y-121500000D03*
X140900000Y-127900000D03*
X140900000Y-127100000D03*
X140900000Y-126300000D03*
X140900000Y-123100000D03*
X140900000Y-122300000D03*
X140900000Y-121500000D03*
X141700000Y-127900000D03*
X141700000Y-127100000D03*
X141700000Y-126300000D03*
X141700000Y-123100000D03*
X141700000Y-122300000D03*
X141700000Y-121500000D03*
X142500000Y-127900000D03*
X142500000Y-127100000D03*
X142500000Y-126300000D03*
X142500000Y-123100000D03*
X142500000Y-122300000D03*
X142500000Y-121500000D03*
%TD*%
D23*
%TO.C,GND_BRIDGE_R1*%
X148325000Y-40200000D03*
X148965000Y-40200000D03*
%TD*%
M02*
