%TF.GenerationSoftware,KiCad,Pcbnew,8.0.2*%
%TF.CreationDate,2024-06-23T17:56:09+02:00*%
%TF.ProjectId,Undroid,556e6472-6f69-4642-9e6b-696361645f70,rev?*%
%TF.SameCoordinates,Original*%
%TF.FileFunction,Legend,Top*%
%TF.FilePolarity,Positive*%
%FSLAX46Y46*%
G04 Gerber Fmt 4.6, Leading zero omitted, Abs format (unit mm)*
G04 Created by KiCad (PCBNEW 8.0.2) date 2024-06-23 17:56:09*
%MOMM*%
%LPD*%
G01*
G04 APERTURE LIST*
%ADD10C,0.100000*%
%ADD11C,0.120000*%
%ADD12C,0.127000*%
%ADD13C,0.300000*%
G04 APERTURE END LIST*
D10*
X126894360Y-152882895D02*
X128894360Y-152882895D01*
X128894360Y-152882895D02*
X126894360Y-157882895D01*
X126894360Y-157882895D02*
X128894360Y-157882895D01*
X130037217Y-155263847D02*
X131037217Y-155263847D01*
X131465789Y-157882895D02*
X130037217Y-157882895D01*
X130037217Y-157882895D02*
X130037217Y-152882895D01*
X130037217Y-152882895D02*
X131465789Y-152882895D01*
X132322932Y-152882895D02*
X134037218Y-152882895D01*
X133180075Y-157882895D02*
X133180075Y-152882895D01*
X134894360Y-156454323D02*
X136322932Y-156454323D01*
X134608646Y-157882895D02*
X135608646Y-152882895D01*
X135608646Y-152882895D02*
X136608646Y-157882895D01*
X137608646Y-155978133D02*
X139894361Y-155978133D01*
X141894361Y-152882895D02*
X142180075Y-152882895D01*
X142180075Y-152882895D02*
X142465789Y-153120990D01*
X142465789Y-153120990D02*
X142608647Y-153359085D01*
X142608647Y-153359085D02*
X142751504Y-153835276D01*
X142751504Y-153835276D02*
X142894361Y-154787657D01*
X142894361Y-154787657D02*
X142894361Y-155978133D01*
X142894361Y-155978133D02*
X142751504Y-156930514D01*
X142751504Y-156930514D02*
X142608647Y-157406704D01*
X142608647Y-157406704D02*
X142465789Y-157644800D01*
X142465789Y-157644800D02*
X142180075Y-157882895D01*
X142180075Y-157882895D02*
X141894361Y-157882895D01*
X141894361Y-157882895D02*
X141608647Y-157644800D01*
X141608647Y-157644800D02*
X141465789Y-157406704D01*
X141465789Y-157406704D02*
X141322932Y-156930514D01*
X141322932Y-156930514D02*
X141180075Y-155978133D01*
X141180075Y-155978133D02*
X141180075Y-154787657D01*
X141180075Y-154787657D02*
X141322932Y-153835276D01*
X141322932Y-153835276D02*
X141465789Y-153359085D01*
X141465789Y-153359085D02*
X141608647Y-153120990D01*
X141608647Y-153120990D02*
X141894361Y-152882895D01*
X144751504Y-152882895D02*
X145037218Y-152882895D01*
X145037218Y-152882895D02*
X145322932Y-153120990D01*
X145322932Y-153120990D02*
X145465790Y-153359085D01*
X145465790Y-153359085D02*
X145608647Y-153835276D01*
X145608647Y-153835276D02*
X145751504Y-154787657D01*
X145751504Y-154787657D02*
X145751504Y-155978133D01*
X145751504Y-155978133D02*
X145608647Y-156930514D01*
X145608647Y-156930514D02*
X145465790Y-157406704D01*
X145465790Y-157406704D02*
X145322932Y-157644800D01*
X145322932Y-157644800D02*
X145037218Y-157882895D01*
X145037218Y-157882895D02*
X144751504Y-157882895D01*
X144751504Y-157882895D02*
X144465790Y-157644800D01*
X144465790Y-157644800D02*
X144322932Y-157406704D01*
X144322932Y-157406704D02*
X144180075Y-156930514D01*
X144180075Y-156930514D02*
X144037218Y-155978133D01*
X144037218Y-155978133D02*
X144037218Y-154787657D01*
X144037218Y-154787657D02*
X144180075Y-153835276D01*
X144180075Y-153835276D02*
X144322932Y-153359085D01*
X144322932Y-153359085D02*
X144465790Y-153120990D01*
X144465790Y-153120990D02*
X144751504Y-152882895D01*
X148608647Y-157882895D02*
X146894361Y-157882895D01*
X147751504Y-157882895D02*
X147751504Y-152882895D01*
X147751504Y-152882895D02*
X147465790Y-153597180D01*
X147465790Y-153597180D02*
X147180075Y-154073371D01*
X147180075Y-154073371D02*
X146894361Y-154311466D01*
X183682895Y-134219925D02*
X178682895Y-134219925D01*
X178682895Y-134219925D02*
X182254323Y-133219925D01*
X182254323Y-133219925D02*
X178682895Y-132219925D01*
X178682895Y-132219925D02*
X183682895Y-132219925D01*
X181063847Y-129791354D02*
X181301942Y-129362782D01*
X181301942Y-129362782D02*
X181540038Y-129219925D01*
X181540038Y-129219925D02*
X182016228Y-129077068D01*
X182016228Y-129077068D02*
X182730514Y-129077068D01*
X182730514Y-129077068D02*
X183206704Y-129219925D01*
X183206704Y-129219925D02*
X183444800Y-129362782D01*
X183444800Y-129362782D02*
X183682895Y-129648497D01*
X183682895Y-129648497D02*
X183682895Y-130791354D01*
X183682895Y-130791354D02*
X178682895Y-130791354D01*
X178682895Y-130791354D02*
X178682895Y-129791354D01*
X178682895Y-129791354D02*
X178920990Y-129505640D01*
X178920990Y-129505640D02*
X179159085Y-129362782D01*
X179159085Y-129362782D02*
X179635276Y-129219925D01*
X179635276Y-129219925D02*
X180111466Y-129219925D01*
X180111466Y-129219925D02*
X180587657Y-129362782D01*
X180587657Y-129362782D02*
X180825752Y-129505640D01*
X180825752Y-129505640D02*
X181063847Y-129791354D01*
X181063847Y-129791354D02*
X181063847Y-130791354D01*
X183206704Y-126077068D02*
X183444800Y-126219925D01*
X183444800Y-126219925D02*
X183682895Y-126648497D01*
X183682895Y-126648497D02*
X183682895Y-126934211D01*
X183682895Y-126934211D02*
X183444800Y-127362782D01*
X183444800Y-127362782D02*
X182968609Y-127648497D01*
X182968609Y-127648497D02*
X182492419Y-127791354D01*
X182492419Y-127791354D02*
X181540038Y-127934211D01*
X181540038Y-127934211D02*
X180825752Y-127934211D01*
X180825752Y-127934211D02*
X179873371Y-127791354D01*
X179873371Y-127791354D02*
X179397180Y-127648497D01*
X179397180Y-127648497D02*
X178920990Y-127362782D01*
X178920990Y-127362782D02*
X178682895Y-126934211D01*
X178682895Y-126934211D02*
X178682895Y-126648497D01*
X178682895Y-126648497D02*
X178920990Y-126219925D01*
X178920990Y-126219925D02*
X179159085Y-126077068D01*
X183682895Y-124791354D02*
X178682895Y-124791354D01*
X137894360Y-115706704D02*
X137751503Y-115944800D01*
X137751503Y-115944800D02*
X137322931Y-116182895D01*
X137322931Y-116182895D02*
X137037217Y-116182895D01*
X137037217Y-116182895D02*
X136608646Y-115944800D01*
X136608646Y-115944800D02*
X136322931Y-115468609D01*
X136322931Y-115468609D02*
X136180074Y-114992419D01*
X136180074Y-114992419D02*
X136037217Y-114040038D01*
X136037217Y-114040038D02*
X136037217Y-113325752D01*
X136037217Y-113325752D02*
X136180074Y-112373371D01*
X136180074Y-112373371D02*
X136322931Y-111897180D01*
X136322931Y-111897180D02*
X136608646Y-111420990D01*
X136608646Y-111420990D02*
X137037217Y-111182895D01*
X137037217Y-111182895D02*
X137322931Y-111182895D01*
X137322931Y-111182895D02*
X137751503Y-111420990D01*
X137751503Y-111420990D02*
X137894360Y-111659085D01*
X139180074Y-116182895D02*
X139180074Y-111182895D01*
X139180074Y-111182895D02*
X140322931Y-111182895D01*
X140322931Y-111182895D02*
X140608646Y-111420990D01*
X140608646Y-111420990D02*
X140751503Y-111659085D01*
X140751503Y-111659085D02*
X140894360Y-112135276D01*
X140894360Y-112135276D02*
X140894360Y-112849561D01*
X140894360Y-112849561D02*
X140751503Y-113325752D01*
X140751503Y-113325752D02*
X140608646Y-113563847D01*
X140608646Y-113563847D02*
X140322931Y-113801942D01*
X140322931Y-113801942D02*
X139180074Y-113801942D01*
X142180074Y-111182895D02*
X142180074Y-115230514D01*
X142180074Y-115230514D02*
X142322931Y-115706704D01*
X142322931Y-115706704D02*
X142465789Y-115944800D01*
X142465789Y-115944800D02*
X142751503Y-116182895D01*
X142751503Y-116182895D02*
X143322931Y-116182895D01*
X143322931Y-116182895D02*
X143608646Y-115944800D01*
X143608646Y-115944800D02*
X143751503Y-115706704D01*
X143751503Y-115706704D02*
X143894360Y-115230514D01*
X143894360Y-115230514D02*
X143894360Y-111182895D01*
X149080074Y-79263847D02*
X149508646Y-79501942D01*
X149508646Y-79501942D02*
X149651503Y-79740038D01*
X149651503Y-79740038D02*
X149794360Y-80216228D01*
X149794360Y-80216228D02*
X149794360Y-80930514D01*
X149794360Y-80930514D02*
X149651503Y-81406704D01*
X149651503Y-81406704D02*
X149508646Y-81644800D01*
X149508646Y-81644800D02*
X149222931Y-81882895D01*
X149222931Y-81882895D02*
X148080074Y-81882895D01*
X148080074Y-81882895D02*
X148080074Y-76882895D01*
X148080074Y-76882895D02*
X149080074Y-76882895D01*
X149080074Y-76882895D02*
X149365789Y-77120990D01*
X149365789Y-77120990D02*
X149508646Y-77359085D01*
X149508646Y-77359085D02*
X149651503Y-77835276D01*
X149651503Y-77835276D02*
X149651503Y-78311466D01*
X149651503Y-78311466D02*
X149508646Y-78787657D01*
X149508646Y-78787657D02*
X149365789Y-79025752D01*
X149365789Y-79025752D02*
X149080074Y-79263847D01*
X149080074Y-79263847D02*
X148080074Y-79263847D01*
X152794360Y-81882895D02*
X151794360Y-79501942D01*
X151080074Y-81882895D02*
X151080074Y-76882895D01*
X151080074Y-76882895D02*
X152222931Y-76882895D01*
X152222931Y-76882895D02*
X152508646Y-77120990D01*
X152508646Y-77120990D02*
X152651503Y-77359085D01*
X152651503Y-77359085D02*
X152794360Y-77835276D01*
X152794360Y-77835276D02*
X152794360Y-78549561D01*
X152794360Y-78549561D02*
X152651503Y-79025752D01*
X152651503Y-79025752D02*
X152508646Y-79263847D01*
X152508646Y-79263847D02*
X152222931Y-79501942D01*
X152222931Y-79501942D02*
X151080074Y-79501942D01*
X154080074Y-81882895D02*
X154080074Y-76882895D01*
X155508645Y-81882895D02*
X155508645Y-76882895D01*
X155508645Y-76882895D02*
X156222931Y-76882895D01*
X156222931Y-76882895D02*
X156651502Y-77120990D01*
X156651502Y-77120990D02*
X156937217Y-77597180D01*
X156937217Y-77597180D02*
X157080074Y-78073371D01*
X157080074Y-78073371D02*
X157222931Y-79025752D01*
X157222931Y-79025752D02*
X157222931Y-79740038D01*
X157222931Y-79740038D02*
X157080074Y-80692419D01*
X157080074Y-80692419D02*
X156937217Y-81168609D01*
X156937217Y-81168609D02*
X156651502Y-81644800D01*
X156651502Y-81644800D02*
X156222931Y-81882895D01*
X156222931Y-81882895D02*
X155508645Y-81882895D01*
X160080074Y-77120990D02*
X159794360Y-76882895D01*
X159794360Y-76882895D02*
X159365788Y-76882895D01*
X159365788Y-76882895D02*
X158937217Y-77120990D01*
X158937217Y-77120990D02*
X158651502Y-77597180D01*
X158651502Y-77597180D02*
X158508645Y-78073371D01*
X158508645Y-78073371D02*
X158365788Y-79025752D01*
X158365788Y-79025752D02*
X158365788Y-79740038D01*
X158365788Y-79740038D02*
X158508645Y-80692419D01*
X158508645Y-80692419D02*
X158651502Y-81168609D01*
X158651502Y-81168609D02*
X158937217Y-81644800D01*
X158937217Y-81644800D02*
X159365788Y-81882895D01*
X159365788Y-81882895D02*
X159651502Y-81882895D01*
X159651502Y-81882895D02*
X160080074Y-81644800D01*
X160080074Y-81644800D02*
X160222931Y-81406704D01*
X160222931Y-81406704D02*
X160222931Y-79740038D01*
X160222931Y-79740038D02*
X159651502Y-79740038D01*
X161508645Y-79263847D02*
X162508645Y-79263847D01*
X162937217Y-81882895D02*
X161508645Y-81882895D01*
X161508645Y-81882895D02*
X161508645Y-76882895D01*
X161508645Y-76882895D02*
X162937217Y-76882895D01*
G36*
X130148569Y-149950000D02*
G01*
X128720481Y-149950000D01*
X128524842Y-149324738D01*
X127832414Y-149324738D01*
X127222784Y-149321074D01*
X127119469Y-149318632D01*
X126983914Y-149744836D01*
X126909980Y-149959655D01*
X126899651Y-149981751D01*
X126841765Y-150028157D01*
X126771423Y-149925575D01*
X126811723Y-149758269D01*
X126885414Y-149542586D01*
X126962030Y-149322577D01*
X127035961Y-149111388D01*
X127043374Y-149090265D01*
X127210327Y-149090265D01*
X127828750Y-149090265D01*
X128448639Y-149090265D01*
X127859525Y-147253558D01*
X127499023Y-148261060D01*
X127210327Y-149090265D01*
X127043374Y-149090265D01*
X127093091Y-148948604D01*
X128339462Y-145415631D01*
X128499930Y-144947906D01*
X130148569Y-149950000D01*
G37*
G36*
X130909874Y-148465003D02*
G01*
X131070702Y-148485277D01*
X131223480Y-148554412D01*
X131350976Y-148672609D01*
X131459143Y-148863677D01*
X131512165Y-149101504D01*
X131518039Y-149227041D01*
X131494236Y-149475023D01*
X131414730Y-149701812D01*
X131348778Y-149805896D01*
X131220881Y-149932437D01*
X131068913Y-150006452D01*
X130909874Y-150028157D01*
X130750872Y-150007931D01*
X130597394Y-149936823D01*
X130458404Y-149797766D01*
X130401360Y-149704535D01*
X130324177Y-149485494D01*
X130302442Y-149262456D01*
X130325626Y-149014015D01*
X130403067Y-148789832D01*
X130467306Y-148688485D01*
X130593983Y-148564555D01*
X130747328Y-148489976D01*
X130909874Y-148465003D01*
G37*
G36*
X133225296Y-146745533D02*
G01*
X133221329Y-146996149D01*
X133220900Y-147131437D01*
X133220900Y-147337822D01*
X133234822Y-149715526D01*
X133933845Y-149715526D01*
X134428436Y-149715526D01*
X134550069Y-149832763D01*
X134488520Y-149943893D01*
X134336107Y-149949546D01*
X134317062Y-149950000D01*
X131975994Y-149950000D01*
X131978192Y-149771702D01*
X131980390Y-148623761D01*
X131988450Y-147393998D01*
X131971598Y-145260537D01*
X134155861Y-145260537D01*
X134304788Y-145266032D01*
X134322923Y-145270307D01*
X134370551Y-145381437D01*
X134279692Y-145495010D01*
X134265771Y-145495010D01*
X133233356Y-145495010D01*
X133224563Y-146511060D01*
X133449511Y-146513503D01*
X134170516Y-146511060D01*
X134329518Y-146511060D01*
X134443824Y-146533042D01*
X134471667Y-146622191D01*
X134343765Y-146745413D01*
X134335380Y-146745533D01*
X134172714Y-146745533D01*
X133225296Y-146745533D01*
G37*
X127722931Y-63450038D02*
X128103884Y-63450038D01*
X128103884Y-63450038D02*
X128294360Y-63545276D01*
X128294360Y-63545276D02*
X128484836Y-63735752D01*
X128484836Y-63735752D02*
X128580074Y-64116704D01*
X128580074Y-64116704D02*
X128580074Y-64783371D01*
X128580074Y-64783371D02*
X128484836Y-65164323D01*
X128484836Y-65164323D02*
X128294360Y-65354800D01*
X128294360Y-65354800D02*
X128103884Y-65450038D01*
X128103884Y-65450038D02*
X127722931Y-65450038D01*
X127722931Y-65450038D02*
X127532455Y-65354800D01*
X127532455Y-65354800D02*
X127341979Y-65164323D01*
X127341979Y-65164323D02*
X127246741Y-64783371D01*
X127246741Y-64783371D02*
X127246741Y-64116704D01*
X127246741Y-64116704D02*
X127341979Y-63735752D01*
X127341979Y-63735752D02*
X127532455Y-63545276D01*
X127532455Y-63545276D02*
X127722931Y-63450038D01*
X129341979Y-65354800D02*
X129627693Y-65450038D01*
X129627693Y-65450038D02*
X130103884Y-65450038D01*
X130103884Y-65450038D02*
X130294360Y-65354800D01*
X130294360Y-65354800D02*
X130389598Y-65259561D01*
X130389598Y-65259561D02*
X130484836Y-65069085D01*
X130484836Y-65069085D02*
X130484836Y-64878609D01*
X130484836Y-64878609D02*
X130389598Y-64688133D01*
X130389598Y-64688133D02*
X130294360Y-64592895D01*
X130294360Y-64592895D02*
X130103884Y-64497657D01*
X130103884Y-64497657D02*
X129722931Y-64402419D01*
X129722931Y-64402419D02*
X129532455Y-64307180D01*
X129532455Y-64307180D02*
X129437217Y-64211942D01*
X129437217Y-64211942D02*
X129341979Y-64021466D01*
X129341979Y-64021466D02*
X129341979Y-63830990D01*
X129341979Y-63830990D02*
X129437217Y-63640514D01*
X129437217Y-63640514D02*
X129532455Y-63545276D01*
X129532455Y-63545276D02*
X129722931Y-63450038D01*
X129722931Y-63450038D02*
X130199122Y-63450038D01*
X130199122Y-63450038D02*
X130484836Y-63545276D01*
X132770550Y-63354800D02*
X131056265Y-65926228D01*
X134103884Y-64402419D02*
X134389598Y-64497657D01*
X134389598Y-64497657D02*
X134484836Y-64592895D01*
X134484836Y-64592895D02*
X134580074Y-64783371D01*
X134580074Y-64783371D02*
X134580074Y-65069085D01*
X134580074Y-65069085D02*
X134484836Y-65259561D01*
X134484836Y-65259561D02*
X134389598Y-65354800D01*
X134389598Y-65354800D02*
X134199122Y-65450038D01*
X134199122Y-65450038D02*
X133437217Y-65450038D01*
X133437217Y-65450038D02*
X133437217Y-63450038D01*
X133437217Y-63450038D02*
X134103884Y-63450038D01*
X134103884Y-63450038D02*
X134294360Y-63545276D01*
X134294360Y-63545276D02*
X134389598Y-63640514D01*
X134389598Y-63640514D02*
X134484836Y-63830990D01*
X134484836Y-63830990D02*
X134484836Y-64021466D01*
X134484836Y-64021466D02*
X134389598Y-64211942D01*
X134389598Y-64211942D02*
X134294360Y-64307180D01*
X134294360Y-64307180D02*
X134103884Y-64402419D01*
X134103884Y-64402419D02*
X133437217Y-64402419D01*
X135818169Y-63450038D02*
X136199122Y-63450038D01*
X136199122Y-63450038D02*
X136389598Y-63545276D01*
X136389598Y-63545276D02*
X136580074Y-63735752D01*
X136580074Y-63735752D02*
X136675312Y-64116704D01*
X136675312Y-64116704D02*
X136675312Y-64783371D01*
X136675312Y-64783371D02*
X136580074Y-65164323D01*
X136580074Y-65164323D02*
X136389598Y-65354800D01*
X136389598Y-65354800D02*
X136199122Y-65450038D01*
X136199122Y-65450038D02*
X135818169Y-65450038D01*
X135818169Y-65450038D02*
X135627693Y-65354800D01*
X135627693Y-65354800D02*
X135437217Y-65164323D01*
X135437217Y-65164323D02*
X135341979Y-64783371D01*
X135341979Y-64783371D02*
X135341979Y-64116704D01*
X135341979Y-64116704D02*
X135437217Y-63735752D01*
X135437217Y-63735752D02*
X135627693Y-63545276D01*
X135627693Y-63545276D02*
X135818169Y-63450038D01*
X137913407Y-63450038D02*
X138294360Y-63450038D01*
X138294360Y-63450038D02*
X138484836Y-63545276D01*
X138484836Y-63545276D02*
X138675312Y-63735752D01*
X138675312Y-63735752D02*
X138770550Y-64116704D01*
X138770550Y-64116704D02*
X138770550Y-64783371D01*
X138770550Y-64783371D02*
X138675312Y-65164323D01*
X138675312Y-65164323D02*
X138484836Y-65354800D01*
X138484836Y-65354800D02*
X138294360Y-65450038D01*
X138294360Y-65450038D02*
X137913407Y-65450038D01*
X137913407Y-65450038D02*
X137722931Y-65354800D01*
X137722931Y-65354800D02*
X137532455Y-65164323D01*
X137532455Y-65164323D02*
X137437217Y-64783371D01*
X137437217Y-64783371D02*
X137437217Y-64116704D01*
X137437217Y-64116704D02*
X137532455Y-63735752D01*
X137532455Y-63735752D02*
X137722931Y-63545276D01*
X137722931Y-63545276D02*
X137913407Y-63450038D01*
X139341979Y-63450038D02*
X140484836Y-63450038D01*
X139913407Y-65450038D02*
X139913407Y-63450038D01*
X162854800Y-51953258D02*
X162950038Y-51667544D01*
X162950038Y-51667544D02*
X162950038Y-51191353D01*
X162950038Y-51191353D02*
X162854800Y-51000877D01*
X162854800Y-51000877D02*
X162759561Y-50905639D01*
X162759561Y-50905639D02*
X162569085Y-50810401D01*
X162569085Y-50810401D02*
X162378609Y-50810401D01*
X162378609Y-50810401D02*
X162188133Y-50905639D01*
X162188133Y-50905639D02*
X162092895Y-51000877D01*
X162092895Y-51000877D02*
X161997657Y-51191353D01*
X161997657Y-51191353D02*
X161902419Y-51572306D01*
X161902419Y-51572306D02*
X161807180Y-51762782D01*
X161807180Y-51762782D02*
X161711942Y-51858020D01*
X161711942Y-51858020D02*
X161521466Y-51953258D01*
X161521466Y-51953258D02*
X161330990Y-51953258D01*
X161330990Y-51953258D02*
X161140514Y-51858020D01*
X161140514Y-51858020D02*
X161045276Y-51762782D01*
X161045276Y-51762782D02*
X160950038Y-51572306D01*
X160950038Y-51572306D02*
X160950038Y-51096115D01*
X160950038Y-51096115D02*
X161045276Y-50810401D01*
X160950038Y-50238972D02*
X160950038Y-49096115D01*
X162950038Y-49667544D02*
X160950038Y-49667544D01*
X160950038Y-48048496D02*
X160950038Y-47667543D01*
X160950038Y-47667543D02*
X161045276Y-47477067D01*
X161045276Y-47477067D02*
X161235752Y-47286591D01*
X161235752Y-47286591D02*
X161616704Y-47191353D01*
X161616704Y-47191353D02*
X162283371Y-47191353D01*
X162283371Y-47191353D02*
X162664323Y-47286591D01*
X162664323Y-47286591D02*
X162854800Y-47477067D01*
X162854800Y-47477067D02*
X162950038Y-47667543D01*
X162950038Y-47667543D02*
X162950038Y-48048496D01*
X162950038Y-48048496D02*
X162854800Y-48238972D01*
X162854800Y-48238972D02*
X162664323Y-48429448D01*
X162664323Y-48429448D02*
X162283371Y-48524686D01*
X162283371Y-48524686D02*
X161616704Y-48524686D01*
X161616704Y-48524686D02*
X161235752Y-48429448D01*
X161235752Y-48429448D02*
X161045276Y-48238972D01*
X161045276Y-48238972D02*
X160950038Y-48048496D01*
X162950038Y-45191353D02*
X161997657Y-45858020D01*
X162950038Y-46334210D02*
X160950038Y-46334210D01*
X160950038Y-46334210D02*
X160950038Y-45572305D01*
X160950038Y-45572305D02*
X161045276Y-45381829D01*
X161045276Y-45381829D02*
X161140514Y-45286591D01*
X161140514Y-45286591D02*
X161330990Y-45191353D01*
X161330990Y-45191353D02*
X161616704Y-45191353D01*
X161616704Y-45191353D02*
X161807180Y-45286591D01*
X161807180Y-45286591D02*
X161902419Y-45381829D01*
X161902419Y-45381829D02*
X161997657Y-45572305D01*
X161997657Y-45572305D02*
X161997657Y-46334210D01*
X161902419Y-44334210D02*
X161902419Y-43667543D01*
X162950038Y-43381829D02*
X162950038Y-44334210D01*
X162950038Y-44334210D02*
X160950038Y-44334210D01*
X160950038Y-44334210D02*
X160950038Y-43381829D01*
D11*
%TO.C,D1*%
X162600000Y-30400000D02*
X162600000Y-33200000D01*
X162600000Y-33200000D02*
X167300000Y-33200000D01*
X165450000Y-30700000D02*
X164750000Y-30700000D01*
X165450000Y-32900000D02*
X164750000Y-32900000D01*
X167300000Y-30400000D02*
X162600000Y-30400000D01*
%TO.C,MBCI_VIDEO1*%
X174905000Y-126115000D02*
X175600000Y-126115000D01*
X174905000Y-126800000D02*
X174905000Y-126115000D01*
X174905000Y-127485000D02*
X174905000Y-141360000D01*
X174905000Y-127485000D02*
X174991724Y-127485000D01*
X174905000Y-141360000D02*
X175205507Y-141360000D01*
X175994493Y-141360000D02*
X176295000Y-141360000D01*
X176208276Y-127485000D02*
X176295000Y-127485000D01*
X176295000Y-127485000D02*
X176295000Y-141360000D01*
%TO.C,SIM_SLOT_1*%
X168085500Y-35722500D02*
X168085500Y-35214500D01*
X168085500Y-41056500D02*
X168085500Y-38961000D01*
X168085500Y-45946000D02*
X168085500Y-43300000D01*
X168085500Y-49946500D02*
X168085500Y-48676500D01*
X170879500Y-49946500D02*
X168085500Y-49946500D01*
X170879500Y-49946500D02*
X170879500Y-49502000D01*
X171832000Y-49500000D02*
X170879500Y-49500000D01*
X176277000Y-49502000D02*
X173483000Y-49500000D01*
X179700000Y-35214500D02*
X168085500Y-35214500D01*
X179700000Y-35214500D02*
X179700000Y-35722500D01*
X179706000Y-38961000D02*
X179706000Y-41056500D01*
X179706000Y-43300000D02*
X179706000Y-49500000D01*
X179706000Y-49500000D02*
X177928000Y-49500000D01*
%TO.C,MBCI_IO1*%
X163705000Y-126015000D02*
X164400000Y-126015000D01*
X163705000Y-126700000D02*
X163705000Y-126015000D01*
X163705000Y-127385000D02*
X163705000Y-141260000D01*
X163705000Y-127385000D02*
X163791724Y-127385000D01*
X163705000Y-141260000D02*
X164005507Y-141260000D01*
X164794493Y-141260000D02*
X165095000Y-141260000D01*
X165008276Y-127385000D02*
X165095000Y-127385000D01*
X165095000Y-127385000D02*
X165095000Y-141260000D01*
%TO.C,ANT1*%
X181990000Y-36610000D02*
X181990000Y-34850000D01*
X184010000Y-34850000D02*
X184010000Y-36610000D01*
X184010000Y-36610000D02*
X181990000Y-36610000D01*
%TO.C,MBCI_NETWORK1*%
X169205000Y-126015000D02*
X169900000Y-126015000D01*
X169205000Y-126700000D02*
X169205000Y-126015000D01*
X169205000Y-127385000D02*
X169205000Y-141260000D01*
X169205000Y-127385000D02*
X169291724Y-127385000D01*
X169205000Y-141260000D02*
X169505507Y-141260000D01*
X170294493Y-141260000D02*
X170595000Y-141260000D01*
X170508276Y-127385000D02*
X170595000Y-127385000D01*
X170595000Y-127385000D02*
X170595000Y-141260000D01*
%TO.C,JACK_PORT1*%
X170800000Y-152000000D02*
X170800000Y-158200000D01*
X171925000Y-158200000D02*
X170800000Y-158200000D01*
X171925000Y-158200000D02*
X171925000Y-159600000D01*
X172375000Y-152000000D02*
X182900000Y-152000000D01*
X173475000Y-158200000D02*
X173475000Y-159600000D01*
X175875000Y-158200000D02*
X173475000Y-158200000D01*
X178875000Y-158200000D02*
X177525000Y-158200000D01*
X182900000Y-152600000D02*
X182900000Y-152000000D01*
X182900000Y-152600000D02*
X184900000Y-152600000D01*
X182900000Y-157600000D02*
X184900000Y-157600000D01*
X182900000Y-158200000D02*
X180525000Y-158200000D01*
X182900000Y-158200000D02*
X182900000Y-157600000D01*
X184900000Y-157600000D02*
X184900000Y-152600000D01*
%TO.C,BRIDGE_CHIP1*%
X150240000Y-63115000D02*
X150240000Y-64065000D01*
X150240000Y-73335000D02*
X150240000Y-72385000D01*
X151190000Y-63115000D02*
X150240000Y-63115000D01*
X151190000Y-73335000D02*
X150240000Y-73335000D01*
X159510000Y-63115000D02*
X160460000Y-63115000D01*
X159510000Y-73335000D02*
X160460000Y-73335000D01*
X160460000Y-63115000D02*
X160460000Y-64065000D01*
X160460000Y-73335000D02*
X160460000Y-72385000D01*
X149625000Y-64065000D02*
X149285000Y-63595000D01*
X149965000Y-63595000D01*
X149625000Y-64065000D01*
G36*
X149625000Y-64065000D02*
G01*
X149285000Y-63595000D01*
X149965000Y-63595000D01*
X149625000Y-64065000D01*
G37*
%TO.C,SD_SLOT_1*%
X127230000Y-35750000D02*
X127230000Y-40200000D01*
X127230000Y-41600000D02*
X127230000Y-43900000D01*
X127230000Y-45300000D02*
X127230000Y-46020000D01*
X127230000Y-46020000D02*
X129910000Y-46020000D01*
X128710000Y-34380000D02*
X129570000Y-34380000D01*
X132210000Y-46020000D02*
X135880000Y-46020000D01*
X138180000Y-46020000D02*
X139410000Y-46020000D01*
X139410000Y-46020000D02*
X139410000Y-36200000D01*
%TO.C,POWER_USB_C1*%
X151025000Y-152557500D02*
X151025000Y-154187500D01*
X160225000Y-152557500D02*
X160225000Y-154187500D01*
%TO.C,C1*%
X177515000Y-116990000D02*
X177515000Y-119700000D01*
X179085000Y-116990000D02*
X177515000Y-116990000D01*
X179085000Y-119700000D02*
X179085000Y-116990000D01*
%TO.C,FLASH_MEM_MASS1*%
X153085000Y-51650000D02*
X153085000Y-43650000D01*
X159305000Y-51650000D02*
X159305000Y-43650000D01*
X153845000Y-52620000D02*
X153365000Y-52140000D01*
X153845000Y-52140000D01*
X153845000Y-52620000D01*
G36*
X153845000Y-52620000D02*
G01*
X153365000Y-52140000D01*
X153845000Y-52140000D01*
X153845000Y-52620000D01*
G37*
D12*
%TO.C,CPU_1*%
X131200000Y-87800000D02*
X131200000Y-88730000D01*
X131200000Y-87800000D02*
X132130000Y-87800000D01*
X131200000Y-107800000D02*
X131200000Y-106870000D01*
X131200000Y-107800000D02*
X132130000Y-107800000D01*
X151200000Y-87800000D02*
X150270000Y-87800000D01*
X151200000Y-87800000D02*
X151200000Y-88730000D01*
X151200000Y-107800000D02*
X150270000Y-107800000D01*
X151200000Y-107800000D02*
X151200000Y-106870000D01*
D13*
X129082100Y-89254640D02*
G75*
G02*
X128782100Y-89254640I-150000J0D01*
G01*
X128782100Y-89254640D02*
G75*
G02*
X129082100Y-89254640I150000J0D01*
G01*
D11*
%TO.C,FLASH_MEM_OS1*%
X130055000Y-61050000D02*
X130055000Y-53050000D01*
X136275000Y-61050000D02*
X136275000Y-53050000D01*
X130815000Y-62020000D02*
X130335000Y-61540000D01*
X130815000Y-61540000D01*
X130815000Y-62020000D01*
G36*
X130815000Y-62020000D02*
G01*
X130335000Y-61540000D01*
X130815000Y-61540000D01*
X130815000Y-62020000D01*
G37*
%TO.C,MBCI_0*%
X169990000Y-117865000D02*
X169990000Y-117630000D01*
X169990000Y-122610000D02*
X169990000Y-122135000D01*
X170465000Y-117390000D02*
X170290000Y-117390000D01*
X170465000Y-122610000D02*
X169990000Y-122610000D01*
X174735000Y-117390000D02*
X175210000Y-117390000D01*
X174735000Y-122610000D02*
X175210000Y-122610000D01*
X175210000Y-117390000D02*
X175210000Y-117865000D01*
X175210000Y-122610000D02*
X175210000Y-122135000D01*
X169990000Y-117390000D02*
X169750000Y-117060000D01*
X170230000Y-117060000D01*
X169990000Y-117390000D01*
G36*
X169990000Y-117390000D02*
G01*
X169750000Y-117060000D01*
X170230000Y-117060000D01*
X169990000Y-117390000D01*
G37*
%TO.C,SIM_CHIP1*%
X168140000Y-106210000D02*
X168140000Y-103900000D01*
X168140000Y-106210000D02*
X171100000Y-106210000D01*
X168250000Y-88390000D02*
X171100000Y-88390000D01*
X184060000Y-88390000D02*
X181100000Y-88390000D01*
X184060000Y-88390000D02*
X184060000Y-90700000D01*
X184060000Y-106210000D02*
X181100000Y-106210000D01*
X184060000Y-106210000D02*
X184060000Y-103900000D01*
X167690000Y-90660000D02*
X167450000Y-90330000D01*
X167930000Y-90330000D01*
X167690000Y-90660000D01*
G36*
X167690000Y-90660000D02*
G01*
X167450000Y-90330000D01*
X167930000Y-90330000D01*
X167690000Y-90660000D01*
G37*
%TO.C,DDR_RAM1*%
X129900000Y-120100000D02*
X129900000Y-128980000D01*
X130220000Y-129300000D02*
X143100000Y-129300000D01*
X143100000Y-120100000D02*
X129900000Y-120100000D01*
X143100000Y-129300000D02*
X143100000Y-120100000D01*
X129900000Y-129800000D02*
X129400000Y-129300000D01*
X129900000Y-129300000D01*
X129900000Y-129800000D01*
G36*
X129900000Y-129800000D02*
G01*
X129400000Y-129300000D01*
X129900000Y-129300000D01*
X129900000Y-129800000D01*
G37*
%TD*%
M02*
