M48
; DRILL file {KiCad 8.0.2} date 2024-06-25T08:47:23+0200
; FORMAT={-:-/ absolute / inch / decimal}
; #@! TF.CreationDate,2024-06-25T08:47:23+02:00
; #@! TF.GenerationSoftware,Kicad,Pcbnew,8.0.2
; #@! TF.FileFunction,Plated,1,6,PTH
FMAT,2
INCH
; #@! TA.AperFunction,Plated,PTH,ViaDrill
T1C0.0118
; #@! TA.AperFunction,Plated,PTH,ComponentDrill
T2C0.0197
; #@! TA.AperFunction,Plated,PTH,ComponentDrill
T3C0.0433
%
G90
G05
T1
X4.9819Y-4.9045
X4.9843Y-3.7402
X4.9895Y-4.7035
X5.0039Y-3.8622
X5.0039Y-4.0072
X5.0069Y-4.8327
X5.0083Y-3.9129
X5.0092Y-4.8706
X5.0098Y-4.125
X5.0157Y-4.4134
X5.0295Y-4.5738
X5.0315Y-3.9803
X5.0336Y-4.1026
X5.0394Y-3.8583
X5.0482Y-4.0768
X5.0702Y-4.0245
X5.074Y-4.8948
X5.0809Y-3.9783
X5.0811Y-4.8355
X5.0925Y-4.7041
X5.1179Y-4.5686
X5.124Y-4.4705
X5.1474Y-4.7577
X5.1502Y-4.8905
X5.1564Y-4.9467
X5.1565Y-4.2461
X5.1585Y-1.9488
X5.1693Y-4.7835
X5.1693Y-4.815
X5.1693Y-4.8465
X5.1693Y-5.0039
X5.1791Y-4.5719
X5.1889Y-4.0927
X5.1919Y-2.2265
X5.1919Y-4.7303
X5.1929Y-5.1772
X5.1932Y-1.6897
X5.1934Y-3.8941
X5.1969Y-3.8455
X5.1998Y-3.7539
X5.2008Y-4.815
X5.2008Y-4.8465
X5.2008Y-4.9724
X5.2008Y-5.0039
X5.2018Y-3.7854
X5.2047Y-4.0433
X5.2126Y-4.0719
X5.2154Y-4.2067
X5.2156Y-4.1772
X5.2165Y-4.1033
X5.2165Y-3.874
X5.2185Y-4.8878
X5.2205Y-4.7598
X5.2323Y-4.815
X5.2323Y-4.8465
X5.2339Y-4.0386
X5.2362Y-3.9016
X5.2362Y-4.3547
X5.2402Y-3.7795
X5.2405Y-4.1526
X5.2449Y-1.8055
X5.2462Y-4.9472
X5.2464Y-4.7005
X5.248Y-3.9676
X5.251Y-4.9114
X5.2569Y-4.7435
X5.2591Y-5.0717
X5.276Y-2.286
X5.2798Y-4.0712
X5.2822Y-4.3971
X5.2827Y-4.1762
X5.2834Y-4.2178
X5.2892Y-4.7536
X5.2953Y-4.815
X5.2953Y-4.8465
X5.2953Y-5.0039
X5.2992Y-3.7626
X5.3046Y-4.0941
X5.3071Y-4.4252
X5.3071Y-4.9016
X5.3141Y-4.1603
X5.3268Y-4.815
X5.3268Y-5.0039
X5.3269Y-4.2088
X5.3321Y-4.5463
X5.3321Y-4.0265
X5.3386Y-3.9528
X5.3396Y-3.8809
X5.3465Y-4.8724
X5.3486Y-4.6373
X5.3538Y-4.9408
X5.3563Y-4.8159
X5.3639Y-3.7735
X5.3668Y-4.9054
X5.373Y-4.7451
X5.378Y-4.876
X5.3789Y-2.3461
X5.3813Y-2.0045
X5.3819Y-5.1732
X5.3898Y-4.815
X5.3898Y-4.9724
X5.3898Y-5.0039
X5.4016Y-4.0906
X5.4094Y-4.3366
X5.4213Y-4.815
X5.4213Y-4.9724
X5.4213Y-5.0039
X5.4273Y-4.7506
X5.4293Y-1.4089
X5.4345Y-4.1177
X5.4353Y-4.6889
X5.4367Y-4.8737
X5.4415Y-4.3986
X5.4424Y-4.5632
X5.4488Y-4.3386
X5.4518Y-4.0207
X5.452Y-3.5418
X5.4528Y-4.815
X5.4528Y-4.9134
X5.4528Y-4.9724
X5.4544Y-3.4971
X5.4606Y-5.0613
X5.4626Y-5.247
X5.4642Y-1.6897
X5.4772Y-4.8738
X5.4831Y-4.7359
X5.4843Y-5.0039
X5.4862Y-4.3849
X5.4882Y-4.6778
X5.489Y-4.4219
X5.4917Y-3.5692
X5.4971Y-5.0827
X5.4986Y-4.9397
X5.5148Y-4.814
X5.5157Y-4.7835
X5.5157Y-5.0039
X5.5161Y-4.3658
X5.523Y-4.9222
X5.5253Y-4.1965
X5.5295Y-4.4406
X5.5354Y-4.3386
X5.537Y-4.7207
X5.5472Y-3.5838
X5.5472Y-4.815
X5.5472Y-5.0039
X5.5477Y-5.0657
X5.55Y-4.8781
X5.5512Y-4.374
X5.5568Y-4.4661
X5.5655Y-4.9274
X5.5728Y-4.6949
X5.5742Y-4.0082
X5.5743Y-4.1894
X5.5787Y-4.815
X5.5787Y-5.0039
X5.5841Y-4.8809
X5.5912Y-5.0805
X5.6025Y-4.717
X5.6054Y-4.1954
X5.6061Y-4.1176
X5.6133Y-4.8941
X5.6181Y-4.3819
X5.6239Y-4.9475
X5.64Y-4.7751
X5.6428Y-5.0938
X5.6444Y-4.8376
X5.6477Y-5.0245
X5.6478Y-4.9939
X5.6486Y-3.992
X5.6487Y-4.8047
X5.6599Y-4.6112
X5.6614Y-4.4803
X5.6647Y-4.6687
X5.6732Y-3.0591
X5.6732Y-4.1654
X5.6781Y-4.748
X5.6813Y-3.7143
X5.6831Y-4.9216
X5.6841Y-4.9688
X5.6964Y-4.8211
X5.6969Y-2.6457
X5.6992Y-4.6641
X5.7041Y-4.6985
X5.707Y-4.5326
X5.7114Y-4.7505
X5.7116Y-4.3622
X5.7308Y-5.0046
X5.7443Y-2.7474
X5.7617Y-3.2248
X5.7657Y-5.0887
X5.7689Y-2.703
X5.7692Y-5.0431
X5.7792Y-3.5547
X5.7835Y-2.8268
X5.7863Y-3.2666
X5.7879Y-4.92
X5.7913Y-2.6772
X5.7953Y-5.0077
X5.7953Y-2.5887
X5.8031Y-2.6299
X5.8058Y-3.5247
X5.811Y-2.7559
X5.8132Y-2.5508
X5.8134Y-4.6708
X5.8226Y-3.961
X5.8228Y-2.8228
X5.8231Y-4.8021
X5.8241Y-4.4559
X5.8249Y-5.009
X5.8259Y-3.339
X5.8262Y-2.6991
X5.8268Y-2.6496
X5.8346Y-4.5773
X5.8349Y-2.7371
X5.8362Y-3.5486
X5.838Y-3.9994
X5.8386Y-4.6299
X5.8413Y-2.9174
X5.8491Y-4.5
X5.8544Y-4.9408
X5.855Y-3.2677
X5.8563Y-5.1713
X5.8615Y-4.748
X5.8622Y-4.4016
X5.8661Y-2.8898
X5.8803Y-2.5111
X5.8813Y-3.2522
X5.9055Y-4.9128
X5.9056Y-2.8874
X5.9098Y-4.6845
X5.9134Y-4.3976
X5.9225Y-1.6898
X5.9285Y-4.854
X5.9286Y-4.7373
X5.9419Y-2.6428
X5.9425Y-2.6977
X5.9524Y-4.2751
X5.957Y-2.7582
X5.9648Y-4.6311
X5.9687Y-4.3068
X5.9886Y-4.8367
X5.9905Y-3.2201
X5.9928Y-3.4024
X5.9974Y-4.29
X6.0095Y-3.4291
X6.0157Y-5.5315
X6.0173Y-3.4647
X6.0174Y-2.8162
X6.0205Y-4.6639
X6.0236Y-4.5866
X6.0241Y-2.9811
X6.0287Y-2.6189
X6.0354Y-2.4074
X6.0371Y-1.9211
X6.0504Y-2.7039
X6.0527Y-4.1631
X6.057Y-3.196
X6.0834Y-2.5388
X6.0871Y-2.387
X6.0984Y-4.2874
X6.1116Y-4.3905
X6.1273Y-2.5167
X6.1316Y-2.8542
X6.1414Y-2.7027
X6.1512Y-2.1176
X6.1515Y-2.1523
X6.1535Y-2.2313
X6.1559Y-3.506
X6.1582Y-3.3025
X6.1639Y-2.0696
X6.1648Y-2.8542
X6.1655Y-2.4111
X6.1754Y-3.5462
X6.1763Y-2.6581
X6.179Y-3.4655
X6.1833Y-2.9858
X6.1856Y-2.8177
X6.1893Y-2.1193
X6.2006Y-3.3898
X6.2147Y-2.6384
X6.2313Y-2.362
X6.237Y-2.2637
X6.2458Y-2.5807
X6.2528Y-2.5375
X6.2568Y-2.7675
X6.2637Y-4.8446
X6.2708Y-2.7092
X6.2771Y-3.0371
X6.2913Y-4.3819
X6.2931Y-2.0223
X6.3102Y-2.2955
X6.311Y-4.311
X6.311Y-5.6969
X6.3425Y-5.1575
X6.3488Y-4.9712
X6.3734Y-2.1524
X6.3911Y-2.7634
X6.3963Y-2.4993
X6.397Y-2.7995
X6.4004Y-2.5998
X6.4041Y-2.6821
X6.4094Y-3.5787
X6.4252Y-5.6969
X6.4331Y-3.3701
X6.4619Y-2.839
X6.463Y-4.5213
X6.4721Y-4.9296
X6.4763Y-2.7342
X6.48Y-2.5134
X6.4919Y-4.6274
X6.4976Y-2.8055
X6.5026Y-3.6529
X6.5118Y-3.1417
X6.5154Y-4.5626
X6.5197Y-2.6058
X6.5276Y-4.1732
X6.535Y-3.6138
X6.5394Y-3.0394
X6.5405Y-3.2099
X6.5519Y-2.6253
X6.5586Y-2.5386
X6.5606Y-4.9654
X6.5701Y-3.6709
X6.574Y-3.5914
X6.574Y-3.5301
X6.5888Y-4.9292
X6.6098Y-3.1933
X6.6098Y-5.5066
X6.6224Y-4.5331
X6.6417Y-4.2598
X6.6467Y-4.4883
X6.6855Y-4.8365
X6.6934Y-4.9362
X6.718Y-4.8654
X6.7255Y-5.2386
X6.7255Y-3.8873
X6.744Y-4.5891
X6.7605Y-3.309
X6.7607Y-4.5571
X6.7621Y-3.7841
X6.7879Y-5.0223
X6.7883Y-4.5064
X6.8032Y-4.5859
X6.8056Y-4.9628
X6.8062Y-4.8576
X6.8137Y-4.5429
X6.8148Y-3.409
X6.8323Y-5.6207
X6.8358Y-4.8642
X6.8454Y-4.9131
X6.8537Y-1.9046
X6.8543Y-3.7087
X6.8572Y-4.5568
X6.8754Y-5.0244
X6.8819Y-5.7126
X6.8824Y-4.881
X6.8934Y-4.8341
X6.9035Y-3.719
X6.9127Y-3.5569
X6.9242Y-4.3406
X6.9418Y-4.5878
X6.9567Y-1.5622
X6.9775Y-1.8054
X6.985Y-4.5868
X7.0394Y-4.3406
X7.0835Y-3.4183
X7.1718Y-3.759
X7.2313Y-4.3415
X7.2717Y-4.3415
T2
X6.4724Y-4.9882
X6.4724Y-5.0276
X6.4724Y-5.0669
X6.4724Y-5.1063
X6.4724Y-5.1457
X6.4724Y-5.185
X6.4724Y-5.2244
X6.4724Y-5.2638
X6.4724Y-5.3031
X6.4724Y-5.3425
X6.4724Y-5.3819
X6.4724Y-5.4213
X6.4724Y-5.4606
X6.4724Y-5.5
X6.4724Y-5.5394
X6.689Y-4.9882
X6.689Y-5.0276
X6.689Y-5.0669
X6.689Y-5.1063
X6.689Y-5.1457
X6.689Y-5.185
X6.689Y-5.2244
X6.689Y-5.2638
X6.689Y-5.3031
X6.689Y-5.3425
X6.689Y-5.3819
X6.689Y-5.4213
X6.689Y-5.4606
X6.689Y-5.5
X6.689Y-5.5394
X6.9134Y-4.9921
X6.9134Y-5.0315
X6.9134Y-5.0709
X6.9134Y-5.1102
X6.9134Y-5.1496
X6.9134Y-5.189
X6.9134Y-5.2283
X6.9134Y-5.2677
X6.9134Y-5.3071
X6.9134Y-5.3465
X6.9134Y-5.3858
X6.9134Y-5.4252
X6.9134Y-5.4646
X6.9134Y-5.5039
X6.9134Y-5.5433
T3
X7.2047Y-1.4016
M30
