%TF.GenerationSoftware,KiCad,Pcbnew,8.0.2*%
%TF.CreationDate,2024-06-30T04:14:51+02:00*%
%TF.ProjectId,Undroid,556e6472-6f69-4642-9e6b-696361645f70,rev?*%
%TF.SameCoordinates,Original*%
%TF.FileFunction,Copper,L2,Inr*%
%TF.FilePolarity,Positive*%
%FSLAX46Y46*%
G04 Gerber Fmt 4.6, Leading zero omitted, Abs format (unit mm)*
G04 Created by KiCad (PCBNEW 8.0.2) date 2024-06-30 04:14:51*
%MOMM*%
%LPD*%
G01*
G04 APERTURE LIST*
G04 Aperture macros list*
%AMRoundRect*
0 Rectangle with rounded corners*
0 $1 Rounding radius*
0 $2 $3 $4 $5 $6 $7 $8 $9 X,Y pos of 4 corners*
0 Add a 4 corners polygon primitive as box body*
4,1,4,$2,$3,$4,$5,$6,$7,$8,$9,$2,$3,0*
0 Add four circle primitives for the rounded corners*
1,1,$1+$1,$2,$3*
1,1,$1+$1,$4,$5*
1,1,$1+$1,$6,$7*
1,1,$1+$1,$8,$9*
0 Add four rect primitives between the rounded corners*
20,1,$1+$1,$2,$3,$4,$5,0*
20,1,$1+$1,$4,$5,$6,$7,0*
20,1,$1+$1,$6,$7,$8,$9,0*
20,1,$1+$1,$8,$9,$2,$3,0*%
G04 Aperture macros list end*
%TA.AperFunction,ComponentPad*%
%ADD10R,0.850000X0.850000*%
%TD*%
%TA.AperFunction,ComponentPad*%
%ADD11O,0.850000X0.850000*%
%TD*%
%TA.AperFunction,ComponentPad*%
%ADD12RoundRect,0.246063X-0.503937X-0.503937X0.503937X-0.503937X0.503937X0.503937X-0.503937X0.503937X0*%
%TD*%
%TA.AperFunction,ViaPad*%
%ADD13C,0.600000*%
%TD*%
%TA.AperFunction,Conductor*%
%ADD14C,0.200000*%
%TD*%
G04 APERTURE END LIST*
D10*
%TO.N,RED_V*%
%TO.C,MBCI_VIDEO1*%
X175600000Y-126800000D03*
D11*
%TO.N,GREEN_V*%
X175600000Y-127800000D03*
%TO.N,BLUE_V*%
X175600000Y-128800000D03*
%TO.N,ALPHA_V*%
X175600000Y-129800000D03*
%TO.N,HSYNC_V*%
X175600000Y-130800000D03*
%TO.N,VSYNC_V*%
X175600000Y-131800000D03*
%TO.N,unconnected-(MBCI_VIDEO1-Pin_7-Pad7)*%
X175600000Y-132800000D03*
%TO.N,3.3V*%
X175600000Y-133800000D03*
%TO.N,unconnected-(MBCI_VIDEO1-Pin_9-Pad9)*%
X175600000Y-134800000D03*
%TO.N,unconnected-(MBCI_VIDEO1-Pin_10-Pad10)*%
X175600000Y-135800000D03*
%TO.N,CLK*%
X175600000Y-136800000D03*
%TO.N,unconnected-(MBCI_VIDEO1-Pin_12-Pad12)*%
X175600000Y-137800000D03*
%TO.N,unconnected-(MBCI_VIDEO1-Pin_13-Pad13)*%
X175600000Y-138800000D03*
%TO.N,unconnected-(MBCI_VIDEO1-Pin_14-Pad14)*%
X175600000Y-139800000D03*
%TO.N,GND*%
X175600000Y-140800000D03*
%TD*%
D10*
%TO.N,UBOOT*%
%TO.C,MBCI_IO1*%
X164400000Y-126700000D03*
D11*
%TO.N,RESET_N*%
X164400000Y-127700000D03*
%TO.N,RTC_IN*%
X164400000Y-128700000D03*
%TO.N,CONN_NMI_N*%
X164400000Y-129700000D03*
%TO.N,UBOOT_MBCI*%
X164400000Y-130700000D03*
%TO.N,GSM_PWR_N*%
X164400000Y-131700000D03*
%TO.N,GSM_RST_N*%
X164400000Y-132700000D03*
%TO.N,3.3V*%
X164400000Y-133700000D03*
%TO.N,unconnected-(MBCI_IO1-Pin_9-Pad9)*%
X164400000Y-134700000D03*
%TO.N,unconnected-(MBCI_IO1-Pin_10-Pad10)*%
X164400000Y-135700000D03*
%TO.N,CLK*%
X164400000Y-136700000D03*
%TO.N,unconnected-(MBCI_IO1-Pin_12-Pad12)*%
X164400000Y-137700000D03*
%TO.N,unconnected-(MBCI_IO1-Pin_13-Pad13)*%
X164400000Y-138700000D03*
%TO.N,unconnected-(MBCI_IO1-Pin_14-Pad14)*%
X164400000Y-139700000D03*
%TO.N,GND*%
X164400000Y-140700000D03*
%TD*%
D12*
%TO.N,Net-(ANT1-A)*%
%TO.C,ANT1*%
X183000000Y-35600000D03*
%TD*%
D10*
%TO.N,DAT0_N*%
%TO.C,MBCI_NETWORK1*%
X169900000Y-126700000D03*
D11*
%TO.N,DAT1_N*%
X169900000Y-127700000D03*
%TO.N,DAT2_N*%
X169900000Y-128700000D03*
%TO.N,DAT3_N*%
X169900000Y-129700000D03*
%TO.N,DAT4_N*%
X169900000Y-130700000D03*
%TO.N,AVAIL_N*%
X169900000Y-131700000D03*
%TO.N,unconnected-(MBCI_NETWORK1-Pin_7-Pad7)*%
X169900000Y-132700000D03*
%TO.N,3.3V*%
X169900000Y-133700000D03*
%TO.N,unconnected-(MBCI_NETWORK1-Pin_9-Pad9)*%
X169900000Y-134700000D03*
%TO.N,unconnected-(MBCI_NETWORK1-Pin_10-Pad10)*%
X169900000Y-135700000D03*
%TO.N,CLK*%
X169900000Y-136700000D03*
%TO.N,unconnected-(MBCI_NETWORK1-Pin_12-Pad12)*%
X169900000Y-137700000D03*
%TO.N,unconnected-(MBCI_NETWORK1-Pin_13-Pad13)*%
X169900000Y-138700000D03*
%TO.N,unconnected-(MBCI_NETWORK1-Pin_14-Pad14)*%
X169900000Y-139700000D03*
%TO.N,GND*%
X169900000Y-140700000D03*
%TD*%
D13*
%TO.N,Net-(BRIDGE_CHIP1-GND-Pad14)*%
X147600000Y-70000000D03*
X150924500Y-67127100D03*
X148000000Y-67300000D03*
X155990900Y-68647400D03*
X144700000Y-67200000D03*
%TO.N,GND*%
X175875000Y-110250000D03*
X173200000Y-32100000D03*
X155850000Y-56975000D03*
X146447909Y-129252091D03*
X178800000Y-110250000D03*
X162570091Y-66035909D03*
X147800000Y-56975000D03*
X184700000Y-110275000D03*
X161250000Y-145423873D03*
X131025000Y-49500000D03*
X160300000Y-109500000D03*
X147400000Y-66800000D03*
X170075000Y-32750000D03*
X161775000Y-141625000D03*
X150200000Y-111700000D03*
X151175000Y-147375000D03*
X156175000Y-145425000D03*
X162467217Y-63482783D03*
X154900000Y-108900000D03*
X159800000Y-111300000D03*
X165800000Y-106000000D03*
X156875000Y-149175000D03*
X168700000Y-108200000D03*
X148750000Y-131350000D03*
%TO.N,CTS1*%
X165165200Y-92784300D03*
X144100000Y-77700000D03*
X156855500Y-90072400D03*
X151307000Y-70059200D03*
%TO.N,TX1*%
X156946500Y-88023200D03*
X150938400Y-68520700D03*
X166979200Y-91222200D03*
X150002400Y-73340400D03*
%TO.N,GSM_RST*%
X173095100Y-86587800D03*
X175581600Y-90346400D03*
%TO.N,GSM_VPP*%
X174082800Y-48377000D03*
X164131900Y-72110200D03*
%TO.N,RX1*%
X146531200Y-68655900D03*
X156358600Y-89053200D03*
X165988000Y-91791600D03*
X147986400Y-68555900D03*
X146900000Y-71800000D03*
X148368500Y-74101300D03*
%TO.N,GSM_GPIO_1*%
X157853400Y-67014400D03*
X171756400Y-96116300D03*
X149000000Y-73400000D03*
X147200621Y-65753597D03*
X147900000Y-71700000D03*
X182164700Y-95478100D03*
%TO.N,RI1*%
X166979700Y-89663400D03*
X157494100Y-86101800D03*
%TO.N,RTS1*%
X147100000Y-68000000D03*
X161885600Y-54670300D03*
X171717200Y-84048300D03*
X166881600Y-93241000D03*
%TO.N,GSM_IO*%
X164497400Y-69447900D03*
X177227300Y-45856900D03*
X175349000Y-94463500D03*
%TO.N,Net-(DDR_RAM1-VSSQ-PadB1)*%
X126539600Y-124575100D03*
X132900000Y-122300000D03*
X131300000Y-121500000D03*
X130744300Y-120846100D03*
X127232700Y-123713600D03*
%TO.N,SD2_F1*%
X154519500Y-64485700D03*
X153300300Y-61147800D03*
%TO.N,A12{slash}BC_N*%
X173874000Y-124793600D03*
X141836200Y-123975100D03*
X144224900Y-120598600D03*
X143883900Y-118585900D03*
X134167100Y-111687077D03*
X144689100Y-122456700D03*
%TO.N,A3*%
X148900000Y-111800000D03*
X143800000Y-113800000D03*
X163400000Y-85600000D03*
X162800000Y-90900000D03*
X140600000Y-110200000D03*
X142700000Y-111300000D03*
X166100000Y-77200000D03*
X140100000Y-127100000D03*
X148300000Y-117600000D03*
%TO.N,A0*%
X153680800Y-68678900D03*
X138035900Y-104589000D03*
X138542300Y-88825800D03*
X140108059Y-110891941D03*
X140450500Y-112792400D03*
X139271000Y-120292900D03*
X140284000Y-125024600D03*
%TO.N,A4*%
X145905600Y-69783100D03*
X147655000Y-64790300D03*
X158820700Y-64452800D03*
X140900000Y-122300000D03*
X134800000Y-112400000D03*
X134978900Y-105670500D03*
%TO.N,SD2_F2*%
X157056400Y-75839600D03*
X149386100Y-82605800D03*
%TO.N,SD3_F1*%
X156240900Y-53787400D03*
X159278800Y-68812700D03*
%TO.N,SD1_F2*%
X148207700Y-69521500D03*
X131874300Y-56552600D03*
%TO.N,SD_DAT1*%
X137904200Y-35787300D03*
X150431600Y-42920700D03*
%TO.N,A5*%
X140900000Y-127100000D03*
X165400000Y-79800000D03*
X141587200Y-106410700D03*
%TO.N,SD_CMD*%
X149358400Y-63781400D03*
X133219400Y-45858500D03*
%TO.N,A8*%
X143256300Y-121286400D03*
X136243700Y-95847900D03*
X138236500Y-115904500D03*
X162665200Y-68124700D03*
%TO.N,A6*%
X141700000Y-122300000D03*
X158643900Y-65548600D03*
X134600300Y-95571000D03*
%TO.N,SD0_F1*%
X157113600Y-71569100D03*
X157208600Y-53829000D03*
%TO.N,A14*%
X141143100Y-113438200D03*
X139348500Y-111376000D03*
X147660000Y-118638000D03*
X137400000Y-110148400D03*
X147906700Y-121973700D03*
X173629100Y-123550000D03*
X143477700Y-122038200D03*
%TO.N,A9*%
X142376400Y-106563600D03*
X145073800Y-110801100D03*
X147013700Y-124967100D03*
X156418000Y-83883300D03*
X142395200Y-104585800D03*
X144350600Y-125007500D03*
%TO.N,SD_CD_OR_DAT3*%
X160279200Y-58306500D03*
X159845800Y-51365700D03*
X158923700Y-70293300D03*
X131907100Y-42919100D03*
%TO.N,CMD_F1*%
X155633800Y-63924400D03*
X158420100Y-57498200D03*
%TO.N,A1*%
X139420400Y-112317100D03*
X153000000Y-116500000D03*
X138056600Y-119098100D03*
X139400200Y-118816300D03*
X144956800Y-115129100D03*
X166417491Y-66682509D03*
X158275000Y-59995100D03*
X166588600Y-64481100D03*
X140969000Y-123903300D03*
X143762700Y-117125100D03*
X156602800Y-61242200D03*
X147931200Y-113179300D03*
X148199700Y-116264000D03*
X152333900Y-108966100D03*
X164591400Y-63839200D03*
%TO.N,A13*%
X142846600Y-125667500D03*
X142303100Y-119811200D03*
X172877300Y-123382500D03*
X150584700Y-123291500D03*
X150585300Y-120326500D03*
%TO.N,A7*%
X144100000Y-105800000D03*
X165039600Y-71258800D03*
X141700000Y-127100000D03*
X143475300Y-101396800D03*
%TO.N,SD1_F1*%
X156586900Y-72497600D03*
X156249200Y-54668700D03*
%TO.N,A10{slash}AP*%
X135436400Y-102273400D03*
X134737900Y-103990600D03*
X147978200Y-84811700D03*
X139122100Y-123794600D03*
X134181400Y-106075600D03*
X146347000Y-81910800D03*
X155743500Y-72497600D03*
%TO.N,SD_DAT2*%
X162482800Y-71106200D03*
X148717200Y-83000100D03*
%TO.N,A11*%
X153011000Y-75718800D03*
X146972300Y-82971600D03*
X152839300Y-88002200D03*
X152217300Y-86422000D03*
X151605400Y-109392700D03*
X152110800Y-122852000D03*
X153738100Y-105743200D03*
X170638300Y-123581500D03*
X138479600Y-89962700D03*
X142578100Y-124311400D03*
%TO.N,SD_DAT0*%
X153341200Y-48794700D03*
X138791600Y-42919100D03*
%TO.N,A2*%
X141364700Y-125156000D03*
X141000000Y-111100000D03*
X147952800Y-127228200D03*
X149999600Y-124785800D03*
X166129100Y-81532500D03*
X147200100Y-127195500D03*
X150109800Y-118985300D03*
X151191400Y-108588000D03*
%TO.N,CMD_F2*%
X154611100Y-60628800D03*
X136624300Y-59590300D03*
%TO.N,RAM_ODT*%
X148566000Y-114301000D03*
X151505400Y-117631100D03*
%TO.N,DQ02*%
X126600000Y-95000000D03*
X134500000Y-127100000D03*
X136700000Y-131400000D03*
%TO.N,RAM_LDQS*%
X133375000Y-124750000D03*
X133298591Y-100776409D03*
X133257700Y-119392600D03*
X128782300Y-102223300D03*
X133000000Y-110608700D03*
X133108900Y-105476600D03*
%TO.N,Net-(DDR_RAM1-VSS-PadA9)*%
X143367700Y-122875200D03*
X143451400Y-127622700D03*
X135300000Y-122300000D03*
X136900000Y-122300000D03*
X142016900Y-129044000D03*
X145563000Y-127116700D03*
X130973500Y-125645300D03*
X140912300Y-128668100D03*
X133582000Y-128821700D03*
X138698900Y-128556100D03*
X136900000Y-127100000D03*
X140640600Y-119906100D03*
%TO.N,RAM_UDQS_N*%
X132500000Y-98400000D03*
X131300000Y-123100000D03*
%TO.N,DQ05*%
X136050000Y-122325000D03*
X130975000Y-107850000D03*
X136475000Y-120525000D03*
%TO.N,RAM_CKE*%
X135853900Y-117788600D03*
X137853200Y-120664700D03*
%TO.N,DQ08*%
X132400000Y-103425000D03*
X132900000Y-123100000D03*
X132600000Y-120900000D03*
%TO.N,RAM_CK_N*%
X132471100Y-106850000D03*
X138091500Y-123792000D03*
%TO.N,DQ10*%
X132940593Y-102581589D03*
X132498591Y-104223591D03*
X132100000Y-122300000D03*
%TO.N,RAM_BA2*%
X159439600Y-77142100D03*
X153128600Y-66520500D03*
X174635600Y-127620100D03*
X156878500Y-67515300D03*
X170827400Y-133061000D03*
X147466400Y-89526200D03*
X139663700Y-125467400D03*
X141584500Y-101808700D03*
X173541600Y-142764800D03*
X148285800Y-101584800D03*
%TO.N,RAM_LDQS_N*%
X134800000Y-124500000D03*
X132200000Y-102700000D03*
%TO.N,DQ13*%
X131911200Y-98910300D03*
X127100100Y-101783300D03*
%TO.N,ZQ*%
X135600000Y-100400000D03*
X132075000Y-95350000D03*
X138500000Y-122300000D03*
%TO.N,DQ00*%
X133253400Y-125659700D03*
X127800000Y-101100000D03*
X128225000Y-103550000D03*
X127100000Y-98100000D03*
X128879100Y-124326900D03*
X127175000Y-122750000D03*
%TO.N,RAM_CAS_N*%
X137700000Y-126300000D03*
X137200000Y-103900000D03*
%TO.N,DQ14*%
X130150000Y-113550000D03*
X131300000Y-122300000D03*
X131798768Y-103953867D03*
%TO.N,DQ01*%
X134500000Y-123100000D03*
X127250000Y-104775000D03*
X132550000Y-124150000D03*
%TO.N,RAM_WE_N*%
X138500000Y-124800000D03*
X138500000Y-126300000D03*
X138400000Y-110200000D03*
%TO.N,DQ06*%
X126732141Y-119467859D03*
X135300000Y-127100000D03*
%TO.N,RAM_UDQS*%
X132100000Y-123100000D03*
X135625000Y-98575000D03*
%TO.N,RAM_CK*%
X133524300Y-120483700D03*
X136315600Y-124596200D03*
%TO.N,RAM_BA0*%
X140343200Y-106590400D03*
X153847200Y-81178500D03*
X175091600Y-122787100D03*
X139300000Y-127100000D03*
%TO.N,RAM_RAS_N*%
X138475000Y-102125000D03*
X138750000Y-133275000D03*
X136900000Y-126300000D03*
%TO.N,DQ15*%
X129349800Y-119485200D03*
X129053800Y-101047800D03*
%TO.N,DQ07*%
X127400000Y-112100000D03*
X129995000Y-116042700D03*
X136600000Y-123850000D03*
%TO.N,DQ04*%
X135986100Y-125497300D03*
X134107400Y-103409100D03*
X131550000Y-116125000D03*
X132125000Y-96150000D03*
%TO.N,DQ11*%
X133100000Y-96000000D03*
X132100000Y-127100000D03*
X132000000Y-97675000D03*
%TO.N,DQ03*%
X131875000Y-120150000D03*
X134500000Y-122300000D03*
%TO.N,DQ12*%
X129059800Y-122822300D03*
X127853851Y-104204898D03*
X130814600Y-124217900D03*
X127750000Y-116175000D03*
%TO.N,Net-(DDR_RAM1-VDD-PadB2)*%
X144376700Y-126206900D03*
X148701400Y-125495700D03*
X144885300Y-119342400D03*
X131300000Y-127100000D03*
X137700000Y-127100000D03*
X135434900Y-115475100D03*
X148881600Y-120598800D03*
X131900000Y-131500000D03*
X139626700Y-129100400D03*
X137700000Y-122300000D03*
X141549600Y-119249300D03*
X143327000Y-129381900D03*
X135801800Y-123758500D03*
X140100000Y-121500000D03*
X145070400Y-120662900D03*
X134346200Y-120741500D03*
%TO.N,RAM_BA1*%
X159097800Y-123051900D03*
X174813200Y-123976200D03*
X139489291Y-90658391D03*
X134197200Y-107132100D03*
X155234000Y-111519400D03*
X152842400Y-71530600D03*
X148239800Y-90133700D03*
X148276750Y-100226750D03*
X170012000Y-125379000D03*
X172863200Y-126055300D03*
X140075000Y-122275000D03*
X144305900Y-94342500D03*
%TO.N,DQ09*%
X127211091Y-99388909D03*
X132100000Y-126300000D03*
%TO.N,RTC_IN*%
X166638600Y-126120300D03*
%TO.N,RAM_RST*%
X143453500Y-126844100D03*
X146538300Y-128094200D03*
%TO.N,UBOOT*%
X161259200Y-126268500D03*
%TO.N,RTC_OUT*%
X134009900Y-58065000D03*
X156563600Y-52567400D03*
X176701400Y-39678700D03*
X146791500Y-90288400D03*
X136685200Y-50913600D03*
%TO.N,GSM_PWR_N*%
X161100000Y-131000000D03*
X174100000Y-94200000D03*
%TO.N,VBUS_USBC*%
X179920700Y-86824300D03*
X167889200Y-81110500D03*
X170827700Y-98737300D03*
%TO.N,DAT4_N*%
X171298200Y-116562100D03*
%TO.N,Net-(GND_R1-Pad2)*%
X153700000Y-147350000D03*
X158375000Y-151525000D03*
%TO.N,Net-(ANT1-A)*%
X181725000Y-81050000D03*
X182175000Y-91925000D03*
%TO.N,HSYNC_V*%
X169812400Y-122847000D03*
X172413300Y-127566300D03*
%TO.N,DAT1_N*%
X167355500Y-125202900D03*
%TO.N,AVAIL_N*%
X171722100Y-115751300D03*
%TO.N,DAT3_N*%
X164159900Y-114840900D03*
X168826100Y-114003900D03*
X164391400Y-125210800D03*
%TO.N,DAT2_N*%
X172422300Y-114461800D03*
X168208200Y-115140500D03*
%TO.N,GSM_RST_N*%
X155500000Y-143500000D03*
X174025000Y-145100000D03*
%TO.N,Net-(MBCI_0-VDD)*%
X167889200Y-139866500D03*
X176322900Y-116530200D03*
X172801400Y-116481700D03*
%TO.N,Net-(C1-Pad2)*%
X177417900Y-116505900D03*
X152920800Y-118461800D03*
%TO.N,CPU_PWR*%
X152642500Y-87098500D03*
X165600900Y-66187900D03*
%TO.N,DRAM_PWR*%
X132475000Y-106100000D03*
X135303709Y-106903709D03*
X128000000Y-98000000D03*
X133000000Y-99100000D03*
X144758600Y-118468300D03*
X138213300Y-111724300D03*
%TO.N,UBOOT_MBCI*%
X173068400Y-115389300D03*
X165490900Y-115889600D03*
%TO.N,RESET_N*%
X152158600Y-81791800D03*
X174171900Y-115743000D03*
X164894900Y-117535700D03*
X140898900Y-91029700D03*
X162333300Y-70190900D03*
%TD*%
D14*
%TO.N,Net-(BRIDGE_CHIP1-GND-Pad14)*%
X149300000Y-69200000D02*
X149300000Y-68600000D01*
X148600000Y-70600000D02*
X149000000Y-70200000D01*
X147850000Y-67450000D02*
X144950000Y-67450000D01*
X144950000Y-67450000D02*
X144700000Y-67200000D01*
X148200000Y-70600000D02*
X148600000Y-70600000D01*
X149300000Y-68600000D02*
X148000000Y-67300000D01*
X149000000Y-70200000D02*
X149000000Y-69500000D01*
X147600000Y-70000000D02*
X148200000Y-70600000D01*
X148000000Y-67300000D02*
X147850000Y-67450000D01*
X149000000Y-69500000D02*
X149300000Y-69200000D01*
%TO.N,GND*%
X154600000Y-67100000D02*
X152930282Y-67100000D01*
X162570091Y-66035909D02*
X162564091Y-66035909D01*
X159164400Y-66464400D02*
X155235600Y-66464400D01*
X152218982Y-66388700D02*
X147811300Y-66388700D01*
X162467217Y-63482783D02*
X162467217Y-63467217D01*
X155235600Y-66464400D02*
X154600000Y-67100000D01*
X162100000Y-66500000D02*
X159200000Y-66500000D01*
X152930282Y-67100000D02*
X152218982Y-66388700D01*
X162564091Y-66035909D02*
X162100000Y-66500000D01*
X159200000Y-66500000D02*
X159164400Y-66464400D01*
X147811300Y-66388700D02*
X147400000Y-66800000D01*
%TO.N,A4*%
X135900000Y-114600000D02*
X138500000Y-114600000D01*
X139950200Y-116050200D02*
X139950200Y-120050200D01*
X134800000Y-113500000D02*
X135900000Y-114600000D01*
X138500000Y-114600000D02*
X139950200Y-116050200D01*
X134800000Y-112400000D02*
X134800000Y-113500000D01*
X139950200Y-120050200D02*
X140900000Y-121000000D01*
X140900000Y-121000000D02*
X140900000Y-122300000D01*
%TO.N,A5*%
X144916918Y-123006700D02*
X144729582Y-123006700D01*
X146200000Y-114500000D02*
X146200000Y-120311118D01*
X145300000Y-121211118D02*
X145300000Y-122623618D01*
X141000000Y-127100000D02*
X140900000Y-127100000D01*
X141836282Y-125900000D02*
X141500000Y-125900000D01*
X141587200Y-109409382D02*
X143700000Y-111522182D01*
X141000000Y-126400000D02*
X141000000Y-127100000D01*
X143700000Y-112000000D02*
X146200000Y-114500000D01*
X143700000Y-111522182D02*
X143700000Y-112000000D01*
X140900000Y-127200000D02*
X141000000Y-127100000D01*
X146200000Y-120311118D02*
X145300000Y-121211118D01*
X141587200Y-106410700D02*
X141587200Y-109409382D01*
X145300000Y-122623618D02*
X144916918Y-123006700D01*
X141500000Y-125900000D02*
X141000000Y-126400000D01*
X140900000Y-127100000D02*
X140900000Y-127200000D01*
X144729582Y-123006700D02*
X141836282Y-125900000D01*
%TO.N,A6*%
X142853100Y-119583382D02*
X142853100Y-120046900D01*
X141700000Y-121200000D02*
X141700000Y-122300000D01*
X134600300Y-95571000D02*
X134600300Y-102917456D01*
X142853100Y-120046900D02*
X141700000Y-121200000D01*
X142099600Y-110416756D02*
X142099600Y-118829882D01*
X134600300Y-102917456D02*
X142099600Y-110416756D01*
X142099600Y-118829882D02*
X142853100Y-119583382D01*
%TO.N,DQ02*%
X135800000Y-130500000D02*
X135800000Y-128400000D01*
X135800000Y-128400000D02*
X134500000Y-127100000D01*
X136700000Y-131400000D02*
X135800000Y-130500000D01*
%TO.N,DQ08*%
X133200000Y-122800000D02*
X133325000Y-122800000D01*
X132900000Y-123100000D02*
X133200000Y-122800000D01*
X133000000Y-121300000D02*
X132600000Y-120900000D01*
X133000000Y-121600000D02*
X133000000Y-121300000D01*
X133450000Y-122050000D02*
X133000000Y-121600000D01*
X133325000Y-122800000D02*
X133450000Y-122675000D01*
X133450000Y-122675000D02*
X133450000Y-122050000D01*
%TO.N,DQ01*%
X130700000Y-113412518D02*
X130700000Y-108375000D01*
X127250000Y-105550000D02*
X127250000Y-104775000D01*
X135992518Y-121214700D02*
X138192518Y-121214700D01*
X135522300Y-126047300D02*
X133600000Y-124125000D01*
X138383000Y-123242000D02*
X137252974Y-123242000D01*
X135800000Y-118512518D02*
X130700000Y-113412518D01*
X135800000Y-121022182D02*
X135992518Y-121214700D01*
X128200000Y-106500000D02*
X127250000Y-105550000D01*
X135800000Y-121022182D02*
X135800000Y-118512518D01*
X137252974Y-125008244D02*
X136213918Y-126047300D01*
X133600000Y-124125000D02*
X132550000Y-124125000D01*
X128825000Y-106500000D02*
X128200000Y-106500000D01*
X136213918Y-126047300D02*
X135522300Y-126047300D01*
X138192518Y-121214700D02*
X139050000Y-122072182D01*
X139050000Y-122575000D02*
X138383000Y-123242000D01*
X130700000Y-108375000D02*
X128825000Y-106500000D01*
X137252974Y-123242000D02*
X137252974Y-125008244D01*
X139050000Y-122072182D02*
X139050000Y-122575000D01*
%TO.N,DQ12*%
X128650000Y-117075000D02*
X128650000Y-121875000D01*
X129059800Y-122284800D02*
X129059800Y-122822300D01*
X128650000Y-121875000D02*
X129059800Y-122284800D01*
X127750000Y-116175000D02*
X128650000Y-117075000D01*
%TO.N,Net-(DDR_RAM1-VDD-PadB2)*%
X135801800Y-123758500D02*
X136325500Y-123234800D01*
X134346200Y-120741500D02*
X133950000Y-121137700D01*
X136325500Y-123234800D02*
X136765200Y-123234800D01*
X133950000Y-123350000D02*
X134358500Y-123758500D01*
X131900000Y-131500000D02*
X130600000Y-130200000D01*
X133950000Y-121137700D02*
X133950000Y-123350000D01*
X134358500Y-123758500D02*
X135801800Y-123758500D01*
X130600000Y-129000000D02*
X131300000Y-128300000D01*
X131300000Y-128300000D02*
X131300000Y-127100000D01*
X136765200Y-123234800D02*
X137700000Y-122300000D01*
X130600000Y-130200000D02*
X130600000Y-129000000D01*
%TO.N,DQ09*%
X128300000Y-119800000D02*
X126550100Y-118050100D01*
X126550100Y-118050100D02*
X126550100Y-100049900D01*
X128600000Y-125300000D02*
X128300000Y-125000000D01*
X130850382Y-126300000D02*
X129850382Y-125300000D01*
X132100000Y-126300000D02*
X130850382Y-126300000D01*
X126550100Y-100049900D02*
X127211091Y-99388909D01*
X129850382Y-125300000D02*
X128600000Y-125300000D01*
X128300000Y-125000000D02*
X128300000Y-119800000D01*
%TO.N,DRAM_PWR*%
X134100000Y-100800000D02*
X133414600Y-100114600D01*
X132475000Y-105025000D02*
X133100000Y-104400000D01*
X133414600Y-99514600D02*
X133000000Y-99100000D01*
X133100000Y-103200000D02*
X134100000Y-102200000D01*
X133100000Y-104400000D02*
X133100000Y-103200000D01*
X132475000Y-106100000D02*
X132475000Y-105025000D01*
X133414600Y-100114600D02*
X133414600Y-99514600D01*
X134100000Y-102200000D02*
X134100000Y-100800000D01*
%TD*%
M02*
