%TF.GenerationSoftware,KiCad,Pcbnew,8.0.2*%
%TF.CreationDate,2024-06-28T11:46:25+02:00*%
%TF.ProjectId,Undroid,556e6472-6f69-4642-9e6b-696361645f70,rev?*%
%TF.SameCoordinates,Original*%
%TF.FileFunction,Copper,L6,Bot*%
%TF.FilePolarity,Positive*%
%FSLAX46Y46*%
G04 Gerber Fmt 4.6, Leading zero omitted, Abs format (unit mm)*
G04 Created by KiCad (PCBNEW 8.0.2) date 2024-06-28 11:46:25*
%MOMM*%
%LPD*%
G01*
G04 APERTURE LIST*
G04 Aperture macros list*
%AMRoundRect*
0 Rectangle with rounded corners*
0 $1 Rounding radius*
0 $2 $3 $4 $5 $6 $7 $8 $9 X,Y pos of 4 corners*
0 Add a 4 corners polygon primitive as box body*
4,1,4,$2,$3,$4,$5,$6,$7,$8,$9,$2,$3,0*
0 Add four circle primitives for the rounded corners*
1,1,$1+$1,$2,$3*
1,1,$1+$1,$4,$5*
1,1,$1+$1,$6,$7*
1,1,$1+$1,$8,$9*
0 Add four rect primitives between the rounded corners*
20,1,$1+$1,$2,$3,$4,$5,0*
20,1,$1+$1,$4,$5,$6,$7,0*
20,1,$1+$1,$6,$7,$8,$9,0*
20,1,$1+$1,$8,$9,$2,$3,0*%
G04 Aperture macros list end*
%TA.AperFunction,ComponentPad*%
%ADD10R,0.850000X0.850000*%
%TD*%
%TA.AperFunction,ComponentPad*%
%ADD11O,0.850000X0.850000*%
%TD*%
%TA.AperFunction,ComponentPad*%
%ADD12RoundRect,0.246063X-0.503937X-0.503937X0.503937X-0.503937X0.503937X0.503937X-0.503937X0.503937X0*%
%TD*%
%TA.AperFunction,ViaPad*%
%ADD13C,0.600000*%
%TD*%
%TA.AperFunction,Conductor*%
%ADD14C,0.200000*%
%TD*%
G04 APERTURE END LIST*
D10*
%TO.P,MBCI_VIDEO1,1,Pin_1*%
%TO.N,RED_V*%
X175600000Y-126800000D03*
D11*
%TO.P,MBCI_VIDEO1,2,Pin_2*%
%TO.N,GREEN_V*%
X175600000Y-127800000D03*
%TO.P,MBCI_VIDEO1,3,Pin_3*%
%TO.N,BLUE_V*%
X175600000Y-128800000D03*
%TO.P,MBCI_VIDEO1,4,Pin_4*%
%TO.N,ALPHA_V*%
X175600000Y-129800000D03*
%TO.P,MBCI_VIDEO1,5,Pin_5*%
%TO.N,HSYNC_V*%
X175600000Y-130800000D03*
%TO.P,MBCI_VIDEO1,6,Pin_6*%
%TO.N,VSYNC_V*%
X175600000Y-131800000D03*
%TO.P,MBCI_VIDEO1,7,Pin_7*%
%TO.N,unconnected-(MBCI_VIDEO1-Pin_7-Pad7)*%
X175600000Y-132800000D03*
%TO.P,MBCI_VIDEO1,8,Pin_8*%
%TO.N,3.3V*%
X175600000Y-133800000D03*
%TO.P,MBCI_VIDEO1,9,Pin_9*%
%TO.N,unconnected-(MBCI_VIDEO1-Pin_9-Pad9)*%
X175600000Y-134800000D03*
%TO.P,MBCI_VIDEO1,10,Pin_10*%
%TO.N,unconnected-(MBCI_VIDEO1-Pin_10-Pad10)*%
X175600000Y-135800000D03*
%TO.P,MBCI_VIDEO1,11,Pin_11*%
%TO.N,CLK*%
X175600000Y-136800000D03*
%TO.P,MBCI_VIDEO1,12,Pin_12*%
%TO.N,unconnected-(MBCI_VIDEO1-Pin_12-Pad12)*%
X175600000Y-137800000D03*
%TO.P,MBCI_VIDEO1,13,Pin_13*%
%TO.N,unconnected-(MBCI_VIDEO1-Pin_13-Pad13)*%
X175600000Y-138800000D03*
%TO.P,MBCI_VIDEO1,14,Pin_14*%
%TO.N,unconnected-(MBCI_VIDEO1-Pin_14-Pad14)*%
X175600000Y-139800000D03*
%TO.P,MBCI_VIDEO1,15,Pin_15*%
%TO.N,GND*%
X175600000Y-140800000D03*
%TD*%
D10*
%TO.P,MBCI_IO1,1,Pin_1*%
%TO.N,UBOOT*%
X164400000Y-126700000D03*
D11*
%TO.P,MBCI_IO1,2,Pin_2*%
%TO.N,RESET_N*%
X164400000Y-127700000D03*
%TO.P,MBCI_IO1,3,Pin_3*%
%TO.N,RTC_IN*%
X164400000Y-128700000D03*
%TO.P,MBCI_IO1,4,Pin_4*%
%TO.N,CONN_NMI_N*%
X164400000Y-129700000D03*
%TO.P,MBCI_IO1,5,Pin_5*%
%TO.N,UBOOT_MBCI*%
X164400000Y-130700000D03*
%TO.P,MBCI_IO1,6,Pin_6*%
%TO.N,GSM_PWR_N*%
X164400000Y-131700000D03*
%TO.P,MBCI_IO1,7,Pin_7*%
%TO.N,GSM_RST_N*%
X164400000Y-132700000D03*
%TO.P,MBCI_IO1,8,Pin_8*%
%TO.N,3.3V*%
X164400000Y-133700000D03*
%TO.P,MBCI_IO1,9,Pin_9*%
%TO.N,unconnected-(MBCI_IO1-Pin_9-Pad9)*%
X164400000Y-134700000D03*
%TO.P,MBCI_IO1,10,Pin_10*%
%TO.N,unconnected-(MBCI_IO1-Pin_10-Pad10)*%
X164400000Y-135700000D03*
%TO.P,MBCI_IO1,11,Pin_11*%
%TO.N,CLK*%
X164400000Y-136700000D03*
%TO.P,MBCI_IO1,12,Pin_12*%
%TO.N,unconnected-(MBCI_IO1-Pin_12-Pad12)*%
X164400000Y-137700000D03*
%TO.P,MBCI_IO1,13,Pin_13*%
%TO.N,unconnected-(MBCI_IO1-Pin_13-Pad13)*%
X164400000Y-138700000D03*
%TO.P,MBCI_IO1,14,Pin_14*%
%TO.N,unconnected-(MBCI_IO1-Pin_14-Pad14)*%
X164400000Y-139700000D03*
%TO.P,MBCI_IO1,15,Pin_15*%
%TO.N,GND*%
X164400000Y-140700000D03*
%TD*%
D12*
%TO.P,ANT1,1,A*%
%TO.N,Net-(ANT1-A)*%
X183000000Y-35600000D03*
%TD*%
D10*
%TO.P,MBCI_NETWORK1,1,Pin_1*%
%TO.N,DAT0_N*%
X169900000Y-126700000D03*
D11*
%TO.P,MBCI_NETWORK1,2,Pin_2*%
%TO.N,DAT1_N*%
X169900000Y-127700000D03*
%TO.P,MBCI_NETWORK1,3,Pin_3*%
%TO.N,DAT2_N*%
X169900000Y-128700000D03*
%TO.P,MBCI_NETWORK1,4,Pin_4*%
%TO.N,DAT3_N*%
X169900000Y-129700000D03*
%TO.P,MBCI_NETWORK1,5,Pin_5*%
%TO.N,DAT4_N*%
X169900000Y-130700000D03*
%TO.P,MBCI_NETWORK1,6,Pin_6*%
%TO.N,AVAIL_N*%
X169900000Y-131700000D03*
%TO.P,MBCI_NETWORK1,7,Pin_7*%
%TO.N,unconnected-(MBCI_NETWORK1-Pin_7-Pad7)*%
X169900000Y-132700000D03*
%TO.P,MBCI_NETWORK1,8,Pin_8*%
%TO.N,3.3V*%
X169900000Y-133700000D03*
%TO.P,MBCI_NETWORK1,9,Pin_9*%
%TO.N,unconnected-(MBCI_NETWORK1-Pin_9-Pad9)*%
X169900000Y-134700000D03*
%TO.P,MBCI_NETWORK1,10,Pin_10*%
%TO.N,unconnected-(MBCI_NETWORK1-Pin_10-Pad10)*%
X169900000Y-135700000D03*
%TO.P,MBCI_NETWORK1,11,Pin_11*%
%TO.N,CLK*%
X169900000Y-136700000D03*
%TO.P,MBCI_NETWORK1,12,Pin_12*%
%TO.N,unconnected-(MBCI_NETWORK1-Pin_12-Pad12)*%
X169900000Y-137700000D03*
%TO.P,MBCI_NETWORK1,13,Pin_13*%
%TO.N,unconnected-(MBCI_NETWORK1-Pin_13-Pad13)*%
X169900000Y-138700000D03*
%TO.P,MBCI_NETWORK1,14,Pin_14*%
%TO.N,unconnected-(MBCI_NETWORK1-Pin_14-Pad14)*%
X169900000Y-139700000D03*
%TO.P,MBCI_NETWORK1,15,Pin_15*%
%TO.N,GND*%
X169900000Y-140700000D03*
%TD*%
D13*
%TO.N,Net-(BRIDGE_CHIP1-GND-Pad14)*%
X147600000Y-70000000D03*
X150924500Y-67127100D03*
X148000000Y-67300000D03*
X155990900Y-68647400D03*
X144700000Y-67200000D03*
%TO.N,GND*%
X175875000Y-110250000D03*
X156300000Y-56675000D03*
X146447909Y-129252091D03*
X178800000Y-110250000D03*
X162570091Y-66035909D03*
X184700000Y-110275000D03*
X161250000Y-145423873D03*
X131025000Y-49500000D03*
X160300000Y-109500000D03*
X147400000Y-66800000D03*
X150200000Y-111700000D03*
X151175000Y-147375000D03*
X162467217Y-63482783D03*
X154900000Y-108900000D03*
X183675000Y-110275000D03*
X159800000Y-111300000D03*
X165800000Y-106000000D03*
X156875000Y-149175000D03*
X168700000Y-108200000D03*
X148750000Y-131350000D03*
%TO.N,CTS1*%
X165165200Y-92784300D03*
X144100000Y-77700000D03*
X156855500Y-90072400D03*
X151307000Y-70059200D03*
%TO.N,TX1*%
X156946500Y-88023200D03*
X150938400Y-68520700D03*
X166979200Y-91222200D03*
X150002400Y-73340400D03*
%TO.N,GSM_RST*%
X173095100Y-86587800D03*
X175581600Y-90346400D03*
%TO.N,GSM_VPP*%
X174082800Y-48377000D03*
X164131900Y-72110200D03*
%TO.N,RX1*%
X146531200Y-68655900D03*
X156358600Y-89053200D03*
X165988000Y-91791600D03*
X147986400Y-68555900D03*
X146900000Y-71800000D03*
X148368500Y-74101300D03*
%TO.N,GSM_GPIO_1*%
X157853400Y-67014400D03*
X171756400Y-96116300D03*
X149000000Y-73400000D03*
X147200621Y-65753597D03*
X147900000Y-71700000D03*
X182164700Y-95478100D03*
%TO.N,RI1*%
X166979700Y-89663400D03*
X157494100Y-86101800D03*
%TO.N,RTS1*%
X147100000Y-68000000D03*
X161885600Y-54670300D03*
X171717200Y-84048300D03*
X166881600Y-93241000D03*
%TO.N,GSM_IO*%
X164497400Y-69447900D03*
X177227300Y-45856900D03*
X175349000Y-94463500D03*
%TO.N,Net-(DDR_RAM1-VSSQ-PadB1)*%
X126539600Y-124575100D03*
X132900000Y-122300000D03*
X131300000Y-121500000D03*
X130744300Y-120846100D03*
X127232700Y-123713600D03*
%TO.N,SD2_F1*%
X154519500Y-64485700D03*
X153300300Y-61147800D03*
%TO.N,A12{slash}BC_N*%
X173874000Y-124793600D03*
X141836200Y-123975100D03*
X144224900Y-120598600D03*
X143883900Y-118585900D03*
X134167100Y-111687077D03*
X144689100Y-122456700D03*
%TO.N,A3*%
X148900000Y-111800000D03*
X143800000Y-113800000D03*
X163400000Y-85600000D03*
X162800000Y-90900000D03*
X140600000Y-110200000D03*
X142700000Y-111300000D03*
X166100000Y-77200000D03*
X140100000Y-127100000D03*
X148300000Y-117600000D03*
%TO.N,A0*%
X153680800Y-68678900D03*
X138035900Y-104589000D03*
X138542300Y-88825800D03*
X140108059Y-110891941D03*
X140450500Y-112792400D03*
X139271000Y-120292900D03*
X140284000Y-125024600D03*
%TO.N,A4*%
X145905600Y-69783100D03*
X147655000Y-64790300D03*
X158820700Y-64452800D03*
X140900000Y-122300000D03*
X134800000Y-112400000D03*
X134978900Y-105670500D03*
%TO.N,SD2_F2*%
X157056400Y-75839600D03*
X149386100Y-82605800D03*
%TO.N,SD3_F1*%
X156240900Y-53787400D03*
X159278800Y-68812700D03*
%TO.N,SD1_F2*%
X148207700Y-69521500D03*
X131874300Y-56552600D03*
%TO.N,SD_DAT1*%
X137904200Y-35787300D03*
X150431600Y-42920700D03*
%TO.N,A5*%
X140900000Y-127100000D03*
X165400000Y-79800000D03*
X141587200Y-106410700D03*
%TO.N,SD_CMD*%
X149358400Y-63781400D03*
X133219400Y-45858500D03*
%TO.N,A8*%
X143256300Y-121286400D03*
X136243700Y-95847900D03*
X138236500Y-115904500D03*
X162665200Y-68124700D03*
%TO.N,A6*%
X141700000Y-122300000D03*
X158643900Y-65548600D03*
X134600300Y-95571000D03*
%TO.N,SD0_F1*%
X157113600Y-71569100D03*
X157208600Y-53829000D03*
%TO.N,A14*%
X141143100Y-113438200D03*
X139348500Y-111376000D03*
X147660000Y-118638000D03*
X137400000Y-110148400D03*
X147906700Y-121973700D03*
X173629100Y-123550000D03*
X143477700Y-122038200D03*
%TO.N,A9*%
X142376400Y-106563600D03*
X145073800Y-110801100D03*
X147013700Y-124967100D03*
X156418000Y-83883300D03*
X142395200Y-104585800D03*
X144350600Y-125007500D03*
%TO.N,SD_CD_OR_DAT3*%
X160279200Y-58306500D03*
X159845800Y-51365700D03*
X158923700Y-70293300D03*
X131907100Y-42919100D03*
%TO.N,CMD_F1*%
X155633800Y-63924400D03*
X158420100Y-57498200D03*
%TO.N,A1*%
X139420400Y-112317100D03*
X153000000Y-116500000D03*
X138056600Y-119098100D03*
X139400200Y-118816300D03*
X144956800Y-115129100D03*
X166417491Y-66682509D03*
X158275000Y-59995100D03*
X166588600Y-64481100D03*
X140969000Y-123903300D03*
X143762700Y-117125100D03*
X156602800Y-61242200D03*
X147931200Y-113179300D03*
X148199700Y-116264000D03*
X152333900Y-108966100D03*
X164591400Y-63839200D03*
%TO.N,A13*%
X142846600Y-125667500D03*
X142303100Y-119811200D03*
X172877300Y-123382500D03*
X150584700Y-123291500D03*
X150585300Y-120326500D03*
%TO.N,A7*%
X144100000Y-105800000D03*
X165039600Y-71258800D03*
X141700000Y-127100000D03*
X143475300Y-101396800D03*
%TO.N,SD1_F1*%
X156586900Y-72497600D03*
X156249200Y-54668700D03*
%TO.N,A10{slash}AP*%
X135436400Y-102273400D03*
X134737900Y-103990600D03*
X147978200Y-84811700D03*
X139122100Y-123794600D03*
X134181400Y-106075600D03*
X146347000Y-81910800D03*
X155743500Y-72497600D03*
%TO.N,SD_DAT2*%
X162482800Y-71106200D03*
X148717200Y-83000100D03*
%TO.N,A11*%
X153011000Y-75718800D03*
X146972300Y-82971600D03*
X152839300Y-88002200D03*
X152217300Y-86422000D03*
X151605400Y-109392700D03*
X152110800Y-122852000D03*
X153738100Y-105743200D03*
X170638300Y-123581500D03*
X138479600Y-89962700D03*
X142578100Y-124311400D03*
%TO.N,SD_DAT0*%
X153341200Y-48794700D03*
X138791600Y-42919100D03*
%TO.N,A2*%
X141364700Y-125156000D03*
X141000000Y-111100000D03*
X147952800Y-127228200D03*
X149999600Y-124785800D03*
X166129100Y-81532500D03*
X147200100Y-127195500D03*
X150109800Y-118985300D03*
X151191400Y-108588000D03*
%TO.N,CMD_F2*%
X154611100Y-60628800D03*
X136624300Y-59590300D03*
%TO.N,RAM_ODT*%
X148566000Y-114301000D03*
X151505400Y-117631100D03*
%TO.N,DQ02*%
X126600000Y-95000000D03*
X134500000Y-127100000D03*
X136700000Y-131400000D03*
%TO.N,RAM_LDQS*%
X133375000Y-124750000D03*
X133298591Y-100776409D03*
X133257700Y-119392600D03*
X128782300Y-102223300D03*
X133000000Y-110608700D03*
X133108900Y-105476600D03*
%TO.N,Net-(DDR_RAM1-VSS-PadA9)*%
X143367700Y-122875200D03*
X143451400Y-127622700D03*
X135300000Y-122300000D03*
X136900000Y-122300000D03*
X142016900Y-129044000D03*
X145563000Y-127116700D03*
X130973500Y-125645300D03*
X140912300Y-128668100D03*
X133582000Y-128821700D03*
X138698900Y-128556100D03*
X136900000Y-127100000D03*
X140640600Y-119906100D03*
%TO.N,RAM_UDQS_N*%
X132500000Y-98400000D03*
X131300000Y-123100000D03*
%TO.N,DQ05*%
X136050000Y-122325000D03*
X130975000Y-107850000D03*
X136475000Y-120525000D03*
%TO.N,RAM_CKE*%
X135853900Y-117788600D03*
X137853200Y-120664700D03*
%TO.N,DQ08*%
X132400000Y-103425000D03*
X132900000Y-123100000D03*
X132600000Y-120900000D03*
%TO.N,RAM_CK_N*%
X132471100Y-106850000D03*
X138091500Y-123792000D03*
%TO.N,DQ10*%
X132940593Y-102581589D03*
X132498591Y-104223591D03*
X132100000Y-122300000D03*
%TO.N,RAM_BA2*%
X159439600Y-77142100D03*
X153128600Y-66520500D03*
X174635600Y-127620100D03*
X156878500Y-67515300D03*
X170827400Y-133061000D03*
X147466400Y-89526200D03*
X139663700Y-125467400D03*
X141584500Y-101808700D03*
X173541600Y-142764800D03*
X148285800Y-101584800D03*
%TO.N,RAM_LDQS_N*%
X134800000Y-124500000D03*
X132200000Y-102700000D03*
%TO.N,DQ13*%
X131911200Y-98910300D03*
X127100100Y-101783300D03*
%TO.N,ZQ*%
X135600000Y-100400000D03*
X132075000Y-95350000D03*
X138500000Y-122300000D03*
%TO.N,DQ00*%
X133253400Y-125659700D03*
X127800000Y-101100000D03*
X128225000Y-103550000D03*
X127100000Y-98100000D03*
X128879100Y-124326900D03*
X127175000Y-122750000D03*
%TO.N,RAM_CAS_N*%
X137700000Y-126300000D03*
X137200000Y-103900000D03*
%TO.N,DQ14*%
X130150000Y-113550000D03*
X131300000Y-122300000D03*
X131798768Y-103953867D03*
%TO.N,DQ01*%
X134500000Y-123100000D03*
X127250000Y-104775000D03*
X132550000Y-124150000D03*
%TO.N,RAM_WE_N*%
X138500000Y-124800000D03*
X138500000Y-126300000D03*
X138400000Y-110200000D03*
%TO.N,DQ06*%
X126732141Y-119467859D03*
X135300000Y-127100000D03*
%TO.N,RAM_UDQS*%
X132100000Y-123100000D03*
X135625000Y-98575000D03*
%TO.N,RAM_CK*%
X133524300Y-120483700D03*
X136315600Y-124596200D03*
%TO.N,RAM_BA0*%
X140343200Y-106590400D03*
X153847200Y-81178500D03*
X175091600Y-122787100D03*
X139300000Y-127100000D03*
%TO.N,RAM_RAS_N*%
X138475000Y-102125000D03*
X138750000Y-133275000D03*
X136900000Y-126300000D03*
%TO.N,DQ15*%
X129349800Y-119485200D03*
X129053800Y-101047800D03*
%TO.N,DQ07*%
X127400000Y-112100000D03*
X129995000Y-116042700D03*
X136600000Y-123850000D03*
%TO.N,DQ04*%
X135986100Y-125497300D03*
X134107400Y-103409100D03*
X131550000Y-116125000D03*
X132125000Y-96150000D03*
%TO.N,DQ11*%
X133100000Y-96000000D03*
X132100000Y-127100000D03*
X132000000Y-97675000D03*
%TO.N,DQ03*%
X131875000Y-120150000D03*
X134500000Y-122300000D03*
%TO.N,DQ12*%
X129059800Y-122822300D03*
X127853851Y-104204898D03*
X130814600Y-124217900D03*
X127750000Y-116175000D03*
%TO.N,Net-(DDR_RAM1-VDD-PadB2)*%
X144376700Y-126206900D03*
X148701400Y-125495700D03*
X144885300Y-119342400D03*
X131300000Y-127100000D03*
X137700000Y-127100000D03*
X135434900Y-115475100D03*
X148881600Y-120598800D03*
X131900000Y-131500000D03*
X139626700Y-129100400D03*
X137700000Y-122300000D03*
X141549600Y-119249300D03*
X143327000Y-129381900D03*
X135801800Y-123758500D03*
X140100000Y-121500000D03*
X145070400Y-120662900D03*
X134346200Y-120741500D03*
%TO.N,RAM_BA1*%
X159097800Y-123051900D03*
X174813200Y-123976200D03*
X139488100Y-90657200D03*
X134197200Y-107132100D03*
X155234000Y-111519400D03*
X152842400Y-71530600D03*
X148239800Y-90133700D03*
X147895100Y-100608400D03*
X170012000Y-125379000D03*
X172863200Y-126055300D03*
X140075000Y-122275000D03*
X144305900Y-94342500D03*
%TO.N,DQ09*%
X127211091Y-99388909D03*
X132100000Y-126300000D03*
%TO.N,RTC_IN*%
X166638600Y-126120300D03*
%TO.N,RAM_RST*%
X143453500Y-126844100D03*
X146538300Y-128094200D03*
%TO.N,UBOOT*%
X161259200Y-126268500D03*
%TO.N,RTC_OUT*%
X134009900Y-58065000D03*
X156563600Y-52567400D03*
X176701400Y-39678700D03*
X146791500Y-90288400D03*
X136685200Y-50913600D03*
%TO.N,GSM_PWR_N*%
X161100000Y-131000000D03*
X174100000Y-94200000D03*
%TO.N,VBUS_USBC*%
X179920700Y-86824300D03*
X167889200Y-81110500D03*
X170827700Y-98737300D03*
%TO.N,DAT4_N*%
X171298200Y-116562100D03*
%TO.N,Net-(GND_R1-Pad2)*%
X153700000Y-147350000D03*
X158375000Y-151525000D03*
%TO.N,HSYNC_V*%
X169812400Y-122847000D03*
X172413300Y-127566300D03*
%TO.N,DAT1_N*%
X167355500Y-125202900D03*
%TO.N,AVAIL_N*%
X171722100Y-115751300D03*
%TO.N,DAT3_N*%
X164159900Y-114840900D03*
X168826100Y-114003900D03*
X164391400Y-125210800D03*
%TO.N,DAT2_N*%
X172422300Y-114461800D03*
X168208200Y-115140500D03*
%TO.N,GSM_RST_N*%
X156100000Y-143800000D03*
X174025000Y-145100000D03*
%TO.N,Net-(MBCI_0-VDD)*%
X167889200Y-139866500D03*
X176322900Y-116530200D03*
X172801400Y-116481700D03*
%TO.N,Net-(C1-Pad2)*%
X177417900Y-116505900D03*
X152920800Y-118461800D03*
%TO.N,CPU_PWR*%
X152642500Y-87098500D03*
X165600900Y-66187900D03*
%TO.N,DRAM_PWR*%
X132475000Y-106100000D03*
X135303709Y-106903709D03*
X128000000Y-98000000D03*
X133000000Y-99100000D03*
X144758600Y-118468300D03*
X138213300Y-111724300D03*
%TO.N,UBOOT_MBCI*%
X173068400Y-115389300D03*
X165490900Y-115889600D03*
%TO.N,RESET_N*%
X152158600Y-81791800D03*
X174171900Y-115743000D03*
X164894900Y-117535700D03*
X140898900Y-91029700D03*
X162333300Y-70190900D03*
%TD*%
D14*
%TO.N,Net-(BRIDGE_CHIP1-GND-Pad14)*%
X150924500Y-67127200D02*
X150924500Y-67127100D01*
X155990900Y-68647400D02*
X154470700Y-67127200D01*
X154470700Y-67127200D02*
X150924500Y-67127200D01*
%TO.N,GND*%
X148750000Y-131350000D02*
X148545818Y-131350000D01*
X165800000Y-106000000D02*
X163800000Y-106000000D01*
X154900000Y-108900000D02*
X155500000Y-109500000D01*
X171700000Y-108200000D02*
X168700000Y-108200000D01*
X150569400Y-112069400D02*
X150200000Y-111700000D01*
X159800000Y-111300000D02*
X159030600Y-112069400D01*
X163800000Y-106000000D02*
X160300000Y-109500000D01*
X157525000Y-149175000D02*
X156875000Y-149175000D01*
X184700000Y-110275000D02*
X173775000Y-110275000D01*
X151175000Y-147325000D02*
X153076127Y-145423873D01*
X159030600Y-112069400D02*
X150569400Y-112069400D01*
X161250000Y-145450000D02*
X157525000Y-149175000D01*
X148545818Y-131350000D02*
X146447909Y-129252091D01*
X162600000Y-108200000D02*
X161300000Y-109500000D01*
X173775000Y-110275000D02*
X171700000Y-108200000D01*
X161300000Y-109500000D02*
X160300000Y-109500000D01*
X161250000Y-145423873D02*
X161250000Y-145450000D01*
X153076127Y-145423873D02*
X161250000Y-145423873D01*
X155500000Y-109500000D02*
X160300000Y-109500000D01*
X151175000Y-147375000D02*
X151175000Y-147325000D01*
X168700000Y-108200000D02*
X162600000Y-108200000D01*
%TO.N,CTS1*%
X144100000Y-77700000D02*
X146423200Y-77700000D01*
X162872400Y-90072400D02*
X156855500Y-90072400D01*
X165165200Y-92365200D02*
X162872400Y-90072400D01*
X146423200Y-77700000D02*
X151307000Y-72816200D01*
X151307000Y-72816200D02*
X151307000Y-70059200D01*
X165165200Y-92784300D02*
X165165200Y-92365200D01*
%TO.N,TX1*%
X163780200Y-88023200D02*
X156946500Y-88023200D01*
X166979200Y-91222200D02*
X163780200Y-88023200D01*
X150938400Y-68520700D02*
X150002400Y-69456700D01*
X150002400Y-69456700D02*
X150002400Y-73340400D01*
%TO.N,GSM_RST*%
X175581600Y-90346400D02*
X173095100Y-87859900D01*
X173095100Y-87859900D02*
X173095100Y-86587800D01*
%TO.N,GSM_VPP*%
X163945700Y-58514100D02*
X163945700Y-71924000D01*
X174082800Y-48377000D02*
X163945700Y-58514100D01*
X163945700Y-71924000D02*
X164131900Y-72110200D01*
%TO.N,RX1*%
X165988000Y-91388000D02*
X165988000Y-91791600D01*
X147886400Y-68655900D02*
X147986400Y-68555900D01*
X146900000Y-71800000D02*
X146900000Y-72632800D01*
X163653200Y-89053200D02*
X165988000Y-91388000D01*
X146900000Y-72632800D02*
X148368500Y-74101300D01*
X156358600Y-89053200D02*
X163653200Y-89053200D01*
X146531200Y-68655900D02*
X147886400Y-68655900D01*
%TO.N,GSM_GPIO_1*%
X156752800Y-65913800D02*
X157853400Y-67014400D01*
X147200621Y-65753597D02*
X147360824Y-65913800D01*
X148600000Y-73000000D02*
X149000000Y-73400000D01*
X171756400Y-96116300D02*
X181526500Y-96116300D01*
X148600000Y-72400000D02*
X148600000Y-73000000D01*
X147360824Y-65913800D02*
X156752800Y-65913800D01*
X147900000Y-71700000D02*
X148600000Y-72400000D01*
X181526500Y-96116300D02*
X182164700Y-95478100D01*
%TO.N,RI1*%
X157494100Y-86101800D02*
X162801800Y-86101800D01*
X166363400Y-89663400D02*
X166979700Y-89663400D01*
X162801800Y-86101800D02*
X166363400Y-89663400D01*
%TO.N,RTS1*%
X147883500Y-64238600D02*
X148064800Y-64419900D01*
X136040200Y-59809200D02*
X136040200Y-59325400D01*
X136539100Y-60308100D02*
X136040200Y-59809200D01*
X148064800Y-64419900D02*
X149529600Y-64419900D01*
X136040200Y-59325400D02*
X142139000Y-53226600D01*
X149910200Y-63533200D02*
X146685100Y-60308100D01*
X147100000Y-68000000D02*
X146544900Y-67444900D01*
X149529600Y-64419900D02*
X149910200Y-64039300D01*
X146685100Y-60308100D02*
X136539100Y-60308100D01*
X160441900Y-53226600D02*
X161885600Y-54670300D01*
X146544900Y-65120300D02*
X147426600Y-64238600D01*
X171717200Y-84048300D02*
X171717200Y-88405400D01*
X142139000Y-53226600D02*
X160441900Y-53226600D01*
X171717200Y-88405400D02*
X166881600Y-93241000D01*
X147426600Y-64238600D02*
X147883500Y-64238600D01*
X149910200Y-64039300D02*
X149910200Y-63533200D01*
X146544900Y-67444900D02*
X146544900Y-65120300D01*
%TO.N,GSM_IO*%
X179275000Y-83450000D02*
X179275000Y-78762200D01*
X179275000Y-78762200D02*
X166149000Y-65636200D01*
X180450000Y-84625000D02*
X179275000Y-83450000D01*
X164497400Y-66511300D02*
X164497400Y-69447900D01*
X175349000Y-94463500D02*
X180476300Y-89336200D01*
X166149000Y-65636200D02*
X166213700Y-65636200D01*
X180476300Y-89336200D02*
X180476300Y-84625000D01*
X166213700Y-65636200D02*
X177227300Y-54622600D01*
X165372500Y-65636200D02*
X164497400Y-66511300D01*
X180476300Y-84625000D02*
X180450000Y-84625000D01*
X166149000Y-65636200D02*
X165372500Y-65636200D01*
X177227300Y-54622600D02*
X177227300Y-45856900D01*
%TO.N,Net-(DDR_RAM1-VSSQ-PadB1)*%
X129764400Y-121181900D02*
X130408500Y-121181900D01*
X127232700Y-123882000D02*
X127232700Y-123713600D01*
X130408500Y-121181900D02*
X130744300Y-120846100D01*
X127232700Y-123713600D02*
X129764400Y-121181900D01*
X126539600Y-124575100D02*
X127232700Y-123882000D01*
%TO.N,SD2_F1*%
X153300300Y-63266500D02*
X154519500Y-64485700D01*
X153300300Y-61147800D02*
X153300300Y-63266500D01*
%TO.N,A12{slash}BC_N*%
X134167100Y-111687077D02*
X136985077Y-111687077D01*
X144988500Y-121362200D02*
X170193800Y-121362200D01*
X173503100Y-124793600D02*
X173874000Y-124793600D01*
X142101300Y-123710000D02*
X143435800Y-123710000D01*
X171893400Y-123183900D02*
X173503100Y-124793600D01*
X143435800Y-123710000D02*
X144689100Y-122456700D01*
X171893400Y-123061800D02*
X171893400Y-123183900D01*
X144224900Y-120598600D02*
X144988500Y-121362200D01*
X141836200Y-123975100D02*
X142101300Y-123710000D01*
X170193800Y-121362200D02*
X171893400Y-123061800D01*
X136985077Y-111687077D02*
X143883900Y-118585900D01*
%TO.N,A3*%
X142700000Y-111300000D02*
X142200000Y-111300000D01*
X147000000Y-109900000D02*
X148900000Y-111800000D01*
X148300000Y-117600000D02*
X146300000Y-117600000D01*
X147000000Y-100725682D02*
X147000000Y-102400000D01*
X156825682Y-90900000D02*
X147000000Y-100725682D01*
X162800000Y-90900000D02*
X156825682Y-90900000D01*
X144300000Y-115600000D02*
X143800000Y-115100000D01*
X142200000Y-111300000D02*
X141100000Y-110200000D01*
X166100000Y-77200000D02*
X166100000Y-80477818D01*
X146300000Y-117600000D02*
X144300000Y-115600000D01*
X163400000Y-85600000D02*
X163400000Y-85500000D01*
X163400000Y-83177818D02*
X163400000Y-85600000D01*
X141100000Y-110200000D02*
X140600000Y-110200000D01*
X143800000Y-115100000D02*
X143800000Y-113700000D01*
X166100000Y-80477818D02*
X163400000Y-83177818D01*
X147000000Y-102400000D02*
X147000000Y-109900000D01*
%TO.N,A0*%
X139500000Y-123394682D02*
X139500000Y-120521900D01*
X139800000Y-123694682D02*
X139500000Y-123394682D01*
X153680800Y-73687300D02*
X138542300Y-88825800D01*
X139800000Y-124540600D02*
X139800000Y-123694682D01*
X153680800Y-68678900D02*
X153680800Y-73687300D01*
X140284000Y-125024600D02*
X139800000Y-124540600D01*
X138035900Y-108819782D02*
X138035900Y-104589000D01*
X140108059Y-110891941D02*
X140450500Y-111234382D01*
X139500000Y-120521900D02*
X139271000Y-120292900D01*
X140450500Y-111234382D02*
X140450500Y-112792400D01*
X140108059Y-110891941D02*
X138035900Y-108819782D01*
%TO.N,A4*%
X147655000Y-64790300D02*
X147902200Y-65037500D01*
X133985600Y-102100000D02*
X135289600Y-103404000D01*
X147902200Y-65037500D02*
X158236000Y-65037500D01*
X133985600Y-81703100D02*
X133985600Y-102100000D01*
X135289600Y-105359800D02*
X134978900Y-105670500D01*
X145905600Y-69783100D02*
X133985600Y-81703100D01*
X158236000Y-65037500D02*
X158820700Y-64452800D01*
X135289600Y-103404000D02*
X135289600Y-105359800D01*
%TO.N,SD2_F2*%
X157056400Y-75839600D02*
X156152300Y-75839600D01*
X156152300Y-75839600D02*
X149386100Y-82605800D01*
%TO.N,SD3_F1*%
X159375800Y-59360500D02*
X159375800Y-56922300D01*
X159278800Y-68812700D02*
X159743700Y-68347800D01*
X159743700Y-68347800D02*
X159743700Y-59728400D01*
X159743700Y-59728400D02*
X159375800Y-59360500D01*
X159375800Y-56922300D02*
X156240900Y-53787400D01*
%TO.N,SD1_F2*%
X147917600Y-69231400D02*
X143775200Y-69231400D01*
X143775200Y-69231400D02*
X131874300Y-57330500D01*
X148207700Y-69521500D02*
X147917600Y-69231400D01*
X131874300Y-57330500D02*
X131874300Y-56552600D01*
%TO.N,SD_DAT1*%
X137904200Y-35787300D02*
X143298200Y-35787300D01*
X143298200Y-35787300D02*
X150431600Y-42920700D01*
%TO.N,A5*%
X146563100Y-100260500D02*
X146563100Y-101434800D01*
X146993200Y-99830400D02*
X146993200Y-99830500D01*
X146993200Y-99830500D02*
X146563200Y-100260500D01*
X146563200Y-100260500D02*
X146563100Y-100260500D01*
X155806900Y-86986600D02*
X155806900Y-91016700D01*
X146563100Y-101434800D02*
X141587200Y-106410700D01*
X165400000Y-79800000D02*
X162993500Y-79800000D01*
X155806900Y-91016700D02*
X146993200Y-99830400D01*
X162993500Y-79800000D02*
X155806900Y-86986600D01*
%TO.N,SD_CMD*%
X138887400Y-63781400D02*
X149358400Y-63781400D01*
X133219400Y-58113400D02*
X138887400Y-63781400D01*
X133219400Y-45858500D02*
X133219400Y-58113400D01*
%TO.N,A8*%
X136254900Y-94670600D02*
X147524000Y-83401500D01*
X161990800Y-68124700D02*
X162665200Y-68124700D01*
X143256300Y-121286400D02*
X143256300Y-121286300D01*
X142804300Y-121286300D02*
X138236500Y-116718500D01*
X136243700Y-95847900D02*
X136254900Y-95836700D01*
X138236500Y-116718500D02*
X138236500Y-115904500D01*
X136254900Y-95836700D02*
X136254900Y-94670600D01*
X147524000Y-83401500D02*
X147524000Y-82591500D01*
X147524000Y-82591500D02*
X161990800Y-68124700D01*
X143256300Y-121286300D02*
X142804300Y-121286300D01*
%TO.N,A6*%
X158643900Y-65548600D02*
X158643900Y-67004400D01*
X158643900Y-67004400D02*
X156431100Y-69217200D01*
X156431100Y-69217200D02*
X155307000Y-69217200D01*
X155307000Y-69217200D02*
X154012800Y-67923000D01*
X150697100Y-67923000D02*
X147610050Y-71010050D01*
X154012800Y-67923000D02*
X150697100Y-67923000D01*
X147610050Y-71010050D02*
X146689950Y-71010050D01*
X134600300Y-83099700D02*
X134600300Y-95571000D01*
X146689950Y-71010050D02*
X134600300Y-83099700D01*
%TO.N,SD0_F1*%
X158695300Y-69741600D02*
X159165200Y-69741600D01*
X159727500Y-58534900D02*
X159727500Y-56347900D01*
X157113600Y-71323300D02*
X158695300Y-69741600D01*
X159165200Y-69741600D02*
X160095400Y-68811400D01*
X160095400Y-58902800D02*
X159727500Y-58534900D01*
X160095400Y-68811400D02*
X160095400Y-58902800D01*
X157113600Y-71569100D02*
X157113600Y-71323300D01*
X159727500Y-56347900D02*
X157208600Y-53829000D01*
%TO.N,A14*%
X154500000Y-119774800D02*
X150090600Y-119774800D01*
X147838000Y-121905000D02*
X143610900Y-121905000D01*
X170094800Y-119774800D02*
X164125200Y-119774800D01*
X138972500Y-111000000D02*
X139348500Y-111376000D01*
X146342900Y-118638000D02*
X141143100Y-113438200D01*
X137400000Y-110148400D02*
X137548400Y-110148400D01*
X173629100Y-123550000D02*
X173629100Y-123309100D01*
X147660000Y-118638000D02*
X146342900Y-118638000D01*
X163600000Y-120300000D02*
X155025200Y-120300000D01*
X143610900Y-121905000D02*
X143477700Y-122038200D01*
X155025200Y-120300000D02*
X154500000Y-119774800D01*
X138400000Y-111000000D02*
X138972500Y-111000000D01*
X173629100Y-123309100D02*
X170094800Y-119774800D01*
X147906700Y-121973700D02*
X147838000Y-121905000D01*
X164125200Y-119774800D02*
X163600000Y-120300000D01*
X150090600Y-119774800D02*
X148953800Y-118638000D01*
X137548400Y-110148400D02*
X138400000Y-111000000D01*
X148953800Y-118638000D02*
X147660000Y-118638000D01*
%TO.N,A9*%
X146623700Y-99702600D02*
X146623700Y-99702700D01*
X142395200Y-103931100D02*
X142395200Y-104585800D01*
X146623600Y-99702700D02*
X142395200Y-103931100D01*
X153742800Y-86558500D02*
X153742800Y-92583500D01*
X145073800Y-110801100D02*
X142376400Y-108103700D01*
X146623700Y-99702700D02*
X146623600Y-99702700D01*
X156418000Y-83883300D02*
X153742800Y-86558500D01*
X144350600Y-125007500D02*
X146973300Y-125007500D01*
X146973300Y-125007500D02*
X147013700Y-124967100D01*
X142376400Y-108103700D02*
X142376400Y-106563600D01*
X153742800Y-92583500D02*
X146623700Y-99702600D01*
%TO.N,SD_CD_OR_DAT3*%
X140353700Y-51365700D02*
X131907100Y-42919100D01*
X159845800Y-51365700D02*
X140353700Y-51365700D01*
X159166600Y-70293300D02*
X160447100Y-69012800D01*
X160447100Y-69012800D02*
X160447100Y-58474400D01*
X160447100Y-58474400D02*
X160279200Y-58306500D01*
X158923700Y-70293300D02*
X159166600Y-70293300D01*
%TO.N,CMD_F1*%
X155633800Y-63924400D02*
X155633800Y-60284500D01*
X155633800Y-60284500D02*
X158420100Y-57498200D01*
%TO.N,A1*%
X148199700Y-116264000D02*
X147064800Y-115129100D01*
X166588600Y-64481100D02*
X166310500Y-64203000D01*
X147064800Y-115129100D02*
X144956800Y-115129100D01*
X166417491Y-66682509D02*
X167200000Y-67465018D01*
X139420400Y-112782800D02*
X143762700Y-117125100D01*
X167200000Y-67465018D02*
X167200000Y-81223200D01*
X166310500Y-64203000D02*
X166310500Y-64202900D01*
X158275000Y-59995100D02*
X157849900Y-59995100D01*
X139420400Y-112317100D02*
X139420400Y-112782800D01*
X172279800Y-89020200D02*
X152333900Y-108966100D01*
X172279800Y-83783700D02*
X172279800Y-89020200D01*
X157849900Y-59995100D02*
X156602800Y-61242200D01*
X170322600Y-81826500D02*
X172279800Y-83783700D01*
X149619400Y-113179300D02*
X147931200Y-113179300D01*
X138057400Y-119097300D02*
X138056600Y-119098100D01*
X164955100Y-64202900D02*
X164591400Y-63839200D01*
X153000000Y-116500000D02*
X152940100Y-116500000D01*
X167200000Y-81223200D02*
X167803300Y-81826500D01*
X166310500Y-64202900D02*
X164955100Y-64202900D01*
X152940100Y-116500000D02*
X149619400Y-113179300D01*
X167803300Y-81826500D02*
X170322600Y-81826500D01*
%TO.N,A13*%
X154200000Y-120326500D02*
X150585300Y-120326500D01*
X142501500Y-120009600D02*
X149115100Y-120009600D01*
X169821300Y-120326500D02*
X164573500Y-120326500D01*
X142303100Y-119811200D02*
X142501500Y-120009600D01*
X154673500Y-120800000D02*
X154200000Y-120326500D01*
X147790400Y-125624400D02*
X150123300Y-123291500D01*
X142889700Y-125624400D02*
X147790400Y-125624400D01*
X142846600Y-125667500D02*
X142889700Y-125624400D01*
X149432000Y-120326500D02*
X150585300Y-120326500D01*
X149115100Y-120009600D02*
X149432000Y-120326500D01*
X172877300Y-123382500D02*
X169821300Y-120326500D01*
X150123300Y-123291500D02*
X150584700Y-123291500D01*
X164573500Y-120326500D02*
X164100000Y-120800000D01*
X164100000Y-120800000D02*
X154673500Y-120800000D01*
%TO.N,A7*%
X165039600Y-71258800D02*
X165039600Y-72819600D01*
X151665600Y-86193600D02*
X151665600Y-93206500D01*
X165039600Y-72819600D02*
X151665600Y-86193600D01*
X151665600Y-93206500D02*
X143475300Y-101396800D01*
%TO.N,SD1_F1*%
X159024100Y-57320400D02*
X156372400Y-54668700D01*
X156372400Y-54668700D02*
X156249200Y-54668700D01*
X159392000Y-59874000D02*
X159024100Y-59506100D01*
X156586900Y-72497600D02*
X156561900Y-72472600D01*
X159392000Y-67343800D02*
X159392000Y-59874000D01*
X156561900Y-72472600D02*
X156561900Y-70173900D01*
X159024100Y-59506100D02*
X159024100Y-57320400D01*
X156561900Y-70173900D02*
X159392000Y-67343800D01*
%TO.N,A10{slash}AP*%
X137450500Y-118275600D02*
X133617100Y-114442200D01*
X133617100Y-114442200D02*
X133617100Y-106639900D01*
X147978200Y-84811700D02*
X139530700Y-93259200D01*
X137450500Y-119317200D02*
X137450500Y-118275600D01*
X139122100Y-123794600D02*
X139122100Y-120988800D01*
X146347000Y-81910800D02*
X146347000Y-81562600D01*
X146347000Y-81562600D02*
X155412000Y-72497600D01*
X155412000Y-72497600D02*
X155743500Y-72497600D01*
X134737900Y-103990600D02*
X134181400Y-104547100D01*
X133617100Y-106639900D02*
X134181400Y-106075600D01*
X139122100Y-120988800D02*
X137450500Y-119317200D01*
X139530700Y-98179100D02*
X135436400Y-102273400D01*
X139530700Y-93259200D02*
X139530700Y-98179100D01*
X134181400Y-104547100D02*
X134181400Y-106075600D01*
%TO.N,SD_DAT2*%
X160083500Y-71106200D02*
X148717200Y-82472500D01*
X162482800Y-71106200D02*
X160083500Y-71106200D01*
X148717200Y-82472500D02*
X148717200Y-83000100D01*
%TO.N,A11*%
X153738100Y-105743200D02*
X151782200Y-107699100D01*
X152110800Y-122852000D02*
X152672100Y-122290700D01*
X170638300Y-126571400D02*
X170638300Y-123581500D01*
X152072800Y-86566500D02*
X152072800Y-87334700D01*
X139981200Y-89962700D02*
X146972300Y-82971600D01*
X151782200Y-109215900D02*
X151605400Y-109392700D01*
X172965000Y-126937200D02*
X172965000Y-127794800D01*
X171541700Y-125513900D02*
X172965000Y-126937200D01*
X151782200Y-107699100D02*
X151782200Y-109215900D01*
X152072800Y-87334700D02*
X152740300Y-88002200D01*
X138479600Y-89962700D02*
X139981200Y-89962700D01*
X172641800Y-128118000D02*
X172184900Y-128118000D01*
X146972300Y-82971600D02*
X146972300Y-81757500D01*
X146972300Y-81757500D02*
X153011000Y-75718800D01*
X172184900Y-128118000D02*
X170638300Y-126571400D01*
X170625000Y-122290700D02*
X171541700Y-123207400D01*
X152672100Y-122290700D02*
X170625000Y-122290700D01*
X145849400Y-122688700D02*
X144226700Y-124311400D01*
X151947500Y-122688700D02*
X145849400Y-122688700D01*
X152217300Y-86422000D02*
X152072800Y-86566500D01*
X144226700Y-124311400D02*
X142578100Y-124311400D01*
X171541700Y-123207400D02*
X171541700Y-125513900D01*
X152110800Y-122852000D02*
X151947500Y-122688700D01*
X172965000Y-127794800D02*
X172641800Y-128118000D01*
X152740300Y-88002200D02*
X152839300Y-88002200D01*
%TO.N,SD_DAT0*%
X153341200Y-48794700D02*
X144667200Y-48794700D01*
X144667200Y-48794700D02*
X138791600Y-42919100D01*
%TO.N,A2*%
X167572100Y-82975500D02*
X167572100Y-91417600D01*
X143254682Y-128203800D02*
X142901400Y-127850518D01*
X149999600Y-125181400D02*
X147952800Y-127228200D01*
X141723200Y-111823200D02*
X141000000Y-111100000D01*
X147200100Y-127195500D02*
X147200100Y-128212700D01*
X166129100Y-81532500D02*
X167572100Y-82975500D01*
X153509700Y-105191500D02*
X151191400Y-107509800D01*
X141723200Y-112953500D02*
X141723200Y-111823200D01*
X149521500Y-118397000D02*
X150109800Y-118985300D01*
X151191400Y-107509800D02*
X151191400Y-108588000D01*
X146328500Y-128664800D02*
X145867500Y-128203800D01*
X149999600Y-124785800D02*
X149999600Y-125181400D01*
X153798200Y-105191500D02*
X153509700Y-105191500D01*
X145867500Y-128203800D02*
X143254682Y-128203800D01*
X147200100Y-128212700D02*
X146748000Y-128664800D01*
X141723200Y-112953500D02*
X145669400Y-112953500D01*
X146748000Y-128664800D02*
X146328500Y-128664800D01*
X141364700Y-125564700D02*
X141364700Y-125156000D01*
X142901400Y-127850518D02*
X142901400Y-127101400D01*
X145669400Y-112953500D02*
X149521500Y-116805600D01*
X167572100Y-91417600D02*
X153798200Y-105191500D01*
X149521500Y-116805600D02*
X149521500Y-118397000D01*
X142901400Y-127101400D02*
X141364700Y-125564700D01*
%TO.N,CMD_F2*%
X154611100Y-60628800D02*
X153572600Y-59590300D01*
X153572600Y-59590300D02*
X136624300Y-59590300D01*
%TO.N,RAM_ODT*%
X151505400Y-117240400D02*
X148566000Y-114301000D01*
X151505400Y-117631100D02*
X151505400Y-117240400D01*
%TO.N,RAM_LDQS*%
X128888300Y-100397800D02*
X128493700Y-100792400D01*
X133108900Y-105476600D02*
X133108900Y-110499800D01*
X128493700Y-101934700D02*
X128782300Y-102223300D01*
X128493700Y-100792400D02*
X128493700Y-101934700D01*
X133298591Y-100776409D02*
X132919982Y-100397800D01*
X133108900Y-110499800D02*
X133000000Y-110608700D01*
X132919982Y-100397800D02*
X128888300Y-100397800D01*
%TO.N,Net-(DDR_RAM1-VSS-PadA9)*%
X133582000Y-128812200D02*
X133582000Y-128821700D01*
X136900000Y-127100000D02*
X136900000Y-127575000D01*
X140912300Y-128668100D02*
X140792900Y-128548700D01*
X138255000Y-129000000D02*
X138698900Y-128556100D01*
X140912300Y-128668100D02*
X141641000Y-128668100D01*
X143451400Y-127622700D02*
X145057000Y-127622700D01*
X138706300Y-128548700D02*
X138698900Y-128556100D01*
X135374400Y-129000000D02*
X138255000Y-129000000D01*
X141641000Y-128668100D02*
X142016900Y-129044000D01*
X133774400Y-126974400D02*
X133774400Y-127400000D01*
X132445300Y-125645300D02*
X133774400Y-126974400D01*
X140792900Y-128548700D02*
X138706300Y-128548700D01*
X136900000Y-127575000D02*
X137881100Y-128556100D01*
X143367700Y-122875200D02*
X140640600Y-120148100D01*
X145057000Y-127622700D02*
X145563000Y-127116700D01*
X140640600Y-120148100D02*
X140640600Y-119906100D01*
X133774400Y-127400000D02*
X135374400Y-129000000D01*
X130973500Y-125645300D02*
X132445300Y-125645300D01*
X137881100Y-128556100D02*
X138698900Y-128556100D01*
%TO.N,DQ05*%
X136475000Y-120525000D02*
X136475000Y-121925000D01*
X136475000Y-121925000D02*
X136100000Y-122300000D01*
%TO.N,RAM_CKE*%
X135853900Y-118665400D02*
X135853900Y-117788600D01*
X137853200Y-120664700D02*
X135853900Y-118665400D01*
%TO.N,DQ08*%
X129443300Y-116763518D02*
X129443300Y-105495659D01*
X132163925Y-103388925D02*
X132175000Y-103400000D01*
X132600000Y-120900000D02*
X132600000Y-119920218D01*
X132600000Y-119920218D02*
X129443300Y-116763518D01*
X129443300Y-105495659D02*
X131550034Y-103388925D01*
X131550034Y-103388925D02*
X132163925Y-103388925D01*
%TO.N,RAM_CK_N*%
X138091500Y-123792000D02*
X138308000Y-123792000D01*
%TO.N,DQ10*%
X133046456Y-102687452D02*
X132940593Y-102581589D01*
X132498591Y-104223591D02*
X132498591Y-104176409D01*
X133046456Y-103628544D02*
X133046456Y-102687452D01*
X132498591Y-104176409D02*
X133046456Y-103628544D01*
%TO.N,RAM_BA2*%
X175210000Y-142764800D02*
X177978900Y-139995900D01*
X173541600Y-142764800D02*
X175210000Y-142764800D01*
X138400000Y-127479382D02*
X139038718Y-128118100D01*
X139038718Y-128118100D02*
X142674008Y-128118100D01*
X141584500Y-101808700D02*
X141584500Y-94702300D01*
X141584500Y-94702300D02*
X146760600Y-89526200D01*
X143386108Y-128830200D02*
X145248200Y-128830200D01*
X142674008Y-128118100D02*
X143386108Y-128830200D01*
X138400000Y-127177818D02*
X138400000Y-127479382D01*
X139632600Y-125467400D02*
X139038909Y-126061091D01*
X139050000Y-126072182D02*
X139050000Y-126527818D01*
X155883700Y-66520500D02*
X156878500Y-67515300D01*
X139770900Y-125574600D02*
X139663700Y-125467400D01*
X177978900Y-116259600D02*
X171936800Y-110217500D01*
X145248200Y-128830200D02*
X159182800Y-142764800D01*
X147466400Y-89526200D02*
X159439600Y-77553000D01*
X170827400Y-133061000D02*
X174635600Y-129252800D01*
X153128600Y-66520500D02*
X155883700Y-66520500D01*
X159182800Y-142764800D02*
X173541600Y-142764800D01*
X146760600Y-89526200D02*
X147466400Y-89526200D01*
X174635600Y-129252800D02*
X174635600Y-127620100D01*
X177978900Y-139995900D02*
X177978900Y-116259600D01*
X159439600Y-77553000D02*
X159439600Y-77142100D01*
X171936800Y-110217500D02*
X151647700Y-110217500D01*
X139663700Y-125467400D02*
X139632600Y-125467400D01*
X139038909Y-126061091D02*
X139050000Y-126072182D01*
X151647700Y-110217500D02*
X148285800Y-106855600D01*
X139050000Y-126527818D02*
X138400000Y-127177818D01*
X148285800Y-106855600D02*
X148285800Y-101584800D01*
%TO.N,DQ13*%
X131911200Y-98910300D02*
X129211882Y-98910300D01*
X131911200Y-98910300D02*
X131772400Y-98771500D01*
X129211882Y-98910300D02*
X127100100Y-101022082D01*
X127100200Y-101783300D02*
X127100100Y-101783300D01*
X127100100Y-101022082D02*
X127100100Y-101783300D01*
%TO.N,DQ00*%
X132668700Y-125075000D02*
X132150000Y-125075000D01*
X131500000Y-124425000D02*
X131500000Y-124125482D01*
X131040718Y-123666200D02*
X130533800Y-123666200D01*
X129873100Y-124326900D02*
X128879100Y-124326900D01*
X130533800Y-123666200D02*
X129873100Y-124326900D01*
X132150000Y-125075000D02*
X131500000Y-124425000D01*
X133253400Y-125659700D02*
X132668700Y-125075000D01*
X131500000Y-124125482D02*
X131040718Y-123666200D01*
%TO.N,DQ14*%
X131775000Y-104975000D02*
X129950000Y-106800000D01*
X131798768Y-103953867D02*
X131775000Y-103977635D01*
X129950000Y-106800000D02*
X129950000Y-113350000D01*
X131775000Y-103977635D02*
X131775000Y-104975000D01*
X129950000Y-113350000D02*
X130150000Y-113550000D01*
%TO.N,RAM_WE_N*%
X138500000Y-126300000D02*
X138500000Y-124800000D01*
%TO.N,RAM_CK*%
X133524300Y-123699300D02*
X133524300Y-120483700D01*
X135198000Y-123950000D02*
X133775000Y-123950000D01*
X133775000Y-123950000D02*
X133524300Y-123699300D01*
X135844200Y-124596200D02*
X135198000Y-123950000D01*
X136315600Y-124596200D02*
X135844200Y-124596200D01*
%TO.N,RAM_BA0*%
X150070700Y-116755600D02*
X140343200Y-107028100D01*
X150070700Y-117009500D02*
X150070700Y-116755600D01*
X163256900Y-119800000D02*
X155600000Y-119800000D01*
X153847200Y-81178500D02*
X140675700Y-94350000D01*
X155600000Y-119800000D02*
X155156900Y-119356900D01*
X140675700Y-94350000D02*
X140675700Y-106257900D01*
X171661400Y-119356900D02*
X163700000Y-119356900D01*
X152418100Y-119356900D02*
X150070700Y-117009500D01*
X140675700Y-106257900D02*
X140343200Y-106590400D01*
X140343200Y-107028100D02*
X140343200Y-106590400D01*
X155156900Y-119356900D02*
X152418100Y-119356900D01*
X175091600Y-122787100D02*
X171661400Y-119356900D01*
X163700000Y-119356900D02*
X163256900Y-119800000D01*
%TO.N,DQ15*%
X129334000Y-101328000D02*
X129053800Y-101047800D01*
X129054900Y-119190300D02*
X129054900Y-102730900D01*
X129334000Y-102451800D02*
X129334000Y-101328000D01*
X129349800Y-119485200D02*
X129054900Y-119190300D01*
X129054900Y-102730900D02*
X129334000Y-102451800D01*
%TO.N,DQ04*%
X135986100Y-125497300D02*
X136253700Y-125497300D01*
X131921100Y-115203900D02*
X131921100Y-105595400D01*
X131921100Y-105595400D02*
X134107400Y-103409100D01*
X131550000Y-116125000D02*
X131550000Y-115575000D01*
X131550000Y-115575000D02*
X131921100Y-115203900D01*
%TO.N,DQ11*%
X132500000Y-96600000D02*
X133100000Y-96000000D01*
X132500000Y-97175000D02*
X132500000Y-96600000D01*
X132000000Y-97675000D02*
X132500000Y-97175000D01*
%TO.N,DQ12*%
X128658900Y-124937000D02*
X130095500Y-124937000D01*
X128302400Y-124580500D02*
X128658900Y-124937000D01*
X129059800Y-122822300D02*
X128302400Y-123579700D01*
X128302400Y-123579700D02*
X128302400Y-124580500D01*
X130095500Y-124937000D02*
X130814600Y-124217900D01*
%TO.N,Net-(DDR_RAM1-VDD-PadB2)*%
X140135700Y-129609400D02*
X139626700Y-129100400D01*
X143327000Y-129381900D02*
X143099500Y-129609400D01*
X144376700Y-126206900D02*
X147990200Y-126206900D01*
X148817500Y-120662900D02*
X148881600Y-120598800D01*
X145070400Y-120662900D02*
X148817500Y-120662900D01*
X134346200Y-120741500D02*
X134346200Y-120978800D01*
X141549600Y-119249300D02*
X144792200Y-119249300D01*
X143099500Y-129609400D02*
X140135700Y-129609400D01*
X141549600Y-119249300D02*
X141549600Y-118421800D01*
X147990200Y-126206900D02*
X148701400Y-125495700D01*
X138448900Y-115321100D02*
X135588900Y-115321100D01*
X141549600Y-118421800D02*
X138448900Y-115321100D01*
X135588900Y-115321100D02*
X135434900Y-115475100D01*
X144792200Y-119249300D02*
X144885300Y-119342400D01*
%TO.N,RAM_BA1*%
X135641600Y-105788000D02*
X134297500Y-107132100D01*
X134883800Y-96295200D02*
X134883800Y-102500900D01*
X172863200Y-126055300D02*
X173393900Y-126055300D01*
X138377800Y-90657200D02*
X139488100Y-90657200D01*
X144305900Y-94342500D02*
X148239800Y-90408600D01*
X147711200Y-106859100D02*
X147711200Y-100792300D01*
X152842400Y-71798000D02*
X137893200Y-86747200D01*
X147711200Y-100792300D02*
X147895100Y-100608400D01*
X173393900Y-126055300D02*
X174813200Y-124636000D01*
X137893200Y-90172600D02*
X138377800Y-90657200D01*
X152842400Y-71530600D02*
X152842400Y-71798000D01*
X159097800Y-123051900D02*
X167684900Y-123051900D01*
X135641600Y-103258700D02*
X135641600Y-105788000D01*
X137893200Y-86747200D02*
X137893200Y-90172600D01*
X135164400Y-93870600D02*
X135164400Y-96014600D01*
X155234000Y-111519400D02*
X152371500Y-111519400D01*
X152371500Y-111519400D02*
X147711200Y-106859100D01*
X135164400Y-96014600D02*
X134883800Y-96295200D01*
X138377800Y-90657200D02*
X135164400Y-93870600D01*
X134297500Y-107132100D02*
X134197200Y-107132100D01*
X174813200Y-124636000D02*
X174813200Y-123976200D01*
X148239800Y-90408600D02*
X148239800Y-90133700D01*
X134883800Y-102500900D02*
X135641600Y-103258700D01*
X167684900Y-123051900D02*
X170012000Y-125379000D01*
%TO.N,RTC_IN*%
X166638600Y-126461400D02*
X166638600Y-126120300D01*
X164400000Y-128700000D02*
X166638600Y-126461400D01*
%TO.N,RAM_RST*%
X145153400Y-126565000D02*
X145791500Y-126565000D01*
X146538200Y-127311700D02*
X146538200Y-128094200D01*
X146538200Y-128094200D02*
X146538300Y-128094200D01*
X145791500Y-126565000D02*
X146538200Y-127311700D01*
X143453500Y-126844100D02*
X144874300Y-126844100D01*
X144874300Y-126844100D02*
X145153400Y-126565000D01*
%TO.N,UBOOT*%
X164400000Y-126700000D02*
X161690700Y-126700000D01*
X161690700Y-126700000D02*
X161259200Y-126268500D01*
%TO.N,RTC_OUT*%
X142923600Y-101261500D02*
X141824600Y-102360500D01*
X163256000Y-52567900D02*
X163812200Y-52567900D01*
X141032800Y-94743500D02*
X151011300Y-84765000D01*
X156563600Y-52567900D02*
X163256000Y-52567900D01*
X163812200Y-52567900D02*
X167002550Y-49377550D01*
X136688400Y-55386500D02*
X136688400Y-52567900D01*
X163256000Y-72545600D02*
X163256000Y-54750000D01*
X163256000Y-54750000D02*
X167002550Y-51003450D01*
X136688400Y-52567900D02*
X136688400Y-50916800D01*
X136688400Y-52567900D02*
X156563600Y-52567900D01*
X142923600Y-94156300D02*
X142923600Y-101261500D01*
X136688400Y-50916800D02*
X136685200Y-50913600D01*
X151117700Y-84765000D02*
X156135400Y-79747300D01*
X141824600Y-102360500D02*
X141333200Y-102360500D01*
X151011300Y-84765000D02*
X151117700Y-84765000D01*
X141333200Y-102360500D02*
X141032800Y-102060100D01*
X167002550Y-49377550D02*
X176701400Y-39678700D01*
X141032800Y-102060100D02*
X141032800Y-94743500D01*
X156135400Y-79747300D02*
X156135400Y-79666200D01*
X167002550Y-51003450D02*
X167002550Y-49377550D01*
X146791500Y-90288400D02*
X142923600Y-94156300D01*
X156563600Y-52567900D02*
X156563600Y-52567400D01*
X156135400Y-79666200D02*
X163256000Y-72545600D01*
X134009900Y-58065000D02*
X136688400Y-55386500D01*
%TO.N,VBUS_USBC*%
X168785500Y-81110500D02*
X169050000Y-81375000D01*
X179920700Y-86824300D02*
X170827700Y-95917300D01*
X174300000Y-84700000D02*
X176450000Y-84700000D01*
X176450000Y-84700000D02*
X177264300Y-85514300D01*
X170975000Y-81375000D02*
X174300000Y-84700000D01*
X178610700Y-85514300D02*
X179920700Y-86824300D01*
X177264300Y-85514300D02*
X178610700Y-85514300D01*
X169050000Y-81375000D02*
X170975000Y-81375000D01*
X167889200Y-81110500D02*
X168785500Y-81110500D01*
X170827700Y-95917300D02*
X170827700Y-98737300D01*
%TO.N,DAT4_N*%
X175668400Y-124751700D02*
X175668400Y-120932300D01*
X175668400Y-120932300D02*
X171298200Y-116562100D01*
X173316700Y-127103400D02*
X175668400Y-124751700D01*
X173316700Y-127960000D02*
X173316700Y-127103400D01*
X170576700Y-130700000D02*
X173316700Y-127960000D01*
X169900000Y-130700000D02*
X170576700Y-130700000D01*
%TO.N,Net-(GND_R1-Pad2)*%
X153700000Y-147350000D02*
X154425000Y-148075000D01*
X154425000Y-148075000D02*
X154925000Y-148075000D01*
X154925000Y-148075000D02*
X158375000Y-151525000D01*
%TO.N,HSYNC_V*%
X171190000Y-123353000D02*
X170684000Y-122847000D01*
X171190000Y-126343000D02*
X171190000Y-123353000D01*
X172413300Y-127566300D02*
X171190000Y-126343000D01*
X170684000Y-122847000D02*
X169812400Y-122847000D01*
%TO.N,DAT1_N*%
X169900000Y-127700000D02*
X169223300Y-127700000D01*
X167355500Y-125202900D02*
X169223300Y-127070700D01*
X169223300Y-127070700D02*
X169223300Y-127700000D01*
%TO.N,AVAIL_N*%
X170576700Y-131700000D02*
X173668400Y-128608300D01*
X176020100Y-124897300D02*
X176020100Y-120480600D01*
X173668400Y-128608300D02*
X173668400Y-127249000D01*
X176020100Y-120480600D02*
X171722100Y-116182600D01*
X171722100Y-116182600D02*
X171722100Y-115751300D01*
X169900000Y-131700000D02*
X170576700Y-131700000D01*
X173668400Y-127249000D02*
X176020100Y-124897300D01*
%TO.N,DAT3_N*%
X168615000Y-114215000D02*
X168826100Y-114003900D01*
X168253300Y-126884200D02*
X168253300Y-128053300D01*
X164785800Y-114215000D02*
X168615000Y-114215000D01*
X168253300Y-128053300D02*
X169900000Y-129700000D01*
X164159900Y-114840900D02*
X164785800Y-114215000D01*
X164391400Y-125210800D02*
X166579900Y-125210800D01*
X166579900Y-125210800D02*
X168253300Y-126884200D01*
%TO.N,DAT2_N*%
X171743600Y-115140500D02*
X172422300Y-114461800D01*
X168208200Y-115140500D02*
X171743600Y-115140500D01*
%TO.N,GSM_RST_N*%
X174025000Y-145100000D02*
X167500000Y-145100000D01*
X167500000Y-145100000D02*
X166200000Y-143800000D01*
X166200000Y-143800000D02*
X156100000Y-143800000D01*
%TO.N,3.3V*%
X175600000Y-133800000D02*
X174923300Y-133800000D01*
X169900000Y-133700000D02*
X174823300Y-133700000D01*
X164400000Y-133700000D02*
X169900000Y-133700000D01*
X174823300Y-133700000D02*
X174923300Y-133800000D01*
%TO.N,CLK*%
X169900000Y-136700000D02*
X174823300Y-136700000D01*
X175600000Y-136800000D02*
X174923300Y-136800000D01*
X164400000Y-136700000D02*
X169900000Y-136700000D01*
X174823300Y-136700000D02*
X174923300Y-136800000D01*
%TO.N,Net-(MBCI_0-VDD)*%
X168500000Y-142200000D02*
X167889200Y-141589200D01*
X176395900Y-116603200D02*
X176395900Y-141004100D01*
X172849900Y-116530200D02*
X172801400Y-116481700D01*
X171200000Y-142200000D02*
X168500000Y-142200000D01*
X175909900Y-141490100D02*
X171909900Y-141490100D01*
X176395900Y-141004100D02*
X175909900Y-141490100D01*
X171909900Y-141490100D02*
X171200000Y-142200000D01*
X176322900Y-116530200D02*
X176395900Y-116603200D01*
X176322900Y-116530200D02*
X172849900Y-116530200D01*
X167889200Y-141589200D02*
X167889200Y-139866500D01*
%TO.N,Net-(C1-Pad2)*%
X158287500Y-113095100D02*
X152920800Y-118461800D01*
X177417900Y-116505900D02*
X174007100Y-113095100D01*
X174007100Y-113095100D02*
X158287500Y-113095100D01*
%TO.N,CPU_PWR*%
X165600900Y-73299100D02*
X165600900Y-66187900D01*
X152767300Y-86649818D02*
X152767300Y-86132700D01*
X152642500Y-87098500D02*
X152642500Y-86774618D01*
X152642500Y-86774618D02*
X152767300Y-86649818D01*
X152767300Y-86132700D02*
X165600900Y-73299100D01*
%TO.N,DRAM_PWR*%
X135303709Y-106903709D02*
X135303709Y-109068809D01*
X135303709Y-109068809D02*
X137959200Y-111724300D01*
X143967100Y-117676800D02*
X144758600Y-118468300D01*
X138213300Y-112355800D02*
X143534300Y-117676800D01*
X137959200Y-111724300D02*
X138213300Y-111724300D01*
X143534300Y-117676800D02*
X143967100Y-117676800D01*
X138213300Y-111724300D02*
X138213300Y-112355800D01*
%TO.N,UBOOT_MBCI*%
X166679100Y-115889500D02*
X167979800Y-114588800D01*
X172193900Y-113910100D02*
X172650800Y-113910100D01*
X172650800Y-113910100D02*
X173068400Y-114327700D01*
X171515200Y-114588800D02*
X172193900Y-113910100D01*
X173068400Y-114327700D02*
X173068400Y-115389300D01*
X167979800Y-114588800D02*
X171515200Y-114588800D01*
X166679100Y-115889600D02*
X166679100Y-115889500D01*
X165490900Y-115889600D02*
X166679100Y-115889600D01*
%TO.N,RESET_N*%
X167200000Y-113800000D02*
X167547800Y-113452200D01*
X160435300Y-70190900D02*
X148165500Y-82460700D01*
X148165500Y-83228500D02*
X148432800Y-83495800D01*
X163608200Y-116249000D02*
X163608200Y-114609500D01*
X164417700Y-113800000D02*
X167200000Y-113800000D01*
X163608200Y-114609500D02*
X164417700Y-113800000D01*
X148165500Y-82460700D02*
X148165500Y-83228500D01*
X172690200Y-113452200D02*
X174171900Y-114933900D01*
X174171900Y-114933900D02*
X174171900Y-115743000D01*
X164894900Y-117535700D02*
X163608200Y-116249000D01*
X148432800Y-83495800D02*
X148488800Y-83551800D01*
X152114300Y-81791800D02*
X152158600Y-81791800D01*
X150354300Y-83551800D02*
X152114300Y-81791800D01*
X167547800Y-113452200D02*
X172690200Y-113452200D01*
X148432800Y-83495800D02*
X140898900Y-91029700D01*
X162333300Y-70190900D02*
X160435300Y-70190900D01*
X148488800Y-83551800D02*
X150354300Y-83551800D01*
%TD*%
%TA.AperFunction,Conductor*%
%TO.N,GND*%
G36*
X158739743Y-122560885D02*
G01*
X158785498Y-122613689D01*
X158795442Y-122682847D01*
X158766418Y-122746402D01*
X158714918Y-122805837D01*
X158714917Y-122805838D01*
X158661102Y-122923674D01*
X158642667Y-123051900D01*
X158661102Y-123180125D01*
X158714917Y-123297961D01*
X158714918Y-123297963D01*
X158799751Y-123395867D01*
X158908731Y-123465904D01*
X159020226Y-123498641D01*
X159033025Y-123502399D01*
X159033027Y-123502400D01*
X159033028Y-123502400D01*
X159162573Y-123502400D01*
X159162573Y-123502399D01*
X159286869Y-123465904D01*
X159395849Y-123395867D01*
X159439753Y-123345197D01*
X159498531Y-123307423D01*
X159533467Y-123302400D01*
X167529777Y-123302400D01*
X167596816Y-123322085D01*
X167617458Y-123338719D01*
X169525656Y-125246917D01*
X169559141Y-125308240D01*
X169560713Y-125352242D01*
X169556867Y-125378996D01*
X169556867Y-125378999D01*
X169575302Y-125507225D01*
X169615674Y-125595625D01*
X169629118Y-125625063D01*
X169690477Y-125695876D01*
X169707392Y-125715398D01*
X169713951Y-125722967D01*
X169822931Y-125793004D01*
X169887825Y-125812058D01*
X169947225Y-125829499D01*
X169947227Y-125829500D01*
X169947228Y-125829500D01*
X170076773Y-125829500D01*
X170076773Y-125829499D01*
X170173225Y-125801179D01*
X170201066Y-125793005D01*
X170201066Y-125793004D01*
X170201069Y-125793004D01*
X170201070Y-125793002D01*
X170209131Y-125789322D01*
X170210266Y-125791809D01*
X170263781Y-125776087D01*
X170330823Y-125795761D01*
X170376586Y-125848558D01*
X170387800Y-125900087D01*
X170387800Y-126000500D01*
X170368115Y-126067539D01*
X170315311Y-126113294D01*
X170263800Y-126124500D01*
X169460178Y-126124500D01*
X169416282Y-126133231D01*
X169416275Y-126133234D01*
X169366496Y-126166495D01*
X169366495Y-126166496D01*
X169333234Y-126216275D01*
X169333231Y-126216282D01*
X169324500Y-126260177D01*
X169324500Y-126518277D01*
X169304815Y-126585316D01*
X169252011Y-126631071D01*
X169182853Y-126641015D01*
X169119297Y-126611990D01*
X169112819Y-126605958D01*
X167841843Y-125334982D01*
X167808358Y-125273659D01*
X167806786Y-125229653D01*
X167807082Y-125227596D01*
X167810633Y-125202900D01*
X167792197Y-125074674D01*
X167738382Y-124956837D01*
X167653549Y-124858933D01*
X167544569Y-124788896D01*
X167544565Y-124788894D01*
X167544564Y-124788894D01*
X167420274Y-124752400D01*
X167420272Y-124752400D01*
X167290728Y-124752400D01*
X167290726Y-124752400D01*
X167166435Y-124788894D01*
X167166432Y-124788895D01*
X167166431Y-124788896D01*
X167135827Y-124808564D01*
X167057450Y-124858933D01*
X166972618Y-124956836D01*
X166955131Y-124995127D01*
X166909375Y-125047931D01*
X166842335Y-125067614D01*
X166775296Y-125047928D01*
X166754656Y-125031295D01*
X166721797Y-124998436D01*
X166629729Y-124960300D01*
X166629728Y-124960300D01*
X164827067Y-124960300D01*
X164760028Y-124940615D01*
X164733353Y-124917502D01*
X164689449Y-124866833D01*
X164677156Y-124858933D01*
X164580469Y-124796796D01*
X164580465Y-124796794D01*
X164580464Y-124796794D01*
X164456174Y-124760300D01*
X164456172Y-124760300D01*
X164326628Y-124760300D01*
X164326626Y-124760300D01*
X164202335Y-124796794D01*
X164202332Y-124796795D01*
X164202331Y-124796796D01*
X164164418Y-124821161D01*
X164093350Y-124866833D01*
X164008518Y-124964737D01*
X164008517Y-124964738D01*
X163954702Y-125082574D01*
X163936267Y-125210800D01*
X163954702Y-125339025D01*
X163990211Y-125416777D01*
X164008518Y-125456863D01*
X164093351Y-125554767D01*
X164202331Y-125624804D01*
X164321179Y-125659700D01*
X164326625Y-125661299D01*
X164326627Y-125661300D01*
X164326628Y-125661300D01*
X164456173Y-125661300D01*
X164456173Y-125661299D01*
X164580469Y-125624804D01*
X164689449Y-125554767D01*
X164733353Y-125504097D01*
X164792131Y-125466323D01*
X164827067Y-125461300D01*
X166421471Y-125461300D01*
X166488510Y-125480985D01*
X166534265Y-125533789D01*
X166544209Y-125602947D01*
X166515184Y-125666503D01*
X166456406Y-125704277D01*
X166456405Y-125704277D01*
X166449535Y-125706294D01*
X166449532Y-125706295D01*
X166449531Y-125706296D01*
X166398277Y-125739234D01*
X166340550Y-125776333D01*
X166255718Y-125874237D01*
X166255717Y-125874238D01*
X166201902Y-125992074D01*
X166183467Y-126120300D01*
X166201902Y-126248525D01*
X166258720Y-126372937D01*
X166268664Y-126442096D01*
X166239639Y-126505652D01*
X166233607Y-126512130D01*
X165160824Y-127584913D01*
X165099501Y-127618398D01*
X165029809Y-127613414D01*
X164973876Y-127571542D01*
X164958584Y-127544689D01*
X164915414Y-127440465D01*
X164902700Y-127409771D01*
X164898636Y-127402732D01*
X164900395Y-127401716D01*
X164879131Y-127346732D01*
X164893162Y-127278286D01*
X164925369Y-127242641D01*
X164924868Y-127242140D01*
X164933500Y-127233506D01*
X164933504Y-127233504D01*
X164966767Y-127183722D01*
X164972797Y-127153408D01*
X164975500Y-127139822D01*
X164975500Y-126260177D01*
X164966768Y-126216282D01*
X164966767Y-126216281D01*
X164966767Y-126216278D01*
X164933504Y-126166496D01*
X164933503Y-126166495D01*
X164883724Y-126133234D01*
X164883717Y-126133231D01*
X164839822Y-126124500D01*
X164839820Y-126124500D01*
X163960180Y-126124500D01*
X163960178Y-126124500D01*
X163916282Y-126133231D01*
X163916275Y-126133234D01*
X163866496Y-126166495D01*
X163866495Y-126166496D01*
X163833234Y-126216275D01*
X163833231Y-126216282D01*
X163824500Y-126260177D01*
X163824500Y-126325500D01*
X163804815Y-126392539D01*
X163752011Y-126438294D01*
X163700500Y-126449500D01*
X161845823Y-126449500D01*
X161778784Y-126429815D01*
X161758142Y-126413181D01*
X161745543Y-126400582D01*
X161712058Y-126339259D01*
X161710486Y-126295253D01*
X161712410Y-126281873D01*
X161714333Y-126268500D01*
X161695897Y-126140274D01*
X161642082Y-126022437D01*
X161557249Y-125924533D01*
X161448269Y-125854496D01*
X161448265Y-125854494D01*
X161448264Y-125854494D01*
X161323974Y-125818000D01*
X161323972Y-125818000D01*
X161194428Y-125818000D01*
X161194426Y-125818000D01*
X161070135Y-125854494D01*
X161070132Y-125854495D01*
X161070131Y-125854496D01*
X161039412Y-125874238D01*
X160961150Y-125924533D01*
X160876318Y-126022437D01*
X160876317Y-126022438D01*
X160822502Y-126140274D01*
X160804067Y-126268500D01*
X160822502Y-126396725D01*
X160862770Y-126484897D01*
X160876318Y-126514563D01*
X160924662Y-126570356D01*
X160953203Y-126603295D01*
X160961151Y-126612467D01*
X161070131Y-126682504D01*
X161170101Y-126711857D01*
X161194425Y-126718999D01*
X161194427Y-126719000D01*
X161304077Y-126719000D01*
X161371116Y-126738685D01*
X161391758Y-126755319D01*
X161548803Y-126912364D01*
X161640872Y-126950500D01*
X161740528Y-126950500D01*
X163700500Y-126950500D01*
X163767539Y-126970185D01*
X163813294Y-127022989D01*
X163824500Y-127074500D01*
X163824500Y-127139820D01*
X163824500Y-127139822D01*
X163824499Y-127139822D01*
X163833231Y-127183717D01*
X163833234Y-127183724D01*
X163866495Y-127233503D01*
X163875132Y-127242140D01*
X163874285Y-127242986D01*
X163910994Y-127286909D01*
X163919703Y-127356234D01*
X163899974Y-127401929D01*
X163901364Y-127402732D01*
X163897300Y-127409769D01*
X163839313Y-127549763D01*
X163839312Y-127549765D01*
X163819534Y-127699999D01*
X163819534Y-127700000D01*
X163839312Y-127850234D01*
X163839313Y-127850236D01*
X163895489Y-127985858D01*
X163897302Y-127990233D01*
X163989549Y-128110451D01*
X163989550Y-128110452D01*
X163989555Y-128110458D01*
X163991422Y-128112325D01*
X163992492Y-128114285D01*
X163994497Y-128116898D01*
X163994089Y-128117210D01*
X164024903Y-128173650D01*
X164019914Y-128243341D01*
X163994405Y-128283032D01*
X163994497Y-128283102D01*
X163993659Y-128284193D01*
X163991422Y-128287675D01*
X163989555Y-128289541D01*
X163960526Y-128327371D01*
X163928968Y-128368500D01*
X163897300Y-128409770D01*
X163839313Y-128549763D01*
X163839312Y-128549765D01*
X163819534Y-128699999D01*
X163819534Y-128700000D01*
X163839312Y-128850234D01*
X163839313Y-128850236D01*
X163889821Y-128972174D01*
X163897302Y-128990233D01*
X163989549Y-129110451D01*
X163989550Y-129110452D01*
X163989555Y-129110458D01*
X163991422Y-129112325D01*
X163992492Y-129114285D01*
X163994497Y-129116898D01*
X163994089Y-129117210D01*
X164024903Y-129173650D01*
X164019914Y-129243341D01*
X163994405Y-129283032D01*
X163994497Y-129283102D01*
X163993659Y-129284193D01*
X163991422Y-129287675D01*
X163989555Y-129289541D01*
X163897300Y-129409770D01*
X163839313Y-129549763D01*
X163839312Y-129549765D01*
X163819534Y-129699999D01*
X163819534Y-129700000D01*
X163839312Y-129850234D01*
X163839313Y-129850236D01*
X163880734Y-129950236D01*
X163897302Y-129990233D01*
X163989549Y-130110451D01*
X163989550Y-130110452D01*
X163989555Y-130110458D01*
X163991422Y-130112325D01*
X163992492Y-130114285D01*
X163994497Y-130116898D01*
X163994089Y-130117210D01*
X164024903Y-130173650D01*
X164019914Y-130243341D01*
X163994405Y-130283032D01*
X163994497Y-130283102D01*
X163993659Y-130284193D01*
X163991422Y-130287675D01*
X163989555Y-130289541D01*
X163897300Y-130409770D01*
X163839313Y-130549763D01*
X163839312Y-130549765D01*
X163819534Y-130699999D01*
X163819534Y-130700000D01*
X163839312Y-130850234D01*
X163839313Y-130850236D01*
X163880843Y-130950499D01*
X163897302Y-130990233D01*
X163989549Y-131110451D01*
X163989550Y-131110452D01*
X163989555Y-131110458D01*
X163991422Y-131112325D01*
X163992492Y-131114285D01*
X163994497Y-131116898D01*
X163994089Y-131117210D01*
X164024903Y-131173650D01*
X164019914Y-131243341D01*
X163994405Y-131283032D01*
X163994497Y-131283102D01*
X163993659Y-131284193D01*
X163991422Y-131287675D01*
X163989555Y-131289541D01*
X163897300Y-131409770D01*
X163839313Y-131549763D01*
X163839312Y-131549765D01*
X163819534Y-131699999D01*
X163819534Y-131700000D01*
X163839312Y-131850234D01*
X163839313Y-131850236D01*
X163880843Y-131950499D01*
X163897302Y-131990233D01*
X163989549Y-132110451D01*
X163989550Y-132110452D01*
X163989555Y-132110458D01*
X163991422Y-132112325D01*
X163992492Y-132114285D01*
X163994497Y-132116898D01*
X163994089Y-132117210D01*
X164024903Y-132173650D01*
X164019914Y-132243341D01*
X163994405Y-132283032D01*
X163994497Y-132283102D01*
X163993659Y-132284193D01*
X163991422Y-132287675D01*
X163989555Y-132289541D01*
X163897300Y-132409770D01*
X163839313Y-132549763D01*
X163839312Y-132549765D01*
X163819534Y-132699999D01*
X163819534Y-132700000D01*
X163839312Y-132850234D01*
X163839313Y-132850236D01*
X163880734Y-132950236D01*
X163897302Y-132990233D01*
X163989549Y-133110451D01*
X163989550Y-133110452D01*
X163989555Y-133110458D01*
X163991422Y-133112325D01*
X163992492Y-133114285D01*
X163994497Y-133116898D01*
X163994089Y-133117210D01*
X164024903Y-133173650D01*
X164019914Y-133243341D01*
X163994405Y-133283032D01*
X163994497Y-133283102D01*
X163993659Y-133284193D01*
X163991422Y-133287675D01*
X163989555Y-133289541D01*
X163989549Y-133289549D01*
X163912818Y-133389547D01*
X163897300Y-133409770D01*
X163839313Y-133549763D01*
X163839312Y-133549765D01*
X163819534Y-133699999D01*
X163819534Y-133700000D01*
X163839312Y-133850234D01*
X163839313Y-133850236D01*
X163897302Y-133990233D01*
X163989549Y-134110451D01*
X163989550Y-134110452D01*
X163989555Y-134110458D01*
X163991422Y-134112325D01*
X163992492Y-134114285D01*
X163994497Y-134116898D01*
X163994089Y-134117210D01*
X164024903Y-134173650D01*
X164019914Y-134243341D01*
X163994405Y-134283032D01*
X163994497Y-134283102D01*
X163993659Y-134284193D01*
X163991422Y-134287675D01*
X163989555Y-134289541D01*
X163897300Y-134409770D01*
X163839313Y-134549763D01*
X163839312Y-134549765D01*
X163819534Y-134699999D01*
X163819534Y-134700000D01*
X163839312Y-134850234D01*
X163839313Y-134850236D01*
X163880734Y-134950236D01*
X163897302Y-134990233D01*
X163989549Y-135110451D01*
X163989550Y-135110452D01*
X163989555Y-135110458D01*
X163991422Y-135112325D01*
X163992492Y-135114285D01*
X163994497Y-135116898D01*
X163994089Y-135117210D01*
X164024903Y-135173650D01*
X164019914Y-135243341D01*
X163994405Y-135283032D01*
X163994497Y-135283102D01*
X163993659Y-135284193D01*
X163991422Y-135287675D01*
X163989555Y-135289541D01*
X163897300Y-135409770D01*
X163839313Y-135549763D01*
X163839312Y-135549765D01*
X163819534Y-135699999D01*
X163819534Y-135700000D01*
X163839312Y-135850234D01*
X163839313Y-135850236D01*
X163880734Y-135950236D01*
X163897302Y-135990233D01*
X163989549Y-136110451D01*
X163989550Y-136110452D01*
X163989555Y-136110458D01*
X163991422Y-136112325D01*
X163992492Y-136114285D01*
X163994497Y-136116898D01*
X163994089Y-136117210D01*
X164024903Y-136173650D01*
X164019914Y-136243341D01*
X163994405Y-136283032D01*
X163994497Y-136283102D01*
X163993659Y-136284193D01*
X163991422Y-136287675D01*
X163989555Y-136289541D01*
X163989549Y-136289549D01*
X163912818Y-136389547D01*
X163897300Y-136409770D01*
X163839313Y-136549763D01*
X163839312Y-136549765D01*
X163819534Y-136699999D01*
X163819534Y-136700000D01*
X163839312Y-136850234D01*
X163839313Y-136850236D01*
X163897302Y-136990233D01*
X163989549Y-137110451D01*
X163989550Y-137110452D01*
X163989555Y-137110458D01*
X163991422Y-137112325D01*
X163992492Y-137114285D01*
X163994497Y-137116898D01*
X163994089Y-137117210D01*
X164024903Y-137173650D01*
X164019914Y-137243341D01*
X163994405Y-137283032D01*
X163994497Y-137283102D01*
X163993659Y-137284193D01*
X163991422Y-137287675D01*
X163989555Y-137289541D01*
X163897300Y-137409770D01*
X163839313Y-137549763D01*
X163839312Y-137549765D01*
X163819534Y-137699999D01*
X163819534Y-137700000D01*
X163839312Y-137850234D01*
X163839313Y-137850236D01*
X163880734Y-137950236D01*
X163897302Y-137990233D01*
X163989549Y-138110451D01*
X163989550Y-138110452D01*
X163989555Y-138110458D01*
X163991422Y-138112325D01*
X163992492Y-138114285D01*
X163994497Y-138116898D01*
X163994089Y-138117210D01*
X164024903Y-138173650D01*
X164019914Y-138243341D01*
X163994405Y-138283032D01*
X163994497Y-138283102D01*
X163993659Y-138284193D01*
X163991422Y-138287675D01*
X163989555Y-138289541D01*
X163897300Y-138409770D01*
X163839313Y-138549763D01*
X163839312Y-138549765D01*
X163819534Y-138699999D01*
X163819534Y-138700000D01*
X163839312Y-138850234D01*
X163839313Y-138850236D01*
X163880734Y-138950236D01*
X163897302Y-138990233D01*
X163989549Y-139110451D01*
X163989550Y-139110452D01*
X163989555Y-139110458D01*
X163991422Y-139112325D01*
X163992492Y-139114285D01*
X163994497Y-139116898D01*
X163994089Y-139117210D01*
X164024903Y-139173650D01*
X164019914Y-139243341D01*
X163994405Y-139283032D01*
X163994497Y-139283102D01*
X163993659Y-139284193D01*
X163991422Y-139287675D01*
X163989555Y-139289541D01*
X163897300Y-139409770D01*
X163839313Y-139549763D01*
X163839312Y-139549765D01*
X163819534Y-139699999D01*
X163819534Y-139700000D01*
X163839312Y-139850234D01*
X163841417Y-139858087D01*
X163839339Y-139858643D01*
X163845594Y-139916844D01*
X163814317Y-139979322D01*
X163796454Y-139995139D01*
X163777642Y-140008807D01*
X163777639Y-140008809D01*
X163647536Y-140153305D01*
X163550317Y-140321692D01*
X163550316Y-140321693D01*
X163508628Y-140449999D01*
X163508628Y-140450000D01*
X164350272Y-140450000D01*
X164258386Y-140488060D01*
X164188060Y-140558386D01*
X164150000Y-140650272D01*
X164150000Y-140749728D01*
X164188060Y-140841614D01*
X164258386Y-140911940D01*
X164350272Y-140950000D01*
X164449728Y-140950000D01*
X164541614Y-140911940D01*
X164611940Y-140841614D01*
X164650000Y-140749728D01*
X164650000Y-140650272D01*
X164611940Y-140558386D01*
X164541614Y-140488060D01*
X164449728Y-140450000D01*
X165291372Y-140450000D01*
X165291371Y-140449999D01*
X165249683Y-140321693D01*
X165249682Y-140321692D01*
X165152463Y-140153305D01*
X165152464Y-140153305D01*
X165022355Y-140008805D01*
X165003550Y-139995143D01*
X164960883Y-139939814D01*
X164954903Y-139870200D01*
X164958600Y-139858092D01*
X164958583Y-139858088D01*
X164960687Y-139850235D01*
X164980466Y-139700001D01*
X164980466Y-139699999D01*
X164969991Y-139620437D01*
X164960687Y-139549764D01*
X164902698Y-139409767D01*
X164810451Y-139289549D01*
X164810448Y-139289546D01*
X164810446Y-139289544D01*
X164808583Y-139287681D01*
X164807513Y-139285721D01*
X164805503Y-139283102D01*
X164805911Y-139282788D01*
X164775098Y-139226358D01*
X164780082Y-139156666D01*
X164805594Y-139116968D01*
X164805503Y-139116898D01*
X164806347Y-139115797D01*
X164808583Y-139112319D01*
X164810446Y-139110455D01*
X164810446Y-139110454D01*
X164810451Y-139110451D01*
X164902698Y-138990233D01*
X164960687Y-138850236D01*
X164980466Y-138700000D01*
X164960687Y-138549764D01*
X164902698Y-138409767D01*
X164810451Y-138289549D01*
X164810448Y-138289546D01*
X164810446Y-138289544D01*
X164808583Y-138287681D01*
X164807513Y-138285721D01*
X164805503Y-138283102D01*
X164805911Y-138282788D01*
X164775098Y-138226358D01*
X164780082Y-138156666D01*
X164805594Y-138116968D01*
X164805503Y-138116898D01*
X164806347Y-138115797D01*
X164808583Y-138112319D01*
X164810446Y-138110455D01*
X164810446Y-138110454D01*
X164810451Y-138110451D01*
X164902698Y-137990233D01*
X164960687Y-137850236D01*
X164980466Y-137700000D01*
X164960687Y-137549764D01*
X164902698Y-137409767D01*
X164810451Y-137289549D01*
X164810448Y-137289546D01*
X164810446Y-137289544D01*
X164808583Y-137287681D01*
X164807513Y-137285721D01*
X164805503Y-137283102D01*
X164805911Y-137282788D01*
X164775098Y-137226358D01*
X164780082Y-137156666D01*
X164805594Y-137116968D01*
X164805503Y-137116898D01*
X164806347Y-137115797D01*
X164808583Y-137112319D01*
X164810446Y-137110455D01*
X164810446Y-137110454D01*
X164810451Y-137110451D01*
X164895961Y-136999011D01*
X164952388Y-136957811D01*
X164994336Y-136950500D01*
X169305664Y-136950500D01*
X169372703Y-136970185D01*
X169404037Y-136999010D01*
X169489549Y-137110451D01*
X169489550Y-137110452D01*
X169489555Y-137110458D01*
X169491422Y-137112325D01*
X169492492Y-137114285D01*
X169494497Y-137116898D01*
X169494089Y-137117210D01*
X169524903Y-137173650D01*
X169519914Y-137243341D01*
X169494405Y-137283032D01*
X169494497Y-137283102D01*
X169493659Y-137284193D01*
X169491422Y-137287675D01*
X169489555Y-137289541D01*
X169397300Y-137409770D01*
X169339313Y-137549763D01*
X169339312Y-137549765D01*
X169319534Y-137699999D01*
X169319534Y-137700000D01*
X169339312Y-137850234D01*
X169339313Y-137850236D01*
X169380734Y-137950236D01*
X169397302Y-137990233D01*
X169489549Y-138110451D01*
X169489550Y-138110452D01*
X169489555Y-138110458D01*
X169491422Y-138112325D01*
X169492492Y-138114285D01*
X169494497Y-138116898D01*
X169494089Y-138117210D01*
X169524903Y-138173650D01*
X169519914Y-138243341D01*
X169494405Y-138283032D01*
X169494497Y-138283102D01*
X169493659Y-138284193D01*
X169491422Y-138287675D01*
X169489555Y-138289541D01*
X169397300Y-138409770D01*
X169339313Y-138549763D01*
X169339312Y-138549765D01*
X169319534Y-138699999D01*
X169319534Y-138700000D01*
X169339312Y-138850234D01*
X169339313Y-138850236D01*
X169380734Y-138950236D01*
X169397302Y-138990233D01*
X169489549Y-139110451D01*
X169489550Y-139110452D01*
X169489555Y-139110458D01*
X169491422Y-139112325D01*
X169492492Y-139114285D01*
X169494497Y-139116898D01*
X169494089Y-139117210D01*
X169524903Y-139173650D01*
X169519914Y-139243341D01*
X169494405Y-139283032D01*
X169494497Y-139283102D01*
X169493659Y-139284193D01*
X169491422Y-139287675D01*
X169489555Y-139289541D01*
X169397300Y-139409770D01*
X169339313Y-139549763D01*
X169339312Y-139549765D01*
X169319534Y-139699999D01*
X169319534Y-139700000D01*
X169339312Y-139850234D01*
X169341417Y-139858087D01*
X169339339Y-139858643D01*
X169345594Y-139916844D01*
X169314317Y-139979322D01*
X169296454Y-139995139D01*
X169277642Y-140008807D01*
X169277639Y-140008809D01*
X169147536Y-140153305D01*
X169050317Y-140321692D01*
X169050316Y-140321693D01*
X169008628Y-140449999D01*
X169008628Y-140450000D01*
X169850272Y-140450000D01*
X169758386Y-140488060D01*
X169688060Y-140558386D01*
X169650000Y-140650272D01*
X169650000Y-140749728D01*
X169688060Y-140841614D01*
X169758386Y-140911940D01*
X169850272Y-140950000D01*
X169949728Y-140950000D01*
X170041614Y-140911940D01*
X170111940Y-140841614D01*
X170150000Y-140749728D01*
X170150000Y-140650272D01*
X170111940Y-140558386D01*
X170041614Y-140488060D01*
X169949728Y-140450000D01*
X170791372Y-140450000D01*
X170791371Y-140449999D01*
X170749683Y-140321693D01*
X170749682Y-140321692D01*
X170652463Y-140153305D01*
X170652464Y-140153305D01*
X170522355Y-140008805D01*
X170503550Y-139995143D01*
X170460883Y-139939814D01*
X170454903Y-139870200D01*
X170458600Y-139858092D01*
X170458583Y-139858088D01*
X170460687Y-139850235D01*
X170480466Y-139700001D01*
X170480466Y-139699999D01*
X170469991Y-139620437D01*
X170460687Y-139549764D01*
X170402698Y-139409767D01*
X170310451Y-139289549D01*
X170310448Y-139289546D01*
X170310446Y-139289544D01*
X170308583Y-139287681D01*
X170307513Y-139285721D01*
X170305503Y-139283102D01*
X170305911Y-139282788D01*
X170275098Y-139226358D01*
X170280082Y-139156666D01*
X170305594Y-139116968D01*
X170305503Y-139116898D01*
X170306347Y-139115797D01*
X170308583Y-139112319D01*
X170310446Y-139110455D01*
X170310446Y-139110454D01*
X170310451Y-139110451D01*
X170402698Y-138990233D01*
X170460687Y-138850236D01*
X170480466Y-138700000D01*
X170460687Y-138549764D01*
X170402698Y-138409767D01*
X170310451Y-138289549D01*
X170310448Y-138289546D01*
X170310446Y-138289544D01*
X170308583Y-138287681D01*
X170307513Y-138285721D01*
X170305503Y-138283102D01*
X170305911Y-138282788D01*
X170275098Y-138226358D01*
X170280082Y-138156666D01*
X170305594Y-138116968D01*
X170305503Y-138116898D01*
X170306347Y-138115797D01*
X170308583Y-138112319D01*
X170310446Y-138110455D01*
X170310446Y-138110454D01*
X170310451Y-138110451D01*
X170402698Y-137990233D01*
X170460687Y-137850236D01*
X170480466Y-137700000D01*
X170460687Y-137549764D01*
X170402698Y-137409767D01*
X170310451Y-137289549D01*
X170310448Y-137289546D01*
X170310446Y-137289544D01*
X170308583Y-137287681D01*
X170307513Y-137285721D01*
X170305503Y-137283102D01*
X170305911Y-137282788D01*
X170275098Y-137226358D01*
X170280082Y-137156666D01*
X170305594Y-137116968D01*
X170305503Y-137116898D01*
X170306347Y-137115797D01*
X170308583Y-137112319D01*
X170310446Y-137110455D01*
X170310446Y-137110454D01*
X170310451Y-137110451D01*
X170395961Y-136999011D01*
X170452388Y-136957811D01*
X170494336Y-136950500D01*
X174668177Y-136950500D01*
X174735216Y-136970185D01*
X174755858Y-136986819D01*
X174781403Y-137012364D01*
X174873472Y-137050500D01*
X174973127Y-137050500D01*
X175005664Y-137050500D01*
X175072703Y-137070185D01*
X175104037Y-137099010D01*
X175189549Y-137210451D01*
X175189550Y-137210452D01*
X175189555Y-137210458D01*
X175191422Y-137212325D01*
X175192492Y-137214285D01*
X175194497Y-137216898D01*
X175194089Y-137217210D01*
X175224903Y-137273650D01*
X175219914Y-137343341D01*
X175194405Y-137383032D01*
X175194497Y-137383102D01*
X175193659Y-137384193D01*
X175191422Y-137387675D01*
X175189555Y-137389541D01*
X175097300Y-137509770D01*
X175039313Y-137649763D01*
X175039312Y-137649765D01*
X175019534Y-137799999D01*
X175019534Y-137800000D01*
X175039312Y-137950234D01*
X175039313Y-137950236D01*
X175097302Y-138090233D01*
X175189549Y-138210451D01*
X175189550Y-138210452D01*
X175189555Y-138210458D01*
X175191422Y-138212325D01*
X175192492Y-138214285D01*
X175194497Y-138216898D01*
X175194089Y-138217210D01*
X175224903Y-138273650D01*
X175219914Y-138343341D01*
X175194405Y-138383032D01*
X175194497Y-138383102D01*
X175193659Y-138384193D01*
X175191422Y-138387675D01*
X175189555Y-138389541D01*
X175097300Y-138509770D01*
X175039313Y-138649763D01*
X175039312Y-138649765D01*
X175019534Y-138799999D01*
X175019534Y-138800000D01*
X175039312Y-138950234D01*
X175039313Y-138950236D01*
X175097302Y-139090233D01*
X175189549Y-139210451D01*
X175189550Y-139210452D01*
X175189555Y-139210458D01*
X175191422Y-139212325D01*
X175192492Y-139214285D01*
X175194497Y-139216898D01*
X175194089Y-139217210D01*
X175224903Y-139273650D01*
X175219914Y-139343341D01*
X175194405Y-139383032D01*
X175194497Y-139383102D01*
X175193659Y-139384193D01*
X175191422Y-139387675D01*
X175189555Y-139389541D01*
X175097300Y-139509770D01*
X175039313Y-139649763D01*
X175039312Y-139649765D01*
X175019534Y-139799999D01*
X175019534Y-139800000D01*
X175039312Y-139950234D01*
X175041417Y-139958087D01*
X175039339Y-139958643D01*
X175045594Y-140016844D01*
X175014317Y-140079322D01*
X174996454Y-140095139D01*
X174977642Y-140108807D01*
X174977639Y-140108809D01*
X174847536Y-140253305D01*
X174750317Y-140421692D01*
X174750316Y-140421693D01*
X174708628Y-140549999D01*
X174708628Y-140550000D01*
X175550272Y-140550000D01*
X175458386Y-140588060D01*
X175388060Y-140658386D01*
X175350000Y-140750272D01*
X175350000Y-140849728D01*
X175388060Y-140941614D01*
X175458386Y-141011940D01*
X175550272Y-141050000D01*
X175649728Y-141050000D01*
X175741614Y-141011940D01*
X175811940Y-140941614D01*
X175850000Y-140849728D01*
X175850000Y-141115600D01*
X175830315Y-141182639D01*
X175777511Y-141228394D01*
X175726000Y-141239600D01*
X175474000Y-141239600D01*
X175406961Y-141219915D01*
X175361206Y-141167111D01*
X175350000Y-141115600D01*
X175350000Y-141050000D01*
X174708627Y-141050000D01*
X174717492Y-141077283D01*
X174719487Y-141147124D01*
X174683406Y-141206956D01*
X174620705Y-141237784D01*
X174599561Y-141239600D01*
X171860070Y-141239600D01*
X171768002Y-141277736D01*
X171768001Y-141277737D01*
X171132558Y-141913181D01*
X171071235Y-141946666D01*
X171044877Y-141949500D01*
X168655122Y-141949500D01*
X168588083Y-141929815D01*
X168567441Y-141913181D01*
X168176019Y-141521758D01*
X168142534Y-141460435D01*
X168139700Y-141434077D01*
X168139700Y-140950000D01*
X169008628Y-140950000D01*
X169050316Y-141078306D01*
X169050317Y-141078307D01*
X169147536Y-141246694D01*
X169147535Y-141246694D01*
X169277639Y-141391190D01*
X169277642Y-141391192D01*
X169434950Y-141505484D01*
X169612587Y-141584573D01*
X169649999Y-141592524D01*
X169650000Y-141592524D01*
X170150000Y-141592524D01*
X170187412Y-141584573D01*
X170365049Y-141505484D01*
X170522357Y-141391192D01*
X170522360Y-141391190D01*
X170652463Y-141246694D01*
X170749682Y-141078307D01*
X170749683Y-141078306D01*
X170791372Y-140950000D01*
X170150000Y-140950000D01*
X170150000Y-141592524D01*
X169650000Y-141592524D01*
X169650000Y-140950000D01*
X169008628Y-140950000D01*
X168139700Y-140950000D01*
X168139700Y-140308296D01*
X168159385Y-140241257D01*
X168182502Y-140214579D01*
X168187238Y-140210473D01*
X168187249Y-140210467D01*
X168272082Y-140112563D01*
X168325897Y-139994726D01*
X168344333Y-139866500D01*
X168325897Y-139738274D01*
X168272082Y-139620437D01*
X168187249Y-139522533D01*
X168078269Y-139452496D01*
X168078265Y-139452494D01*
X168078264Y-139452494D01*
X167953974Y-139416000D01*
X167953972Y-139416000D01*
X167824428Y-139416000D01*
X167824426Y-139416000D01*
X167700135Y-139452494D01*
X167700132Y-139452495D01*
X167700131Y-139452496D01*
X167648877Y-139485434D01*
X167591150Y-139522533D01*
X167506318Y-139620437D01*
X167506317Y-139620438D01*
X167452502Y-139738274D01*
X167434067Y-139866500D01*
X167452502Y-139994725D01*
X167506317Y-140112561D01*
X167506320Y-140112567D01*
X167575465Y-140192365D01*
X167591151Y-140210467D01*
X167591157Y-140210471D01*
X167595898Y-140214579D01*
X167633675Y-140273356D01*
X167638700Y-140308296D01*
X167638700Y-141639029D01*
X167676836Y-141731097D01*
X168248359Y-142302619D01*
X168281844Y-142363942D01*
X168276860Y-142433633D01*
X168234989Y-142489567D01*
X168169524Y-142513984D01*
X168160678Y-142514300D01*
X159337923Y-142514300D01*
X159270884Y-142494615D01*
X159250242Y-142477981D01*
X157722261Y-140950000D01*
X163508628Y-140950000D01*
X163550316Y-141078306D01*
X163550317Y-141078307D01*
X163647536Y-141246694D01*
X163647535Y-141246694D01*
X163777639Y-141391190D01*
X163777642Y-141391192D01*
X163934950Y-141505484D01*
X164112587Y-141584573D01*
X164149999Y-141592524D01*
X164150000Y-141592524D01*
X164650000Y-141592524D01*
X164687412Y-141584573D01*
X164865049Y-141505484D01*
X165022357Y-141391192D01*
X165022360Y-141391190D01*
X165152463Y-141246694D01*
X165249682Y-141078307D01*
X165249683Y-141078306D01*
X165291372Y-140950000D01*
X164650000Y-140950000D01*
X164650000Y-141592524D01*
X164150000Y-141592524D01*
X164150000Y-140950000D01*
X163508628Y-140950000D01*
X157722261Y-140950000D01*
X147772261Y-131000000D01*
X160644867Y-131000000D01*
X160663302Y-131128225D01*
X160703941Y-131217210D01*
X160717118Y-131246063D01*
X160763854Y-131300000D01*
X160801408Y-131343341D01*
X160801951Y-131343967D01*
X160910931Y-131414004D01*
X161035225Y-131450499D01*
X161035227Y-131450500D01*
X161035228Y-131450500D01*
X161164773Y-131450500D01*
X161164773Y-131450499D01*
X161289069Y-131414004D01*
X161398049Y-131343967D01*
X161482882Y-131246063D01*
X161536697Y-131128226D01*
X161555133Y-131000000D01*
X161536697Y-130871774D01*
X161482882Y-130753937D01*
X161398049Y-130656033D01*
X161289069Y-130585996D01*
X161289065Y-130585994D01*
X161289064Y-130585994D01*
X161164774Y-130549500D01*
X161164772Y-130549500D01*
X161035228Y-130549500D01*
X161035226Y-130549500D01*
X160910935Y-130585994D01*
X160910932Y-130585995D01*
X160910931Y-130585996D01*
X160869133Y-130612858D01*
X160801950Y-130656033D01*
X160717118Y-130753937D01*
X160717117Y-130753938D01*
X160663302Y-130871774D01*
X160644867Y-131000000D01*
X147772261Y-131000000D01*
X145438242Y-128665981D01*
X145404757Y-128604658D01*
X145409741Y-128534966D01*
X145451613Y-128479033D01*
X145517077Y-128454616D01*
X145525923Y-128454300D01*
X145712377Y-128454300D01*
X145779416Y-128473985D01*
X145800058Y-128490619D01*
X146116136Y-128806697D01*
X146186603Y-128877164D01*
X146278672Y-128915300D01*
X146278674Y-128915300D01*
X146797826Y-128915300D01*
X146797828Y-128915300D01*
X146889897Y-128877164D01*
X147324557Y-128442501D01*
X147324560Y-128442500D01*
X147341996Y-128425064D01*
X147341997Y-128425064D01*
X147412464Y-128354597D01*
X147450600Y-128262528D01*
X147450600Y-127666791D01*
X147470285Y-127599752D01*
X147523089Y-127553997D01*
X147592247Y-127544053D01*
X147646386Y-127568777D01*
X147647290Y-127567372D01*
X147654750Y-127572166D01*
X147654751Y-127572167D01*
X147763731Y-127642204D01*
X147838522Y-127664164D01*
X147888025Y-127678699D01*
X147888027Y-127678700D01*
X147888028Y-127678700D01*
X148017573Y-127678700D01*
X148017573Y-127678699D01*
X148141869Y-127642204D01*
X148250849Y-127572167D01*
X148335682Y-127474263D01*
X148389497Y-127356426D01*
X148407933Y-127228200D01*
X148407089Y-127222333D01*
X148405567Y-127211747D01*
X148404086Y-127201447D01*
X148414027Y-127132290D01*
X148439139Y-127096120D01*
X150211964Y-125323297D01*
X150250100Y-125231228D01*
X150250100Y-125227596D01*
X150252338Y-125219972D01*
X150252482Y-125219251D01*
X150252546Y-125219263D01*
X150269785Y-125160557D01*
X150292902Y-125133879D01*
X150297638Y-125129773D01*
X150297649Y-125129767D01*
X150369626Y-125046700D01*
X150382479Y-125031867D01*
X150382479Y-125031865D01*
X150382482Y-125031863D01*
X150436297Y-124914026D01*
X150454733Y-124785800D01*
X150436297Y-124657574D01*
X150382482Y-124539737D01*
X150297649Y-124441833D01*
X150188669Y-124371796D01*
X150188665Y-124371794D01*
X150188664Y-124371794D01*
X150064374Y-124335300D01*
X150064372Y-124335300D01*
X149934828Y-124335300D01*
X149934826Y-124335300D01*
X149810535Y-124371794D01*
X149810532Y-124371795D01*
X149810531Y-124371796D01*
X149783598Y-124389105D01*
X149701550Y-124441833D01*
X149616718Y-124539737D01*
X149616717Y-124539738D01*
X149562902Y-124657574D01*
X149544467Y-124785800D01*
X149562902Y-124914025D01*
X149615379Y-125028932D01*
X149616718Y-125031863D01*
X149623822Y-125040061D01*
X149652848Y-125103616D01*
X149642905Y-125172775D01*
X149617791Y-125208946D01*
X149353633Y-125473104D01*
X149292310Y-125506589D01*
X149222618Y-125501605D01*
X149166685Y-125459733D01*
X149143214Y-125403067D01*
X149143070Y-125402067D01*
X149138097Y-125367474D01*
X149084282Y-125249637D01*
X148999449Y-125151733D01*
X148999448Y-125151732D01*
X148999447Y-125151731D01*
X148896273Y-125085425D01*
X148850518Y-125032622D01*
X148840574Y-124963463D01*
X148869599Y-124899907D01*
X148875620Y-124893440D01*
X150123015Y-123646043D01*
X150184336Y-123612560D01*
X150254027Y-123617544D01*
X150278353Y-123631974D01*
X150279190Y-123630672D01*
X150286650Y-123635466D01*
X150286651Y-123635467D01*
X150395631Y-123705504D01*
X150519925Y-123741999D01*
X150519927Y-123742000D01*
X150519928Y-123742000D01*
X150649473Y-123742000D01*
X150649473Y-123741999D01*
X150773769Y-123705504D01*
X150882749Y-123635467D01*
X150967582Y-123537563D01*
X151021397Y-123419726D01*
X151039833Y-123291500D01*
X151021397Y-123163274D01*
X150999218Y-123114711D01*
X150989275Y-123045554D01*
X151018300Y-122981998D01*
X151077077Y-122944223D01*
X151112013Y-122939200D01*
X151575677Y-122939200D01*
X151642716Y-122958885D01*
X151688471Y-123011688D01*
X151726047Y-123093966D01*
X151727918Y-123098063D01*
X151787016Y-123166267D01*
X151808418Y-123190967D01*
X151812751Y-123195967D01*
X151921731Y-123266004D01*
X152046025Y-123302499D01*
X152046027Y-123302500D01*
X152046028Y-123302500D01*
X152175573Y-123302500D01*
X152175573Y-123302499D01*
X152299869Y-123266004D01*
X152408849Y-123195967D01*
X152493682Y-123098063D01*
X152547497Y-122980226D01*
X152565933Y-122852000D01*
X152562086Y-122825247D01*
X152572027Y-122756090D01*
X152597137Y-122719923D01*
X152739543Y-122577516D01*
X152800866Y-122544034D01*
X152827223Y-122541200D01*
X158672704Y-122541200D01*
X158739743Y-122560885D01*
G37*
%TD.AperFunction*%
%TA.AperFunction,Conductor*%
G36*
X175793039Y-140569685D02*
G01*
X175838794Y-140622489D01*
X175850000Y-140674000D01*
X175850000Y-140750272D01*
X175811940Y-140658386D01*
X175741614Y-140588060D01*
X175649728Y-140550000D01*
X175726000Y-140550000D01*
X175793039Y-140569685D01*
G37*
%TD.AperFunction*%
%TA.AperFunction,Conductor*%
G36*
X146668834Y-101785840D02*
G01*
X146724767Y-101827712D01*
X146749184Y-101893176D01*
X146749500Y-101902022D01*
X146749500Y-109949829D01*
X146774519Y-110010229D01*
X146787636Y-110041897D01*
X147619292Y-110873553D01*
X148413656Y-111667916D01*
X148447141Y-111729239D01*
X148448713Y-111773240D01*
X148444867Y-111799995D01*
X148444867Y-111799999D01*
X148463302Y-111928225D01*
X148489686Y-111985996D01*
X148517118Y-112046063D01*
X148601951Y-112143967D01*
X148710931Y-112214004D01*
X148759368Y-112228226D01*
X148835225Y-112250499D01*
X148835227Y-112250500D01*
X148835228Y-112250500D01*
X148964773Y-112250500D01*
X148964773Y-112250499D01*
X149089069Y-112214004D01*
X149198049Y-112143967D01*
X149282882Y-112046063D01*
X149336697Y-111928226D01*
X149355133Y-111800000D01*
X149336697Y-111671774D01*
X149282882Y-111553937D01*
X149198049Y-111456033D01*
X149089069Y-111385996D01*
X149089065Y-111385994D01*
X149089064Y-111385994D01*
X148964774Y-111349500D01*
X148964772Y-111349500D01*
X148855122Y-111349500D01*
X148788083Y-111329815D01*
X148767441Y-111313181D01*
X147286819Y-109832558D01*
X147253334Y-109771235D01*
X147250500Y-109744877D01*
X147250500Y-107024850D01*
X147270185Y-106957811D01*
X147322989Y-106912056D01*
X147392147Y-106902112D01*
X147455703Y-106931137D01*
X147489060Y-106977395D01*
X147498836Y-107000997D01*
X152229603Y-111731764D01*
X152321672Y-111769900D01*
X152421327Y-111769900D01*
X154798333Y-111769900D01*
X154865372Y-111789585D01*
X154892047Y-111812698D01*
X154926556Y-111852525D01*
X154935951Y-111863367D01*
X155044931Y-111933404D01*
X155160462Y-111967326D01*
X155169225Y-111969899D01*
X155169227Y-111969900D01*
X155169228Y-111969900D01*
X155298773Y-111969900D01*
X155298773Y-111969899D01*
X155423069Y-111933404D01*
X155532049Y-111863367D01*
X155616882Y-111765463D01*
X155670697Y-111647626D01*
X155689133Y-111519400D01*
X155670697Y-111391174D01*
X155616882Y-111273337D01*
X155532049Y-111175433D01*
X155423069Y-111105396D01*
X155423065Y-111105394D01*
X155423064Y-111105394D01*
X155298774Y-111068900D01*
X155298772Y-111068900D01*
X155169228Y-111068900D01*
X155169226Y-111068900D01*
X155044935Y-111105394D01*
X155044932Y-111105395D01*
X155044931Y-111105396D01*
X154993677Y-111138334D01*
X154935950Y-111175433D01*
X154892047Y-111226102D01*
X154833269Y-111263877D01*
X154798333Y-111268900D01*
X152526623Y-111268900D01*
X152459584Y-111249215D01*
X152438942Y-111232581D01*
X151886042Y-110679681D01*
X151852557Y-110618358D01*
X151857541Y-110548666D01*
X151899413Y-110492733D01*
X151964877Y-110468316D01*
X151973723Y-110468000D01*
X171781677Y-110468000D01*
X171848716Y-110487685D01*
X171869358Y-110504319D01*
X173997958Y-112632919D01*
X174031443Y-112694242D01*
X174026459Y-112763934D01*
X173984587Y-112819867D01*
X173919123Y-112844284D01*
X173910277Y-112844600D01*
X158237670Y-112844600D01*
X158145602Y-112882736D01*
X158145601Y-112882737D01*
X158075135Y-112953204D01*
X153053357Y-117974981D01*
X152992034Y-118008466D01*
X152965676Y-118011300D01*
X152856026Y-118011300D01*
X152731735Y-118047794D01*
X152731732Y-118047795D01*
X152731731Y-118047796D01*
X152707706Y-118063236D01*
X152622750Y-118117833D01*
X152537918Y-118215737D01*
X152537917Y-118215738D01*
X152484102Y-118333574D01*
X152465667Y-118461800D01*
X152484102Y-118590025D01*
X152537917Y-118707861D01*
X152537918Y-118707863D01*
X152622751Y-118805767D01*
X152731731Y-118875804D01*
X152731733Y-118875804D01*
X152735280Y-118878084D01*
X152781035Y-118930888D01*
X152790979Y-119000046D01*
X152761954Y-119063602D01*
X152703176Y-119101377D01*
X152668241Y-119106400D01*
X152573222Y-119106400D01*
X152506183Y-119086715D01*
X152485541Y-119070081D01*
X151660180Y-118244720D01*
X151626695Y-118183397D01*
X151631679Y-118113705D01*
X151673551Y-118057772D01*
X151689256Y-118048452D01*
X151694462Y-118045105D01*
X151694469Y-118045104D01*
X151803449Y-117975067D01*
X151888282Y-117877163D01*
X151942097Y-117759326D01*
X151960533Y-117631100D01*
X151942097Y-117502874D01*
X151888282Y-117385037D01*
X151803449Y-117287133D01*
X151803448Y-117287132D01*
X151803447Y-117287131D01*
X151798696Y-117283014D01*
X151760923Y-117224236D01*
X151756559Y-117193890D01*
X151755900Y-117190575D01*
X151755900Y-117190572D01*
X151717764Y-117098503D01*
X151647297Y-117028036D01*
X149052343Y-114433082D01*
X149018858Y-114371759D01*
X149017286Y-114327753D01*
X149018600Y-114318615D01*
X149021133Y-114301000D01*
X149002697Y-114172774D01*
X148948882Y-114054937D01*
X148864049Y-113957033D01*
X148755069Y-113886996D01*
X148755065Y-113886994D01*
X148755064Y-113886994D01*
X148630774Y-113850500D01*
X148630772Y-113850500D01*
X148501228Y-113850500D01*
X148501226Y-113850500D01*
X148376935Y-113886994D01*
X148376932Y-113886995D01*
X148376931Y-113886996D01*
X148344399Y-113907903D01*
X148267950Y-113957033D01*
X148183118Y-114054937D01*
X148183117Y-114054938D01*
X148129302Y-114172775D01*
X148129302Y-114172776D01*
X148128457Y-114178652D01*
X148099428Y-114242206D01*
X148040647Y-114279976D01*
X147970778Y-114279972D01*
X147918039Y-114248678D01*
X146848661Y-113179300D01*
X147476067Y-113179300D01*
X147494502Y-113307525D01*
X147530339Y-113385996D01*
X147548318Y-113425363D01*
X147633151Y-113523267D01*
X147742131Y-113593304D01*
X147866425Y-113629799D01*
X147866427Y-113629800D01*
X147866428Y-113629800D01*
X147995973Y-113629800D01*
X147995973Y-113629799D01*
X148120269Y-113593304D01*
X148229249Y-113523267D01*
X148273153Y-113472597D01*
X148331931Y-113434823D01*
X148366867Y-113429800D01*
X149464277Y-113429800D01*
X149531316Y-113449485D01*
X149551958Y-113466119D01*
X152508803Y-116422964D01*
X152542288Y-116484287D01*
X152543860Y-116492998D01*
X152563302Y-116628225D01*
X152601149Y-116711096D01*
X152617118Y-116746063D01*
X152701951Y-116843967D01*
X152810931Y-116914004D01*
X152935225Y-116950499D01*
X152935227Y-116950500D01*
X152935228Y-116950500D01*
X153064773Y-116950500D01*
X153064773Y-116950499D01*
X153189069Y-116914004D01*
X153298049Y-116843967D01*
X153382882Y-116746063D01*
X153436697Y-116628226D01*
X153455133Y-116500000D01*
X153436697Y-116371774D01*
X153382882Y-116253937D01*
X153298049Y-116156033D01*
X153189069Y-116085996D01*
X153189065Y-116085994D01*
X153189064Y-116085994D01*
X153064774Y-116049500D01*
X153064772Y-116049500D01*
X152935228Y-116049500D01*
X152935221Y-116049500D01*
X152935183Y-116049512D01*
X152935143Y-116049511D01*
X152926448Y-116050762D01*
X152926268Y-116049511D01*
X152865313Y-116049508D01*
X152812575Y-116018214D01*
X149761297Y-112966936D01*
X149669229Y-112928800D01*
X149669228Y-112928800D01*
X148366867Y-112928800D01*
X148299828Y-112909115D01*
X148273153Y-112886002D01*
X148229249Y-112835333D01*
X148205183Y-112819867D01*
X148120269Y-112765296D01*
X148120265Y-112765294D01*
X148120264Y-112765294D01*
X147995974Y-112728800D01*
X147995972Y-112728800D01*
X147866428Y-112728800D01*
X147866426Y-112728800D01*
X147742135Y-112765294D01*
X147742132Y-112765295D01*
X147742131Y-112765296D01*
X147699958Y-112792399D01*
X147633150Y-112835333D01*
X147548318Y-112933237D01*
X147548317Y-112933238D01*
X147494502Y-113051074D01*
X147476067Y-113179300D01*
X146848661Y-113179300D01*
X145118133Y-111448772D01*
X145084648Y-111387449D01*
X145089632Y-111317757D01*
X145131504Y-111261824D01*
X145170876Y-111242114D01*
X145262869Y-111215104D01*
X145371849Y-111145067D01*
X145456682Y-111047163D01*
X145510497Y-110929326D01*
X145528933Y-110801100D01*
X145510497Y-110672874D01*
X145456682Y-110555037D01*
X145371849Y-110457133D01*
X145262869Y-110387096D01*
X145262865Y-110387094D01*
X145262864Y-110387094D01*
X145138574Y-110350600D01*
X145138572Y-110350600D01*
X145028922Y-110350600D01*
X144961883Y-110330915D01*
X144941241Y-110314281D01*
X142663219Y-108036258D01*
X142629734Y-107974935D01*
X142626900Y-107948577D01*
X142626900Y-107005396D01*
X142646585Y-106938357D01*
X142669702Y-106911679D01*
X142674438Y-106907573D01*
X142674449Y-106907567D01*
X142746387Y-106824545D01*
X142759279Y-106809667D01*
X142759279Y-106809665D01*
X142759282Y-106809663D01*
X142813097Y-106691826D01*
X142831533Y-106563600D01*
X142813097Y-106435374D01*
X142759282Y-106317537D01*
X142674449Y-106219633D01*
X142565469Y-106149596D01*
X142565467Y-106149595D01*
X142565465Y-106149594D01*
X142485460Y-106126103D01*
X142426682Y-106088329D01*
X142397657Y-106024773D01*
X142407601Y-105955615D01*
X142432711Y-105919448D01*
X142552159Y-105800000D01*
X143644867Y-105800000D01*
X143663302Y-105928225D01*
X143702688Y-106014467D01*
X143717118Y-106046063D01*
X143801951Y-106143967D01*
X143910931Y-106214004D01*
X144021377Y-106246433D01*
X144035225Y-106250499D01*
X144035227Y-106250500D01*
X144035228Y-106250500D01*
X144164773Y-106250500D01*
X144164773Y-106250499D01*
X144289069Y-106214004D01*
X144398049Y-106143967D01*
X144482882Y-106046063D01*
X144536697Y-105928226D01*
X144555133Y-105800000D01*
X144536697Y-105671774D01*
X144482882Y-105553937D01*
X144398049Y-105456033D01*
X144289069Y-105385996D01*
X144289065Y-105385994D01*
X144289064Y-105385994D01*
X144164774Y-105349500D01*
X144164772Y-105349500D01*
X144035228Y-105349500D01*
X144035226Y-105349500D01*
X143910935Y-105385994D01*
X143910932Y-105385995D01*
X143910931Y-105385996D01*
X143859677Y-105418934D01*
X143801950Y-105456033D01*
X143717118Y-105553937D01*
X143717117Y-105553938D01*
X143663302Y-105671774D01*
X143644867Y-105800000D01*
X142552159Y-105800000D01*
X146537821Y-101814339D01*
X146599142Y-101780856D01*
X146668834Y-101785840D01*
G37*
%TD.AperFunction*%
%TA.AperFunction,Conductor*%
G36*
X146986439Y-66151462D02*
G01*
X147011552Y-66167601D01*
X147011554Y-66167602D01*
X147135846Y-66204096D01*
X147135848Y-66204097D01*
X147135849Y-66204097D01*
X147265393Y-66204097D01*
X147383826Y-66169322D01*
X147418759Y-66164300D01*
X152603068Y-66164300D01*
X152670107Y-66183985D01*
X152715862Y-66236789D01*
X152725806Y-66305947D01*
X152715862Y-66339812D01*
X152691902Y-66392274D01*
X152673467Y-66520500D01*
X152691902Y-66648725D01*
X152701816Y-66670433D01*
X152714590Y-66698404D01*
X152715862Y-66701188D01*
X152725806Y-66770346D01*
X152696781Y-66833902D01*
X152638003Y-66871677D01*
X152603068Y-66876700D01*
X151360254Y-66876700D01*
X151293215Y-66857015D01*
X151266540Y-66833902D01*
X151222549Y-66783133D01*
X151204161Y-66771316D01*
X151113569Y-66713096D01*
X151113565Y-66713094D01*
X151113564Y-66713094D01*
X150989274Y-66676600D01*
X150989272Y-66676600D01*
X150859728Y-66676600D01*
X150859726Y-66676600D01*
X150735435Y-66713094D01*
X150735432Y-66713095D01*
X150735431Y-66713096D01*
X150709134Y-66729996D01*
X150626450Y-66783133D01*
X150541618Y-66881037D01*
X150541617Y-66881038D01*
X150487802Y-66998874D01*
X150469367Y-67127100D01*
X150487802Y-67255325D01*
X150526255Y-67339524D01*
X150541618Y-67373163D01*
X150626451Y-67471067D01*
X150626453Y-67471069D01*
X150633152Y-67476874D01*
X150632169Y-67478008D01*
X150671538Y-67523442D01*
X150681481Y-67592601D01*
X150652456Y-67656156D01*
X150606196Y-67689514D01*
X150555202Y-67710636D01*
X150555201Y-67710637D01*
X148842214Y-69423623D01*
X148780891Y-69457108D01*
X148711199Y-69452124D01*
X148655266Y-69410252D01*
X148641739Y-69387454D01*
X148619759Y-69339325D01*
X148590582Y-69275437D01*
X148505749Y-69177533D01*
X148396769Y-69107496D01*
X148396767Y-69107495D01*
X148396765Y-69107494D01*
X148348941Y-69093452D01*
X148290163Y-69055678D01*
X148261138Y-68992122D01*
X148271082Y-68922964D01*
X148290163Y-68893273D01*
X148369279Y-68801967D01*
X148369279Y-68801965D01*
X148369282Y-68801963D01*
X148423097Y-68684126D01*
X148441533Y-68555900D01*
X148423097Y-68427674D01*
X148369282Y-68309837D01*
X148284449Y-68211933D01*
X148175469Y-68141896D01*
X148175465Y-68141894D01*
X148175464Y-68141894D01*
X148051174Y-68105400D01*
X148051172Y-68105400D01*
X147921628Y-68105400D01*
X147921626Y-68105400D01*
X147797333Y-68141894D01*
X147797332Y-68141894D01*
X147736414Y-68181044D01*
X147669374Y-68200728D01*
X147602335Y-68181043D01*
X147556581Y-68128238D01*
X147546638Y-68059082D01*
X147555133Y-68000000D01*
X147536697Y-67871774D01*
X147490845Y-67771375D01*
X147480902Y-67702218D01*
X147482320Y-67699112D01*
X147461424Y-67699112D01*
X147402646Y-67661338D01*
X147402646Y-67661337D01*
X147398051Y-67656034D01*
X147377301Y-67642699D01*
X147289069Y-67585996D01*
X147289065Y-67585994D01*
X147289064Y-67585994D01*
X147164774Y-67549500D01*
X147164772Y-67549500D01*
X147055122Y-67549500D01*
X146988083Y-67529815D01*
X146967446Y-67513185D01*
X146831716Y-67377456D01*
X146798234Y-67316135D01*
X146796499Y-67300000D01*
X147544867Y-67300000D01*
X147563302Y-67428225D01*
X147609153Y-67528623D01*
X147619097Y-67597782D01*
X147617679Y-67600887D01*
X147638574Y-67600887D01*
X147697353Y-67638661D01*
X147701949Y-67643966D01*
X147714502Y-67652033D01*
X147810931Y-67714004D01*
X147935225Y-67750499D01*
X147935227Y-67750500D01*
X147935228Y-67750500D01*
X148064773Y-67750500D01*
X148064773Y-67750499D01*
X148189069Y-67714004D01*
X148298049Y-67643967D01*
X148382882Y-67546063D01*
X148436697Y-67428226D01*
X148455133Y-67300000D01*
X148436697Y-67171774D01*
X148382882Y-67053937D01*
X148298049Y-66956033D01*
X148189069Y-66885996D01*
X148189065Y-66885994D01*
X148189064Y-66885994D01*
X148064774Y-66849500D01*
X148064772Y-66849500D01*
X147935228Y-66849500D01*
X147935226Y-66849500D01*
X147810935Y-66885994D01*
X147810932Y-66885995D01*
X147810931Y-66885996D01*
X147788146Y-66900639D01*
X147701950Y-66956033D01*
X147617118Y-67053937D01*
X147617117Y-67053938D01*
X147563302Y-67171774D01*
X147544867Y-67300000D01*
X146796499Y-67300000D01*
X146795400Y-67289777D01*
X146795400Y-66255777D01*
X146815085Y-66188738D01*
X146867889Y-66142983D01*
X146937047Y-66133039D01*
X146986439Y-66151462D01*
G37*
%TD.AperFunction*%
%TA.AperFunction,Conductor*%
G36*
X166671384Y-50165491D02*
G01*
X166727317Y-50207363D01*
X166751734Y-50272827D01*
X166752050Y-50281673D01*
X166752050Y-50848326D01*
X166732365Y-50915365D01*
X166715731Y-50936007D01*
X163096661Y-54555076D01*
X163096662Y-54555077D01*
X163043636Y-54608103D01*
X163005500Y-54700170D01*
X163005500Y-67589456D01*
X162985815Y-67656495D01*
X162933011Y-67702250D01*
X162863853Y-67712194D01*
X162846567Y-67708434D01*
X162729972Y-67674200D01*
X162600428Y-67674200D01*
X162600426Y-67674200D01*
X162476135Y-67710694D01*
X162476132Y-67710695D01*
X162476131Y-67710696D01*
X162424877Y-67743634D01*
X162367150Y-67780733D01*
X162323247Y-67831402D01*
X162264469Y-67869177D01*
X162229533Y-67874200D01*
X162055070Y-67874200D01*
X162055062Y-67874199D01*
X162040628Y-67874199D01*
X161940972Y-67874199D01*
X161876400Y-67900946D01*
X161848904Y-67912335D01*
X161848901Y-67912337D01*
X160909281Y-68851958D01*
X160847958Y-68885443D01*
X160778266Y-68880459D01*
X160722333Y-68838587D01*
X160697916Y-68773123D01*
X160697600Y-68764277D01*
X160697600Y-58501764D01*
X160708805Y-58450254D01*
X160715897Y-58434726D01*
X160734333Y-58306500D01*
X160715897Y-58178274D01*
X160662082Y-58060437D01*
X160577249Y-57962533D01*
X160468269Y-57892496D01*
X160468265Y-57892494D01*
X160468264Y-57892494D01*
X160343974Y-57856000D01*
X160343972Y-57856000D01*
X160214428Y-57856000D01*
X160214426Y-57856000D01*
X160136934Y-57878753D01*
X160067064Y-57878753D01*
X160008286Y-57840978D01*
X159979262Y-57777422D01*
X159978000Y-57759776D01*
X159978000Y-56412170D01*
X159978001Y-56412161D01*
X159978001Y-56298074D01*
X159978000Y-56298070D01*
X159939864Y-56206004D01*
X159939863Y-56206002D01*
X159862332Y-56128471D01*
X159862325Y-56128465D01*
X157694942Y-53961082D01*
X157661457Y-53899759D01*
X157659886Y-53855753D01*
X157663733Y-53829000D01*
X157645297Y-53700774D01*
X157623302Y-53652612D01*
X157613358Y-53583453D01*
X157642383Y-53519897D01*
X157701161Y-53482123D01*
X157736096Y-53477100D01*
X160286777Y-53477100D01*
X160353816Y-53496785D01*
X160374458Y-53513419D01*
X161399256Y-54538217D01*
X161432741Y-54599540D01*
X161434313Y-54643542D01*
X161430467Y-54670296D01*
X161430467Y-54670299D01*
X161448902Y-54798525D01*
X161497584Y-54905121D01*
X161502718Y-54916363D01*
X161576224Y-55001195D01*
X161586164Y-55012667D01*
X161587551Y-55014267D01*
X161696531Y-55084304D01*
X161815379Y-55119200D01*
X161820825Y-55120799D01*
X161820827Y-55120800D01*
X161820828Y-55120800D01*
X161950373Y-55120800D01*
X161950373Y-55120799D01*
X162074669Y-55084304D01*
X162183649Y-55014267D01*
X162268482Y-54916363D01*
X162322297Y-54798526D01*
X162340733Y-54670300D01*
X162322297Y-54542074D01*
X162268482Y-54424237D01*
X162183649Y-54326333D01*
X162074669Y-54256296D01*
X162074665Y-54256294D01*
X162074664Y-54256294D01*
X161950374Y-54219800D01*
X161950372Y-54219800D01*
X161840723Y-54219800D01*
X161773684Y-54200115D01*
X161753042Y-54183481D01*
X160599642Y-53030081D01*
X160566157Y-52968758D01*
X160571141Y-52899066D01*
X160613013Y-52843133D01*
X160678477Y-52818716D01*
X160687323Y-52818400D01*
X163862026Y-52818400D01*
X163862028Y-52818400D01*
X163954097Y-52780264D01*
X166540369Y-50193992D01*
X166601692Y-50160507D01*
X166671384Y-50165491D01*
G37*
%TD.AperFunction*%
%TA.AperFunction,Conductor*%
G36*
X155761445Y-53496785D02*
G01*
X155807200Y-53549589D01*
X155817144Y-53618747D01*
X155807200Y-53652612D01*
X155804202Y-53659174D01*
X155785767Y-53787400D01*
X155804202Y-53915625D01*
X155858017Y-54033461D01*
X155858018Y-54033463D01*
X155942851Y-54131367D01*
X155942853Y-54131369D01*
X155949552Y-54137174D01*
X155947284Y-54139790D01*
X155982141Y-54180003D01*
X155992096Y-54249160D01*
X155963081Y-54312720D01*
X155951671Y-54324132D01*
X155866318Y-54422637D01*
X155866317Y-54422638D01*
X155812502Y-54540474D01*
X155794067Y-54668700D01*
X155812502Y-54796925D01*
X155866317Y-54914761D01*
X155866318Y-54914763D01*
X155951151Y-55012667D01*
X156060131Y-55082704D01*
X156184425Y-55119199D01*
X156184427Y-55119200D01*
X156184428Y-55119200D01*
X156313970Y-55119200D01*
X156313972Y-55119200D01*
X156362942Y-55104820D01*
X156432808Y-55104820D01*
X156485556Y-55136117D01*
X158245564Y-56896125D01*
X158279049Y-56957448D01*
X158274065Y-57027140D01*
X158232193Y-57083073D01*
X158224922Y-57088121D01*
X158122052Y-57154231D01*
X158037218Y-57252137D01*
X158037217Y-57252138D01*
X157983402Y-57369974D01*
X157964967Y-57498200D01*
X157964967Y-57498202D01*
X157968813Y-57524955D01*
X157958869Y-57594113D01*
X157933756Y-57630281D01*
X155491903Y-60072136D01*
X155421437Y-60142601D01*
X155421436Y-60142602D01*
X155383300Y-60234670D01*
X155383300Y-63482602D01*
X155363615Y-63549641D01*
X155340504Y-63576314D01*
X155335752Y-63580431D01*
X155250918Y-63678337D01*
X155250917Y-63678338D01*
X155197102Y-63796174D01*
X155178667Y-63924400D01*
X155197102Y-64052625D01*
X155250917Y-64170461D01*
X155250918Y-64170463D01*
X155335751Y-64268367D01*
X155444731Y-64338404D01*
X155569025Y-64374899D01*
X155569027Y-64374900D01*
X155569028Y-64374900D01*
X155698573Y-64374900D01*
X155698573Y-64374899D01*
X155822869Y-64338404D01*
X155931849Y-64268367D01*
X156016682Y-64170463D01*
X156070497Y-64052626D01*
X156088933Y-63924400D01*
X156070497Y-63796174D01*
X156016682Y-63678337D01*
X155931849Y-63580433D01*
X155931848Y-63580432D01*
X155931847Y-63580431D01*
X155927096Y-63576314D01*
X155889323Y-63517536D01*
X155884300Y-63482602D01*
X155884300Y-60439622D01*
X155903985Y-60372583D01*
X155920614Y-60351946D01*
X158287541Y-57985018D01*
X158348864Y-57951534D01*
X158375222Y-57948700D01*
X158484872Y-57948700D01*
X158609169Y-57912204D01*
X158609169Y-57912203D01*
X158614665Y-57910590D01*
X158684535Y-57910590D01*
X158743313Y-57948365D01*
X158772338Y-58011920D01*
X158773600Y-58029567D01*
X158773600Y-59553389D01*
X158753915Y-59620428D01*
X158701111Y-59666183D01*
X158631953Y-59676127D01*
X158582145Y-59653382D01*
X158580510Y-59655928D01*
X158568169Y-59647997D01*
X158464069Y-59581096D01*
X158464065Y-59581094D01*
X158464064Y-59581094D01*
X158339774Y-59544600D01*
X158339772Y-59544600D01*
X158210228Y-59544600D01*
X158210226Y-59544600D01*
X158085935Y-59581094D01*
X158085932Y-59581095D01*
X158085931Y-59581096D01*
X158024729Y-59620428D01*
X157976951Y-59651133D01*
X157976949Y-59651134D01*
X157933047Y-59701801D01*
X157874269Y-59739576D01*
X157839334Y-59744599D01*
X157800072Y-59744599D01*
X157800070Y-59744599D01*
X157800068Y-59744600D01*
X157734972Y-59771563D01*
X157734969Y-59771565D01*
X157708003Y-59782736D01*
X157707999Y-59782739D01*
X157637535Y-59853204D01*
X156735357Y-60755381D01*
X156674034Y-60788866D01*
X156647676Y-60791700D01*
X156538026Y-60791700D01*
X156413735Y-60828194D01*
X156413732Y-60828195D01*
X156413731Y-60828196D01*
X156362477Y-60861134D01*
X156304750Y-60898233D01*
X156219918Y-60996137D01*
X156219917Y-60996138D01*
X156166102Y-61113974D01*
X156147667Y-61242200D01*
X156166102Y-61370425D01*
X156176806Y-61393863D01*
X156219918Y-61488263D01*
X156304751Y-61586167D01*
X156413731Y-61656204D01*
X156538025Y-61692699D01*
X156538027Y-61692700D01*
X156538028Y-61692700D01*
X156667573Y-61692700D01*
X156667573Y-61692699D01*
X156791869Y-61656204D01*
X156900849Y-61586167D01*
X156985682Y-61488263D01*
X157039497Y-61370426D01*
X157057933Y-61242200D01*
X157054086Y-61215446D01*
X157064027Y-61146289D01*
X157089139Y-61110119D01*
X157835215Y-60364043D01*
X157896536Y-60330560D01*
X157966228Y-60335544D01*
X157989932Y-60347409D01*
X158085931Y-60409104D01*
X158210225Y-60445599D01*
X158210227Y-60445600D01*
X158210228Y-60445600D01*
X158339773Y-60445600D01*
X158339773Y-60445599D01*
X158464069Y-60409104D01*
X158573049Y-60339067D01*
X158657882Y-60241163D01*
X158711697Y-60123326D01*
X158730133Y-59995100D01*
X158711697Y-59866874D01*
X158711695Y-59866871D01*
X158711164Y-59863172D01*
X158721107Y-59794014D01*
X158766862Y-59741210D01*
X158833902Y-59721525D01*
X158900941Y-59741209D01*
X158921583Y-59757844D01*
X159105181Y-59941442D01*
X159138666Y-60002765D01*
X159141500Y-60029123D01*
X159141500Y-63911831D01*
X159121815Y-63978870D01*
X159069011Y-64024625D01*
X158999853Y-64034569D01*
X158982566Y-64030808D01*
X158885474Y-64002300D01*
X158885472Y-64002300D01*
X158755928Y-64002300D01*
X158755926Y-64002300D01*
X158631635Y-64038794D01*
X158631632Y-64038795D01*
X158631631Y-64038796D01*
X158603876Y-64056633D01*
X158522650Y-64108833D01*
X158437818Y-64206737D01*
X158437817Y-64206738D01*
X158384002Y-64324574D01*
X158365567Y-64452801D01*
X158365567Y-64452802D01*
X158369413Y-64479557D01*
X158359468Y-64548715D01*
X158334357Y-64584882D01*
X158168556Y-64750682D01*
X158107235Y-64784166D01*
X158080877Y-64787000D01*
X155070104Y-64787000D01*
X155003065Y-64767315D01*
X154957310Y-64714511D01*
X154947366Y-64645353D01*
X154954064Y-64622540D01*
X154953699Y-64622433D01*
X154956197Y-64613926D01*
X154956858Y-64609326D01*
X154974633Y-64485700D01*
X154956197Y-64357474D01*
X154902382Y-64239637D01*
X154817549Y-64141733D01*
X154708569Y-64071696D01*
X154708565Y-64071694D01*
X154708564Y-64071694D01*
X154584274Y-64035200D01*
X154584272Y-64035200D01*
X154474623Y-64035200D01*
X154407584Y-64015515D01*
X154386942Y-63998881D01*
X153587119Y-63199058D01*
X153553634Y-63137735D01*
X153550800Y-63111377D01*
X153550800Y-61589596D01*
X153570485Y-61522557D01*
X153593602Y-61495879D01*
X153598338Y-61491773D01*
X153598349Y-61491767D01*
X153683182Y-61393863D01*
X153736997Y-61276026D01*
X153755433Y-61147800D01*
X153736997Y-61019574D01*
X153683182Y-60901737D01*
X153598349Y-60803833D01*
X153489369Y-60733796D01*
X153489365Y-60733794D01*
X153489364Y-60733794D01*
X153365074Y-60697300D01*
X153365072Y-60697300D01*
X153235528Y-60697300D01*
X153235526Y-60697300D01*
X153111235Y-60733794D01*
X153111232Y-60733795D01*
X153111231Y-60733796D01*
X153059977Y-60766734D01*
X153002250Y-60803833D01*
X152917418Y-60901737D01*
X152917417Y-60901738D01*
X152863602Y-61019574D01*
X152845167Y-61147800D01*
X152863602Y-61276025D01*
X152917417Y-61393861D01*
X152917420Y-61393867D01*
X152986565Y-61473665D01*
X153002251Y-61491767D01*
X153002257Y-61491771D01*
X153006998Y-61495879D01*
X153044775Y-61554656D01*
X153049800Y-61589596D01*
X153049800Y-63316329D01*
X153087936Y-63408397D01*
X154033156Y-64353617D01*
X154066641Y-64414940D01*
X154068213Y-64458942D01*
X154064367Y-64485696D01*
X154064367Y-64485699D01*
X154082802Y-64613926D01*
X154085301Y-64622433D01*
X154083345Y-64623007D01*
X154091635Y-64680641D01*
X154062613Y-64744198D01*
X154003836Y-64781975D01*
X153968896Y-64787000D01*
X149816123Y-64787000D01*
X149749084Y-64767315D01*
X149703329Y-64714511D01*
X149693385Y-64645353D01*
X149722410Y-64581797D01*
X149728431Y-64575329D01*
X150034657Y-64269101D01*
X150034660Y-64269100D01*
X150052096Y-64251664D01*
X150052097Y-64251664D01*
X150122564Y-64181197D01*
X150140969Y-64136764D01*
X150160701Y-64089127D01*
X150160701Y-63989472D01*
X150160701Y-63979483D01*
X150160700Y-63979469D01*
X150160700Y-63483373D01*
X150160699Y-63483370D01*
X150160381Y-63482602D01*
X150122564Y-63391303D01*
X150052097Y-63320836D01*
X146826997Y-60095736D01*
X146787461Y-60079360D01*
X146733060Y-60035520D01*
X146710995Y-59969226D01*
X146728274Y-59901527D01*
X146779411Y-59853916D01*
X146834916Y-59840800D01*
X153417477Y-59840800D01*
X153484516Y-59860485D01*
X153505158Y-59877119D01*
X154124756Y-60496716D01*
X154158241Y-60558039D01*
X154159813Y-60602040D01*
X154155967Y-60628795D01*
X154155967Y-60628799D01*
X154174402Y-60757025D01*
X154228217Y-60874861D01*
X154228218Y-60874863D01*
X154313051Y-60972767D01*
X154422031Y-61042804D01*
X154546325Y-61079299D01*
X154546327Y-61079300D01*
X154546328Y-61079300D01*
X154675873Y-61079300D01*
X154675873Y-61079299D01*
X154800169Y-61042804D01*
X154909149Y-60972767D01*
X154993982Y-60874863D01*
X155047797Y-60757026D01*
X155066233Y-60628800D01*
X155047797Y-60500574D01*
X154993982Y-60382737D01*
X154909149Y-60284833D01*
X154800169Y-60214796D01*
X154800165Y-60214794D01*
X154800164Y-60214794D01*
X154675874Y-60178300D01*
X154675872Y-60178300D01*
X154566222Y-60178300D01*
X154499183Y-60158615D01*
X154478541Y-60141981D01*
X154108125Y-59771565D01*
X153714497Y-59377936D01*
X153622429Y-59339800D01*
X153622428Y-59339800D01*
X137059967Y-59339800D01*
X136992928Y-59320115D01*
X136966253Y-59297002D01*
X136922349Y-59246333D01*
X136813369Y-59176296D01*
X136805330Y-59173935D01*
X136746552Y-59136162D01*
X136717526Y-59072607D01*
X136727469Y-59003448D01*
X136752580Y-58967280D01*
X142206441Y-53513418D01*
X142267764Y-53479934D01*
X142294122Y-53477100D01*
X155694406Y-53477100D01*
X155761445Y-53496785D01*
G37*
%TD.AperFunction*%
%TA.AperFunction,Conductor*%
G36*
X186142539Y-29320185D02*
G01*
X186188294Y-29372989D01*
X186199500Y-29424500D01*
X186199500Y-161375500D01*
X186179815Y-161442539D01*
X186127011Y-161488294D01*
X186075500Y-161499500D01*
X125624500Y-161499500D01*
X125557461Y-161479815D01*
X125511706Y-161427011D01*
X125500500Y-161375500D01*
X125500500Y-155198543D01*
X173299499Y-155198543D01*
X173337947Y-155391829D01*
X173337950Y-155391839D01*
X173413364Y-155573907D01*
X173413371Y-155573920D01*
X173522860Y-155737781D01*
X173522863Y-155737785D01*
X173662214Y-155877136D01*
X173662218Y-155877139D01*
X173826079Y-155986628D01*
X173826092Y-155986635D01*
X174008160Y-156062049D01*
X174008165Y-156062051D01*
X174008169Y-156062051D01*
X174008170Y-156062052D01*
X174201456Y-156100500D01*
X174201459Y-156100500D01*
X174398543Y-156100500D01*
X174528582Y-156074632D01*
X174591835Y-156062051D01*
X174773914Y-155986632D01*
X174937782Y-155877139D01*
X175077139Y-155737782D01*
X175186632Y-155573914D01*
X175262051Y-155391835D01*
X175300500Y-155198543D01*
X180299499Y-155198543D01*
X180337947Y-155391829D01*
X180337950Y-155391839D01*
X180413364Y-155573907D01*
X180413371Y-155573920D01*
X180522860Y-155737781D01*
X180522863Y-155737785D01*
X180662214Y-155877136D01*
X180662218Y-155877139D01*
X180826079Y-155986628D01*
X180826092Y-155986635D01*
X181008160Y-156062049D01*
X181008165Y-156062051D01*
X181008169Y-156062051D01*
X181008170Y-156062052D01*
X181201456Y-156100500D01*
X181201459Y-156100500D01*
X181398543Y-156100500D01*
X181528582Y-156074632D01*
X181591835Y-156062051D01*
X181773914Y-155986632D01*
X181937782Y-155877139D01*
X182077139Y-155737782D01*
X182186632Y-155573914D01*
X182262051Y-155391835D01*
X182300500Y-155198541D01*
X182300500Y-155001459D01*
X182300500Y-155001456D01*
X182262052Y-154808170D01*
X182262051Y-154808169D01*
X182262051Y-154808165D01*
X182262049Y-154808160D01*
X182186635Y-154626092D01*
X182186628Y-154626079D01*
X182077139Y-154462218D01*
X182077136Y-154462214D01*
X181937785Y-154322863D01*
X181937781Y-154322860D01*
X181773920Y-154213371D01*
X181773907Y-154213364D01*
X181591839Y-154137950D01*
X181591829Y-154137947D01*
X181398543Y-154099500D01*
X181398541Y-154099500D01*
X181201459Y-154099500D01*
X181201457Y-154099500D01*
X181008170Y-154137947D01*
X181008160Y-154137950D01*
X180826092Y-154213364D01*
X180826079Y-154213371D01*
X180662218Y-154322860D01*
X180662214Y-154322863D01*
X180522863Y-154462214D01*
X180522860Y-154462218D01*
X180413371Y-154626079D01*
X180413364Y-154626092D01*
X180337950Y-154808160D01*
X180337947Y-154808170D01*
X180299500Y-155001456D01*
X180299500Y-155001459D01*
X180299500Y-155198541D01*
X180299500Y-155198543D01*
X180299499Y-155198543D01*
X175300500Y-155198543D01*
X175300500Y-155198541D01*
X175300500Y-155001459D01*
X175300500Y-155001456D01*
X175262052Y-154808170D01*
X175262051Y-154808169D01*
X175262051Y-154808165D01*
X175262049Y-154808160D01*
X175186635Y-154626092D01*
X175186628Y-154626079D01*
X175077139Y-154462218D01*
X175077136Y-154462214D01*
X174937785Y-154322863D01*
X174937781Y-154322860D01*
X174773920Y-154213371D01*
X174773907Y-154213364D01*
X174591839Y-154137950D01*
X174591829Y-154137947D01*
X174398543Y-154099500D01*
X174398541Y-154099500D01*
X174201459Y-154099500D01*
X174201457Y-154099500D01*
X174008170Y-154137947D01*
X174008160Y-154137950D01*
X173826092Y-154213364D01*
X173826079Y-154213371D01*
X173662218Y-154322860D01*
X173662214Y-154322863D01*
X173522863Y-154462214D01*
X173522860Y-154462218D01*
X173413371Y-154626079D01*
X173413364Y-154626092D01*
X173337950Y-154808160D01*
X173337947Y-154808170D01*
X173299500Y-155001456D01*
X173299500Y-155001459D01*
X173299500Y-155198541D01*
X173299500Y-155198543D01*
X173299499Y-155198543D01*
X125500500Y-155198543D01*
X125500500Y-147350000D01*
X153244867Y-147350000D01*
X153263302Y-147478225D01*
X153317117Y-147596061D01*
X153317118Y-147596063D01*
X153401951Y-147693967D01*
X153510931Y-147764004D01*
X153610901Y-147793357D01*
X153635225Y-147800499D01*
X153635227Y-147800500D01*
X153744878Y-147800500D01*
X153811917Y-147820185D01*
X153832559Y-147836819D01*
X154205565Y-148209825D01*
X154205568Y-148209829D01*
X154212636Y-148216897D01*
X154283103Y-148287364D01*
X154375172Y-148325500D01*
X154769877Y-148325500D01*
X154836916Y-148345185D01*
X154857558Y-148361819D01*
X157888656Y-151392916D01*
X157922141Y-151454239D01*
X157923713Y-151498240D01*
X157919867Y-151524995D01*
X157919867Y-151524999D01*
X157938302Y-151653225D01*
X157992117Y-151771061D01*
X157992118Y-151771063D01*
X158076951Y-151868967D01*
X158185931Y-151939004D01*
X158310225Y-151975499D01*
X158310227Y-151975500D01*
X158310228Y-151975500D01*
X158439773Y-151975500D01*
X158439773Y-151975499D01*
X158564069Y-151939004D01*
X158673049Y-151868967D01*
X158757882Y-151771063D01*
X158811697Y-151653226D01*
X158830133Y-151525000D01*
X158811697Y-151396774D01*
X158757882Y-151278937D01*
X158673049Y-151181033D01*
X158564069Y-151110996D01*
X158564065Y-151110994D01*
X158564064Y-151110994D01*
X158439774Y-151074500D01*
X158439772Y-151074500D01*
X158330122Y-151074500D01*
X158263083Y-151054815D01*
X158242441Y-151038181D01*
X155066897Y-147862636D01*
X154974829Y-147824500D01*
X154974828Y-147824500D01*
X154580122Y-147824500D01*
X154513083Y-147804815D01*
X154492441Y-147788181D01*
X154186342Y-147482082D01*
X154152857Y-147420759D01*
X154151286Y-147376753D01*
X154155133Y-147350000D01*
X154136697Y-147221774D01*
X154082882Y-147103937D01*
X153998049Y-147006033D01*
X153889069Y-146935996D01*
X153889065Y-146935994D01*
X153889064Y-146935994D01*
X153764774Y-146899500D01*
X153764772Y-146899500D01*
X153635228Y-146899500D01*
X153635226Y-146899500D01*
X153510935Y-146935994D01*
X153510932Y-146935995D01*
X153510931Y-146935996D01*
X153459677Y-146968934D01*
X153401950Y-147006033D01*
X153317118Y-147103937D01*
X153317117Y-147103938D01*
X153263302Y-147221774D01*
X153244867Y-147350000D01*
X125500500Y-147350000D01*
X125500500Y-143800000D01*
X155644867Y-143800000D01*
X155663302Y-143928225D01*
X155717117Y-144046061D01*
X155717118Y-144046063D01*
X155801951Y-144143967D01*
X155910931Y-144214004D01*
X156035225Y-144250499D01*
X156035227Y-144250500D01*
X156035228Y-144250500D01*
X156164773Y-144250500D01*
X156164773Y-144250499D01*
X156289069Y-144214004D01*
X156398049Y-144143967D01*
X156441953Y-144093297D01*
X156500731Y-144055523D01*
X156535667Y-144050500D01*
X166044877Y-144050500D01*
X166111916Y-144070185D01*
X166132558Y-144086819D01*
X167280565Y-145234825D01*
X167280568Y-145234829D01*
X167280569Y-145234829D01*
X167287635Y-145241895D01*
X167287636Y-145241897D01*
X167358103Y-145312364D01*
X167396240Y-145328160D01*
X167450173Y-145350501D01*
X167450174Y-145350501D01*
X167564262Y-145350501D01*
X167564270Y-145350500D01*
X173589333Y-145350500D01*
X173656372Y-145370185D01*
X173683046Y-145393297D01*
X173726951Y-145443967D01*
X173835931Y-145514004D01*
X173960225Y-145550499D01*
X173960227Y-145550500D01*
X173960228Y-145550500D01*
X174089773Y-145550500D01*
X174089773Y-145550499D01*
X174214069Y-145514004D01*
X174323049Y-145443967D01*
X174407882Y-145346063D01*
X174461697Y-145228226D01*
X174480133Y-145100000D01*
X174461697Y-144971774D01*
X174407882Y-144853937D01*
X174323049Y-144756033D01*
X174214069Y-144685996D01*
X174214065Y-144685994D01*
X174214064Y-144685994D01*
X174089774Y-144649500D01*
X174089772Y-144649500D01*
X173960228Y-144649500D01*
X173960226Y-144649500D01*
X173835935Y-144685994D01*
X173835932Y-144685995D01*
X173835931Y-144685996D01*
X173784677Y-144718934D01*
X173726950Y-144756033D01*
X173683047Y-144806702D01*
X173624269Y-144844477D01*
X173589333Y-144849500D01*
X167655122Y-144849500D01*
X167588083Y-144829815D01*
X167567441Y-144813181D01*
X166968265Y-144214005D01*
X166341897Y-143587636D01*
X166249829Y-143549500D01*
X166249828Y-143549500D01*
X156535667Y-143549500D01*
X156468628Y-143529815D01*
X156441953Y-143506702D01*
X156398049Y-143456033D01*
X156289069Y-143385996D01*
X156289065Y-143385994D01*
X156289064Y-143385994D01*
X156164774Y-143349500D01*
X156164772Y-143349500D01*
X156035228Y-143349500D01*
X156035226Y-143349500D01*
X155910935Y-143385994D01*
X155910932Y-143385995D01*
X155910931Y-143385996D01*
X155859677Y-143418934D01*
X155801950Y-143456033D01*
X155717118Y-143553937D01*
X155717117Y-143553938D01*
X155663302Y-143671774D01*
X155644867Y-143800000D01*
X125500500Y-143800000D01*
X125500500Y-133275000D01*
X138294867Y-133275000D01*
X138313302Y-133403225D01*
X138331097Y-133442189D01*
X138367118Y-133521063D01*
X138451951Y-133618967D01*
X138560931Y-133689004D01*
X138598381Y-133700000D01*
X138685225Y-133725499D01*
X138685227Y-133725500D01*
X138685228Y-133725500D01*
X138814773Y-133725500D01*
X138814773Y-133725499D01*
X138939069Y-133689004D01*
X139048049Y-133618967D01*
X139132882Y-133521063D01*
X139186697Y-133403226D01*
X139205133Y-133275000D01*
X139186697Y-133146774D01*
X139132882Y-133028937D01*
X139048049Y-132931033D01*
X138939069Y-132860996D01*
X138939065Y-132860994D01*
X138939064Y-132860994D01*
X138814774Y-132824500D01*
X138814772Y-132824500D01*
X138685228Y-132824500D01*
X138685226Y-132824500D01*
X138560935Y-132860994D01*
X138560932Y-132860995D01*
X138560931Y-132860996D01*
X138509677Y-132893934D01*
X138451950Y-132931033D01*
X138367118Y-133028937D01*
X138367117Y-133028938D01*
X138313302Y-133146774D01*
X138294867Y-133275000D01*
X125500500Y-133275000D01*
X125500500Y-131500000D01*
X131444867Y-131500000D01*
X131463302Y-131628225D01*
X131496081Y-131699999D01*
X131517118Y-131746063D01*
X131601951Y-131843967D01*
X131710931Y-131914004D01*
X131834322Y-131950234D01*
X131835225Y-131950499D01*
X131835227Y-131950500D01*
X131835228Y-131950500D01*
X131964773Y-131950500D01*
X131964773Y-131950499D01*
X132089069Y-131914004D01*
X132198049Y-131843967D01*
X132282882Y-131746063D01*
X132336697Y-131628226D01*
X132355133Y-131500000D01*
X132340755Y-131400000D01*
X136244867Y-131400000D01*
X136263302Y-131528225D01*
X136308972Y-131628226D01*
X136317118Y-131646063D01*
X136401951Y-131743967D01*
X136510931Y-131814004D01*
X136634322Y-131850234D01*
X136635225Y-131850499D01*
X136635227Y-131850500D01*
X136635228Y-131850500D01*
X136764773Y-131850500D01*
X136764773Y-131850499D01*
X136889069Y-131814004D01*
X136998049Y-131743967D01*
X137082882Y-131646063D01*
X137136697Y-131528226D01*
X137155133Y-131400000D01*
X137136697Y-131271774D01*
X137082882Y-131153937D01*
X136998049Y-131056033D01*
X136889069Y-130985996D01*
X136889065Y-130985994D01*
X136889064Y-130985994D01*
X136764774Y-130949500D01*
X136764772Y-130949500D01*
X136635228Y-130949500D01*
X136635226Y-130949500D01*
X136510935Y-130985994D01*
X136510932Y-130985995D01*
X136510931Y-130985996D01*
X136459677Y-131018934D01*
X136401950Y-131056033D01*
X136317118Y-131153937D01*
X136317117Y-131153938D01*
X136263302Y-131271774D01*
X136244867Y-131400000D01*
X132340755Y-131400000D01*
X132336697Y-131371774D01*
X132282882Y-131253937D01*
X132198049Y-131156033D01*
X132089069Y-131085996D01*
X132089065Y-131085994D01*
X132089064Y-131085994D01*
X131964774Y-131049500D01*
X131964772Y-131049500D01*
X131835228Y-131049500D01*
X131835226Y-131049500D01*
X131710935Y-131085994D01*
X131710932Y-131085995D01*
X131710931Y-131085996D01*
X131662361Y-131117210D01*
X131601950Y-131156033D01*
X131517118Y-131253937D01*
X131517117Y-131253938D01*
X131463302Y-131371774D01*
X131444867Y-131500000D01*
X125500500Y-131500000D01*
X125500500Y-128821700D01*
X133126867Y-128821700D01*
X133145302Y-128949925D01*
X133194451Y-129057543D01*
X133199118Y-129067763D01*
X133283951Y-129165667D01*
X133392931Y-129235704D01*
X133481590Y-129261736D01*
X133517225Y-129272199D01*
X133517227Y-129272200D01*
X133517228Y-129272200D01*
X133646773Y-129272200D01*
X133646773Y-129272199D01*
X133771069Y-129235704D01*
X133880049Y-129165667D01*
X133964882Y-129067763D01*
X134018697Y-128949926D01*
X134037133Y-128821700D01*
X134018697Y-128693474D01*
X133964882Y-128575637D01*
X133880049Y-128477733D01*
X133771069Y-128407696D01*
X133771065Y-128407694D01*
X133771064Y-128407694D01*
X133646774Y-128371200D01*
X133646772Y-128371200D01*
X133517228Y-128371200D01*
X133517226Y-128371200D01*
X133392935Y-128407694D01*
X133392932Y-128407695D01*
X133392931Y-128407696D01*
X133365906Y-128425064D01*
X133283950Y-128477733D01*
X133199118Y-128575637D01*
X133199117Y-128575638D01*
X133145302Y-128693474D01*
X133126867Y-128821700D01*
X125500500Y-128821700D01*
X125500500Y-124575100D01*
X126084467Y-124575100D01*
X126102902Y-124703325D01*
X126150964Y-124808563D01*
X126156718Y-124821163D01*
X126241551Y-124919067D01*
X126350531Y-124989104D01*
X126474825Y-125025599D01*
X126474827Y-125025600D01*
X126474828Y-125025600D01*
X126604373Y-125025600D01*
X126604373Y-125025599D01*
X126728669Y-124989104D01*
X126837649Y-124919067D01*
X126922482Y-124821163D01*
X126976297Y-124703326D01*
X126994733Y-124575100D01*
X126990886Y-124548347D01*
X127000827Y-124479190D01*
X127025939Y-124443020D01*
X127285553Y-124183406D01*
X127338296Y-124152112D01*
X127421769Y-124127604D01*
X127530749Y-124057567D01*
X127615582Y-123959663D01*
X127669397Y-123841826D01*
X127687833Y-123713600D01*
X127683986Y-123686847D01*
X127693927Y-123617690D01*
X127719037Y-123581522D01*
X127840221Y-123460338D01*
X127901542Y-123426856D01*
X127971234Y-123431840D01*
X128027167Y-123473712D01*
X128051584Y-123539176D01*
X128051900Y-123548022D01*
X128051900Y-124630329D01*
X128083037Y-124705500D01*
X128090036Y-124722397D01*
X128517003Y-125149364D01*
X128609072Y-125187500D01*
X128609074Y-125187500D01*
X130145326Y-125187500D01*
X130145328Y-125187500D01*
X130237397Y-125149364D01*
X130682041Y-124704718D01*
X130743364Y-124671234D01*
X130769722Y-124668400D01*
X130879373Y-124668400D01*
X130879373Y-124668399D01*
X131003669Y-124631904D01*
X131112649Y-124561867D01*
X131112655Y-124561859D01*
X131116451Y-124558572D01*
X131180005Y-124529544D01*
X131249164Y-124539484D01*
X131285339Y-124564600D01*
X131287635Y-124566896D01*
X131287636Y-124566897D01*
X131600013Y-124879274D01*
X131903859Y-125183119D01*
X131937344Y-125244442D01*
X131932360Y-125314133D01*
X131890489Y-125370067D01*
X131825024Y-125394484D01*
X131816178Y-125394800D01*
X131409167Y-125394800D01*
X131342128Y-125375115D01*
X131315453Y-125352002D01*
X131304209Y-125339026D01*
X131271549Y-125301333D01*
X131162569Y-125231296D01*
X131162565Y-125231294D01*
X131162564Y-125231294D01*
X131038274Y-125194800D01*
X131038272Y-125194800D01*
X130908728Y-125194800D01*
X130908726Y-125194800D01*
X130784435Y-125231294D01*
X130784432Y-125231295D01*
X130784431Y-125231296D01*
X130753410Y-125251232D01*
X130675450Y-125301333D01*
X130590618Y-125399237D01*
X130590617Y-125399238D01*
X130536802Y-125517074D01*
X130518367Y-125645300D01*
X130536802Y-125773525D01*
X130585393Y-125879923D01*
X130590618Y-125891363D01*
X130675451Y-125989267D01*
X130784431Y-126059304D01*
X130908725Y-126095799D01*
X130908727Y-126095800D01*
X130908728Y-126095800D01*
X131038273Y-126095800D01*
X131038273Y-126095799D01*
X131162569Y-126059304D01*
X131271549Y-125989267D01*
X131315453Y-125938597D01*
X131374231Y-125900823D01*
X131409167Y-125895800D01*
X131596389Y-125895800D01*
X131663428Y-125915485D01*
X131709183Y-125968289D01*
X131719127Y-126037447D01*
X131709183Y-126071312D01*
X131663302Y-126171774D01*
X131644867Y-126300000D01*
X131663302Y-126428225D01*
X131717117Y-126546061D01*
X131721913Y-126553524D01*
X131719170Y-126555286D01*
X131741575Y-126604351D01*
X131731628Y-126673509D01*
X131685871Y-126726311D01*
X131618831Y-126745993D01*
X131551797Y-126726309D01*
X131540424Y-126719000D01*
X131489069Y-126685996D01*
X131489065Y-126685994D01*
X131489064Y-126685994D01*
X131364774Y-126649500D01*
X131364772Y-126649500D01*
X131235228Y-126649500D01*
X131235226Y-126649500D01*
X131110935Y-126685994D01*
X131110932Y-126685995D01*
X131110931Y-126685996D01*
X131067350Y-126714004D01*
X131001950Y-126756033D01*
X130917118Y-126853937D01*
X130917117Y-126853938D01*
X130863302Y-126971774D01*
X130844867Y-127100000D01*
X130863302Y-127228225D01*
X130903305Y-127315818D01*
X130917118Y-127346063D01*
X130977251Y-127415461D01*
X130998916Y-127440465D01*
X131001951Y-127443967D01*
X131110931Y-127514004D01*
X131235225Y-127550499D01*
X131235227Y-127550500D01*
X131235228Y-127550500D01*
X131364773Y-127550500D01*
X131364773Y-127550499D01*
X131489069Y-127514004D01*
X131598049Y-127443967D01*
X131606284Y-127434462D01*
X131665061Y-127396686D01*
X131734930Y-127396684D01*
X131793710Y-127434456D01*
X131793716Y-127434463D01*
X131801949Y-127443966D01*
X131808349Y-127448079D01*
X131910931Y-127514004D01*
X132035225Y-127550499D01*
X132035227Y-127550500D01*
X132035228Y-127550500D01*
X132164773Y-127550500D01*
X132164773Y-127550499D01*
X132289069Y-127514004D01*
X132398049Y-127443967D01*
X132482882Y-127346063D01*
X132536697Y-127228226D01*
X132555133Y-127100000D01*
X132536697Y-126971774D01*
X132482882Y-126853937D01*
X132482880Y-126853935D01*
X132482879Y-126853932D01*
X132419858Y-126781202D01*
X132390833Y-126717647D01*
X132400777Y-126648488D01*
X132419858Y-126618798D01*
X132482879Y-126546067D01*
X132482879Y-126546065D01*
X132482882Y-126546063D01*
X132536697Y-126428226D01*
X132543839Y-126378551D01*
X132572862Y-126314998D01*
X132631639Y-126277223D01*
X132701509Y-126277221D01*
X132754257Y-126308518D01*
X133487581Y-127041842D01*
X133521066Y-127103165D01*
X133523900Y-127129523D01*
X133523900Y-127449829D01*
X133562036Y-127541897D01*
X135154965Y-129134825D01*
X135154968Y-129134829D01*
X135162036Y-129141897D01*
X135232503Y-129212364D01*
X135264705Y-129225702D01*
X135264707Y-129225704D01*
X135264708Y-129225704D01*
X135324570Y-129250500D01*
X135324571Y-129250500D01*
X135324573Y-129250501D01*
X135324574Y-129250501D01*
X135438662Y-129250501D01*
X135438670Y-129250500D01*
X138304826Y-129250500D01*
X138304828Y-129250500D01*
X138396897Y-129212364D01*
X138566342Y-129042917D01*
X138627663Y-129009434D01*
X138654022Y-129006600D01*
X138763673Y-129006600D01*
X138763673Y-129006599D01*
X138829945Y-128987141D01*
X138887964Y-128970106D01*
X138887965Y-128970105D01*
X138887969Y-128970104D01*
X138992663Y-128902821D01*
X139059700Y-128883138D01*
X139126740Y-128902823D01*
X139172494Y-128955627D01*
X139182438Y-129024784D01*
X139171567Y-129100398D01*
X139171567Y-129100399D01*
X139190002Y-129228625D01*
X139218485Y-129290992D01*
X139243818Y-129346463D01*
X139328651Y-129444367D01*
X139437631Y-129514404D01*
X139561925Y-129550899D01*
X139561927Y-129550900D01*
X139671578Y-129550900D01*
X139738617Y-129570585D01*
X139759259Y-129587219D01*
X139916265Y-129744225D01*
X139916268Y-129744229D01*
X139923336Y-129751297D01*
X139993803Y-129821764D01*
X140019478Y-129832399D01*
X140019480Y-129832400D01*
X140085870Y-129859900D01*
X140085871Y-129859900D01*
X140085873Y-129859901D01*
X140085874Y-129859901D01*
X140199962Y-129859901D01*
X140199970Y-129859900D01*
X143149327Y-129859900D01*
X143149328Y-129859900D01*
X143196274Y-129840453D01*
X143253359Y-129833286D01*
X143253359Y-129832400D01*
X143260416Y-129832400D01*
X143261388Y-129832278D01*
X143262220Y-129832397D01*
X143262228Y-129832400D01*
X143262236Y-129832400D01*
X143391773Y-129832400D01*
X143391773Y-129832399D01*
X143516069Y-129795904D01*
X143625049Y-129725867D01*
X143709882Y-129627963D01*
X143763697Y-129510126D01*
X143782133Y-129381900D01*
X143763697Y-129253674D01*
X143763697Y-129253673D01*
X143761199Y-129245167D01*
X143763184Y-129244584D01*
X143754912Y-129187053D01*
X143783937Y-129123497D01*
X143842715Y-129085723D01*
X143877650Y-129080700D01*
X145093077Y-129080700D01*
X145160116Y-129100385D01*
X145180758Y-129117019D01*
X158970436Y-142906697D01*
X159040903Y-142977164D01*
X159132972Y-143015300D01*
X173105933Y-143015300D01*
X173172972Y-143034985D01*
X173199646Y-143058097D01*
X173243551Y-143108767D01*
X173352531Y-143178804D01*
X173476825Y-143215299D01*
X173476827Y-143215300D01*
X173476828Y-143215300D01*
X173606373Y-143215300D01*
X173606373Y-143215299D01*
X173730669Y-143178804D01*
X173839649Y-143108767D01*
X173883553Y-143058097D01*
X173942331Y-143020323D01*
X173977267Y-143015300D01*
X175259826Y-143015300D01*
X175259828Y-143015300D01*
X175351897Y-142977164D01*
X178103355Y-140225703D01*
X178103358Y-140225702D01*
X178120796Y-140208264D01*
X178120797Y-140208264D01*
X178191264Y-140137797D01*
X178229400Y-140045728D01*
X178229400Y-116323870D01*
X178229401Y-116323861D01*
X178229401Y-116209773D01*
X178229400Y-116209769D01*
X178200500Y-116139999D01*
X178200500Y-116139998D01*
X178191264Y-116117703D01*
X178152945Y-116079384D01*
X178120797Y-116047236D01*
X178120795Y-116047235D01*
X178113729Y-116040168D01*
X178113725Y-116040165D01*
X175097756Y-113024196D01*
X172078697Y-110005136D01*
X172020920Y-109981204D01*
X171986629Y-109967000D01*
X171986628Y-109967000D01*
X151967349Y-109967000D01*
X151900310Y-109947315D01*
X151854555Y-109894511D01*
X151844611Y-109825353D01*
X151873636Y-109761797D01*
X151900311Y-109738684D01*
X151901386Y-109737992D01*
X151903449Y-109736667D01*
X151988282Y-109638763D01*
X152042097Y-109520926D01*
X152045319Y-109498512D01*
X152074342Y-109434958D01*
X152133119Y-109397182D01*
X152202987Y-109397180D01*
X152202995Y-109397182D01*
X152269127Y-109416600D01*
X152269128Y-109416600D01*
X152398673Y-109416600D01*
X152398673Y-109416599D01*
X152522969Y-109380104D01*
X152631949Y-109310067D01*
X152716782Y-109212163D01*
X152770597Y-109094326D01*
X152789033Y-108966100D01*
X152785186Y-108939347D01*
X152795127Y-108870190D01*
X152820239Y-108834020D01*
X172492164Y-89162097D01*
X172530300Y-89070028D01*
X172530300Y-88970373D01*
X172530300Y-86956375D01*
X172549985Y-86889336D01*
X172602789Y-86843581D01*
X172671947Y-86833637D01*
X172735503Y-86862662D01*
X172748004Y-86875163D01*
X172797051Y-86931767D01*
X172797055Y-86931769D01*
X172801798Y-86935879D01*
X172839575Y-86994656D01*
X172844600Y-87029596D01*
X172844600Y-87909729D01*
X172882736Y-88001797D01*
X175095256Y-90214317D01*
X175128741Y-90275640D01*
X175130313Y-90319642D01*
X175126467Y-90346396D01*
X175126467Y-90346399D01*
X175144902Y-90474625D01*
X175198717Y-90592461D01*
X175198718Y-90592463D01*
X175283551Y-90690367D01*
X175392531Y-90760404D01*
X175392533Y-90760404D01*
X175392537Y-90760407D01*
X175393336Y-90760772D01*
X175393998Y-90761346D01*
X175399992Y-90765198D01*
X175399437Y-90766060D01*
X175446136Y-90806531D01*
X175465815Y-90873572D01*
X175446125Y-90940610D01*
X175429496Y-90961243D01*
X170668362Y-95722376D01*
X170668361Y-95722376D01*
X170668362Y-95722377D01*
X170615336Y-95775403D01*
X170577200Y-95867470D01*
X170577200Y-98295502D01*
X170557515Y-98362541D01*
X170534404Y-98389214D01*
X170529652Y-98393331D01*
X170444818Y-98491237D01*
X170444817Y-98491238D01*
X170391002Y-98609074D01*
X170372567Y-98737300D01*
X170391002Y-98865525D01*
X170415409Y-98918967D01*
X170444818Y-98983363D01*
X170529651Y-99081267D01*
X170638631Y-99151304D01*
X170738015Y-99180485D01*
X170762925Y-99187799D01*
X170762927Y-99187800D01*
X170762928Y-99187800D01*
X170892473Y-99187800D01*
X170892473Y-99187799D01*
X171016769Y-99151304D01*
X171125749Y-99081267D01*
X171210582Y-98983363D01*
X171264397Y-98865526D01*
X171282833Y-98737300D01*
X171264397Y-98609074D01*
X171210582Y-98491237D01*
X171125749Y-98393333D01*
X171125748Y-98393332D01*
X171125747Y-98393331D01*
X171120996Y-98389214D01*
X171083223Y-98330436D01*
X171078200Y-98295502D01*
X171078200Y-96284480D01*
X171097885Y-96217441D01*
X171150689Y-96171686D01*
X171219847Y-96161742D01*
X171283403Y-96190767D01*
X171313505Y-96237607D01*
X171316019Y-96236459D01*
X171319702Y-96244525D01*
X171319703Y-96244526D01*
X171373518Y-96362363D01*
X171458351Y-96460267D01*
X171567331Y-96530304D01*
X171682109Y-96564005D01*
X171691625Y-96566799D01*
X171691627Y-96566800D01*
X171691628Y-96566800D01*
X171821173Y-96566800D01*
X171821173Y-96566799D01*
X171945469Y-96530304D01*
X172054449Y-96460267D01*
X172098353Y-96409597D01*
X172157131Y-96371823D01*
X172192067Y-96366800D01*
X181576326Y-96366800D01*
X181576328Y-96366800D01*
X181668397Y-96328664D01*
X182032141Y-95964918D01*
X182093464Y-95931434D01*
X182119822Y-95928600D01*
X182229473Y-95928600D01*
X182229473Y-95928599D01*
X182353769Y-95892104D01*
X182462749Y-95822067D01*
X182547582Y-95724163D01*
X182601397Y-95606326D01*
X182619833Y-95478100D01*
X182601397Y-95349874D01*
X182547582Y-95232037D01*
X182462749Y-95134133D01*
X182353769Y-95064096D01*
X182353765Y-95064094D01*
X182353764Y-95064094D01*
X182229474Y-95027600D01*
X182229472Y-95027600D01*
X182099928Y-95027600D01*
X182099926Y-95027600D01*
X181975635Y-95064094D01*
X181975632Y-95064095D01*
X181975631Y-95064096D01*
X181924377Y-95097034D01*
X181866650Y-95134133D01*
X181781818Y-95232037D01*
X181781817Y-95232038D01*
X181728002Y-95349874D01*
X181709567Y-95478100D01*
X181709567Y-95478102D01*
X181713413Y-95504855D01*
X181703469Y-95574013D01*
X181678356Y-95610181D01*
X181459056Y-95829482D01*
X181397736Y-95862966D01*
X181371377Y-95865800D01*
X172192067Y-95865800D01*
X172125028Y-95846115D01*
X172098353Y-95823002D01*
X172054449Y-95772333D01*
X172037135Y-95761206D01*
X171945469Y-95702296D01*
X171945465Y-95702294D01*
X171945464Y-95702294D01*
X171821174Y-95665800D01*
X171821172Y-95665800D01*
X171732822Y-95665800D01*
X171665783Y-95646115D01*
X171620028Y-95593311D01*
X171610084Y-95524153D01*
X171639109Y-95460597D01*
X171645141Y-95454119D01*
X172899260Y-94200000D01*
X173644867Y-94200000D01*
X173663302Y-94328225D01*
X173681280Y-94367590D01*
X173717118Y-94446063D01*
X173801951Y-94543967D01*
X173910931Y-94614004D01*
X174035225Y-94650499D01*
X174035227Y-94650500D01*
X174035228Y-94650500D01*
X174164773Y-94650500D01*
X174164773Y-94650499D01*
X174289069Y-94614004D01*
X174398049Y-94543967D01*
X174482882Y-94446063D01*
X174536697Y-94328226D01*
X174555133Y-94200000D01*
X174536697Y-94071774D01*
X174482882Y-93953937D01*
X174398049Y-93856033D01*
X174289069Y-93785996D01*
X174289065Y-93785994D01*
X174289064Y-93785994D01*
X174164774Y-93749500D01*
X174164772Y-93749500D01*
X174035228Y-93749500D01*
X174035226Y-93749500D01*
X173910935Y-93785994D01*
X173910932Y-93785995D01*
X173910931Y-93785996D01*
X173859677Y-93818934D01*
X173801950Y-93856033D01*
X173717118Y-93953937D01*
X173717117Y-93953938D01*
X173663302Y-94071774D01*
X173644867Y-94200000D01*
X172899260Y-94200000D01*
X179788140Y-87311119D01*
X179849463Y-87277634D01*
X179875821Y-87274800D01*
X179985472Y-87274800D01*
X180066867Y-87250901D01*
X180136735Y-87250901D01*
X180195513Y-87288675D01*
X180224538Y-87352231D01*
X180225800Y-87369878D01*
X180225800Y-89181076D01*
X180206115Y-89248115D01*
X180189481Y-89268757D01*
X175481557Y-93976681D01*
X175420234Y-94010166D01*
X175393876Y-94013000D01*
X175284226Y-94013000D01*
X175159935Y-94049494D01*
X175159932Y-94049495D01*
X175159931Y-94049496D01*
X175125266Y-94071774D01*
X175050950Y-94119533D01*
X174966118Y-94217437D01*
X174966117Y-94217438D01*
X174912302Y-94335274D01*
X174893867Y-94463500D01*
X174912302Y-94591725D01*
X174941671Y-94656033D01*
X174966118Y-94709563D01*
X175050951Y-94807467D01*
X175159931Y-94877504D01*
X175284225Y-94913999D01*
X175284227Y-94914000D01*
X175284228Y-94914000D01*
X175413773Y-94914000D01*
X175413773Y-94913999D01*
X175538069Y-94877504D01*
X175647049Y-94807467D01*
X175731882Y-94709563D01*
X175785697Y-94591726D01*
X175804133Y-94463500D01*
X175800286Y-94436747D01*
X175810227Y-94367590D01*
X175835339Y-94331420D01*
X180688664Y-89478097D01*
X180726800Y-89386028D01*
X180726800Y-89286372D01*
X180726800Y-84575172D01*
X180688664Y-84483103D01*
X180618197Y-84412636D01*
X180618195Y-84412635D01*
X180596082Y-84403475D01*
X180555856Y-84376596D01*
X179561819Y-83382558D01*
X179528334Y-83321235D01*
X179525500Y-83294877D01*
X179525500Y-78712373D01*
X179525499Y-78712370D01*
X179487364Y-78620303D01*
X179416897Y-78549836D01*
X166623292Y-65756231D01*
X166589807Y-65694908D01*
X166594791Y-65625216D01*
X166623292Y-65580869D01*
X172025861Y-60178300D01*
X177439664Y-54764497D01*
X177477800Y-54672428D01*
X177477800Y-54572773D01*
X177477800Y-46298696D01*
X177497485Y-46231657D01*
X177520602Y-46204979D01*
X177525338Y-46200873D01*
X177525349Y-46200867D01*
X177588200Y-46128331D01*
X177610179Y-46102967D01*
X177610179Y-46102965D01*
X177610182Y-46102963D01*
X177663997Y-45985126D01*
X177682433Y-45856900D01*
X177663997Y-45728674D01*
X177610182Y-45610837D01*
X177525349Y-45512933D01*
X177416369Y-45442896D01*
X177416365Y-45442894D01*
X177416364Y-45442894D01*
X177292074Y-45406400D01*
X177292072Y-45406400D01*
X177162528Y-45406400D01*
X177162526Y-45406400D01*
X177038235Y-45442894D01*
X177038232Y-45442895D01*
X177038231Y-45442896D01*
X176986977Y-45475834D01*
X176929250Y-45512933D01*
X176844418Y-45610837D01*
X176844417Y-45610838D01*
X176790602Y-45728674D01*
X176772167Y-45856900D01*
X176790602Y-45985125D01*
X176844417Y-46102961D01*
X176844420Y-46102967D01*
X176913565Y-46182765D01*
X176929251Y-46200867D01*
X176929257Y-46200871D01*
X176933998Y-46204979D01*
X176971775Y-46263756D01*
X176976800Y-46298696D01*
X176976800Y-54467476D01*
X176957115Y-54534515D01*
X176940481Y-54555157D01*
X167188408Y-64307229D01*
X167127085Y-64340714D01*
X167057393Y-64335730D01*
X167001460Y-64293858D01*
X166987935Y-64271065D01*
X166971482Y-64235037D01*
X166886649Y-64137133D01*
X166777669Y-64067096D01*
X166777665Y-64067094D01*
X166777664Y-64067094D01*
X166653374Y-64030600D01*
X166653372Y-64030600D01*
X166543823Y-64030600D01*
X166476784Y-64010915D01*
X166456142Y-63994281D01*
X166452397Y-63990536D01*
X166360329Y-63952400D01*
X166360328Y-63952400D01*
X165170255Y-63952400D01*
X165103216Y-63932715D01*
X165057461Y-63879911D01*
X165047517Y-63846046D01*
X165028097Y-63710974D01*
X165013192Y-63678337D01*
X164974282Y-63593137D01*
X164889449Y-63495233D01*
X164780469Y-63425196D01*
X164780465Y-63425194D01*
X164780464Y-63425194D01*
X164656174Y-63388700D01*
X164656172Y-63388700D01*
X164526628Y-63388700D01*
X164526626Y-63388700D01*
X164402333Y-63425194D01*
X164402330Y-63425196D01*
X164387236Y-63434896D01*
X164320196Y-63454579D01*
X164253157Y-63434892D01*
X164207404Y-63382087D01*
X164196200Y-63330579D01*
X164196200Y-58669222D01*
X164215885Y-58602183D01*
X164232514Y-58581546D01*
X173950241Y-48863818D01*
X174011564Y-48830334D01*
X174037922Y-48827500D01*
X174147573Y-48827500D01*
X174147573Y-48827499D01*
X174271869Y-48791004D01*
X174380849Y-48720967D01*
X174465682Y-48623063D01*
X174519497Y-48505226D01*
X174537933Y-48377000D01*
X174519497Y-48248774D01*
X174465682Y-48130937D01*
X174380849Y-48033033D01*
X174271869Y-47962996D01*
X174271865Y-47962994D01*
X174271864Y-47962994D01*
X174147574Y-47926500D01*
X174147572Y-47926500D01*
X174018028Y-47926500D01*
X174018026Y-47926500D01*
X173893735Y-47962994D01*
X173893732Y-47962995D01*
X173893731Y-47962996D01*
X173842477Y-47995934D01*
X173784750Y-48033033D01*
X173699918Y-48130937D01*
X173699917Y-48130938D01*
X173646102Y-48248774D01*
X173627667Y-48377000D01*
X173627667Y-48377002D01*
X173631513Y-48403755D01*
X173621569Y-48472913D01*
X173596456Y-48509081D01*
X163803803Y-58301736D01*
X163724700Y-58380839D01*
X163723831Y-58379970D01*
X163679988Y-58416611D01*
X163610663Y-58425317D01*
X163547636Y-58395161D01*
X163510918Y-58335718D01*
X163506500Y-58302914D01*
X163506500Y-54905121D01*
X163526185Y-54838082D01*
X163542814Y-54817445D01*
X167127005Y-51233253D01*
X167127008Y-51233252D01*
X167144446Y-51215814D01*
X167144447Y-51215814D01*
X167214914Y-51145347D01*
X167253050Y-51053278D01*
X167253050Y-49532672D01*
X167272735Y-49465633D01*
X167289364Y-49444996D01*
X176568841Y-40165518D01*
X176630164Y-40132034D01*
X176656522Y-40129200D01*
X176766173Y-40129200D01*
X176766173Y-40129199D01*
X176890469Y-40092704D01*
X176999449Y-40022667D01*
X177084282Y-39924763D01*
X177138097Y-39806926D01*
X177156533Y-39678700D01*
X177138097Y-39550474D01*
X177084282Y-39432637D01*
X176999449Y-39334733D01*
X176890469Y-39264696D01*
X176890465Y-39264694D01*
X176890464Y-39264694D01*
X176766174Y-39228200D01*
X176766172Y-39228200D01*
X176636628Y-39228200D01*
X176636626Y-39228200D01*
X176512335Y-39264694D01*
X176512332Y-39264695D01*
X176512331Y-39264696D01*
X176461077Y-39297634D01*
X176403350Y-39334733D01*
X176318518Y-39432637D01*
X176318517Y-39432638D01*
X176264702Y-39550474D01*
X176246267Y-39678700D01*
X176246267Y-39678702D01*
X176250113Y-39705455D01*
X176240169Y-39774613D01*
X176215056Y-39810781D01*
X166860653Y-49165186D01*
X163744758Y-52281081D01*
X163683435Y-52314566D01*
X163657077Y-52317400D01*
X156999700Y-52317400D01*
X156932661Y-52297715D01*
X156905986Y-52274601D01*
X156861651Y-52223434D01*
X156840901Y-52210099D01*
X156752669Y-52153396D01*
X156752665Y-52153394D01*
X156752664Y-52153394D01*
X156628374Y-52116900D01*
X156628372Y-52116900D01*
X156498828Y-52116900D01*
X156498826Y-52116900D01*
X156374535Y-52153394D01*
X156374532Y-52153395D01*
X156374531Y-52153396D01*
X156333035Y-52180063D01*
X156265548Y-52223434D01*
X156221214Y-52274601D01*
X156162436Y-52312377D01*
X156127500Y-52317400D01*
X137062900Y-52317400D01*
X136995861Y-52297715D01*
X136950106Y-52244911D01*
X136938900Y-52193400D01*
X136938900Y-51352624D01*
X136958585Y-51285585D01*
X136981704Y-51258905D01*
X136983243Y-51257570D01*
X136983249Y-51257567D01*
X137068082Y-51159663D01*
X137121897Y-51041826D01*
X137140333Y-50913600D01*
X137121897Y-50785374D01*
X137068082Y-50667537D01*
X136983249Y-50569633D01*
X136874269Y-50499596D01*
X136874265Y-50499594D01*
X136874264Y-50499594D01*
X136749974Y-50463100D01*
X136749972Y-50463100D01*
X136620428Y-50463100D01*
X136620426Y-50463100D01*
X136496135Y-50499594D01*
X136496132Y-50499595D01*
X136496131Y-50499596D01*
X136444877Y-50532534D01*
X136387150Y-50569633D01*
X136302318Y-50667537D01*
X136302317Y-50667538D01*
X136248502Y-50785374D01*
X136230067Y-50913600D01*
X136248502Y-51041825D01*
X136284039Y-51119638D01*
X136302318Y-51159663D01*
X136387151Y-51257567D01*
X136387153Y-51257569D01*
X136393852Y-51263374D01*
X136391636Y-51265930D01*
X136426674Y-51306335D01*
X136437900Y-51357890D01*
X136437900Y-55231376D01*
X136418215Y-55298415D01*
X136401581Y-55319057D01*
X134142457Y-57578181D01*
X134081134Y-57611666D01*
X134054776Y-57614500D01*
X133945126Y-57614500D01*
X133820835Y-57650994D01*
X133820832Y-57650995D01*
X133820831Y-57650996D01*
X133767221Y-57685449D01*
X133711848Y-57721035D01*
X133687613Y-57749004D01*
X133628835Y-57786779D01*
X133558966Y-57786779D01*
X133500187Y-57749005D01*
X133471162Y-57685449D01*
X133469900Y-57667802D01*
X133469900Y-46300296D01*
X133489585Y-46233257D01*
X133512702Y-46206579D01*
X133517438Y-46202473D01*
X133517449Y-46202467D01*
X133602282Y-46104563D01*
X133656097Y-45986726D01*
X133674533Y-45858500D01*
X133656097Y-45730274D01*
X133602282Y-45612437D01*
X133517449Y-45514533D01*
X133408469Y-45444496D01*
X133408465Y-45444494D01*
X133408464Y-45444494D01*
X133284174Y-45408000D01*
X133284172Y-45408000D01*
X133154628Y-45408000D01*
X133154626Y-45408000D01*
X133030335Y-45444494D01*
X133030332Y-45444495D01*
X133030331Y-45444496D01*
X132979077Y-45477434D01*
X132921350Y-45514533D01*
X132836518Y-45612437D01*
X132836517Y-45612438D01*
X132782702Y-45730274D01*
X132764267Y-45858500D01*
X132782702Y-45986725D01*
X132836517Y-46104561D01*
X132836520Y-46104567D01*
X132905665Y-46184365D01*
X132921351Y-46202467D01*
X132921357Y-46202471D01*
X132926098Y-46206579D01*
X132963875Y-46265356D01*
X132968900Y-46300296D01*
X132968900Y-57771477D01*
X132949215Y-57838516D01*
X132896411Y-57884271D01*
X132827253Y-57894215D01*
X132763697Y-57865190D01*
X132757219Y-57859158D01*
X132161119Y-57263058D01*
X132127634Y-57201735D01*
X132124800Y-57175377D01*
X132124800Y-56994396D01*
X132144485Y-56927357D01*
X132167602Y-56900679D01*
X132172338Y-56896573D01*
X132172349Y-56896567D01*
X132257182Y-56798663D01*
X132310997Y-56680826D01*
X132329433Y-56552600D01*
X132310997Y-56424374D01*
X132257182Y-56306537D01*
X132172349Y-56208633D01*
X132063369Y-56138596D01*
X132063365Y-56138594D01*
X132063364Y-56138594D01*
X131939074Y-56102100D01*
X131939072Y-56102100D01*
X131809528Y-56102100D01*
X131809526Y-56102100D01*
X131685235Y-56138594D01*
X131685232Y-56138595D01*
X131685231Y-56138596D01*
X131633977Y-56171534D01*
X131576250Y-56208633D01*
X131491418Y-56306537D01*
X131491417Y-56306538D01*
X131437602Y-56424374D01*
X131419167Y-56552600D01*
X131437602Y-56680825D01*
X131491417Y-56798661D01*
X131491420Y-56798667D01*
X131560565Y-56878465D01*
X131576251Y-56896567D01*
X131576257Y-56896571D01*
X131580998Y-56900679D01*
X131618775Y-56959456D01*
X131623800Y-56994396D01*
X131623800Y-57280672D01*
X131623800Y-57380328D01*
X131661936Y-57472397D01*
X143633303Y-69443764D01*
X143725372Y-69481900D01*
X143825028Y-69481900D01*
X145354950Y-69481900D01*
X145421989Y-69501585D01*
X145467744Y-69554389D01*
X145477688Y-69623547D01*
X145471019Y-69646255D01*
X145471401Y-69646367D01*
X145468902Y-69654873D01*
X145450467Y-69783101D01*
X145450467Y-69783102D01*
X145454313Y-69809857D01*
X145444368Y-69879015D01*
X145419256Y-69915182D01*
X133826261Y-81508176D01*
X133826262Y-81508177D01*
X133773236Y-81561203D01*
X133735100Y-81653270D01*
X133735100Y-95736198D01*
X133715415Y-95803237D01*
X133662611Y-95848992D01*
X133593453Y-95858936D01*
X133529897Y-95829911D01*
X133498306Y-95787710D01*
X133487479Y-95764004D01*
X133482882Y-95753937D01*
X133398049Y-95656033D01*
X133289069Y-95585996D01*
X133289065Y-95585994D01*
X133289064Y-95585994D01*
X133164774Y-95549500D01*
X133164772Y-95549500D01*
X133035228Y-95549500D01*
X133035226Y-95549500D01*
X132910935Y-95585994D01*
X132910932Y-95585995D01*
X132910931Y-95585996D01*
X132859677Y-95618934D01*
X132801950Y-95656033D01*
X132717118Y-95753936D01*
X132680195Y-95834785D01*
X132634439Y-95887588D01*
X132567399Y-95907272D01*
X132500360Y-95887587D01*
X132473687Y-95864473D01*
X132419857Y-95802348D01*
X132390833Y-95738792D01*
X132400777Y-95669634D01*
X132419859Y-95639944D01*
X132457879Y-95596067D01*
X132457879Y-95596065D01*
X132457882Y-95596063D01*
X132511697Y-95478226D01*
X132530133Y-95350000D01*
X132511697Y-95221774D01*
X132457882Y-95103937D01*
X132373049Y-95006033D01*
X132264069Y-94935996D01*
X132264065Y-94935994D01*
X132264064Y-94935994D01*
X132139774Y-94899500D01*
X132139772Y-94899500D01*
X132010228Y-94899500D01*
X132010226Y-94899500D01*
X131885935Y-94935994D01*
X131885932Y-94935995D01*
X131885931Y-94935996D01*
X131834677Y-94968934D01*
X131776950Y-95006033D01*
X131692118Y-95103937D01*
X131692117Y-95103938D01*
X131638302Y-95221774D01*
X131619867Y-95350000D01*
X131638302Y-95478225D01*
X131690861Y-95593311D01*
X131692118Y-95596063D01*
X131730141Y-95639944D01*
X131780142Y-95697650D01*
X131809166Y-95761206D01*
X131799222Y-95830365D01*
X131780142Y-95860054D01*
X131742118Y-95903936D01*
X131742117Y-95903938D01*
X131688302Y-96021774D01*
X131669867Y-96150000D01*
X131688302Y-96278225D01*
X131726855Y-96362642D01*
X131742118Y-96396063D01*
X131826951Y-96493967D01*
X131935931Y-96564004D01*
X131945454Y-96566800D01*
X132060225Y-96600499D01*
X132060227Y-96600500D01*
X132125500Y-96600500D01*
X132192539Y-96620185D01*
X132238294Y-96672989D01*
X132249500Y-96724500D01*
X132249500Y-97019877D01*
X132229815Y-97086916D01*
X132213181Y-97107558D01*
X132132558Y-97188181D01*
X132071235Y-97221666D01*
X132044877Y-97224500D01*
X131935226Y-97224500D01*
X131810935Y-97260994D01*
X131810932Y-97260995D01*
X131810931Y-97260996D01*
X131759677Y-97293934D01*
X131701950Y-97331033D01*
X131617118Y-97428937D01*
X131617117Y-97428938D01*
X131563302Y-97546774D01*
X131544867Y-97675000D01*
X131563302Y-97803225D01*
X131594608Y-97871774D01*
X131617118Y-97921063D01*
X131701951Y-98018967D01*
X131810931Y-98089004D01*
X131935225Y-98125499D01*
X131935227Y-98125500D01*
X131941230Y-98125500D01*
X132008269Y-98145185D01*
X132054024Y-98197989D01*
X132063968Y-98267147D01*
X132051560Y-98353447D01*
X132022535Y-98417003D01*
X131963757Y-98454777D01*
X131928822Y-98459800D01*
X131846426Y-98459800D01*
X131722135Y-98496294D01*
X131722132Y-98496295D01*
X131722131Y-98496296D01*
X131672447Y-98528226D01*
X131613150Y-98566333D01*
X131569247Y-98617002D01*
X131510469Y-98654777D01*
X131475533Y-98659800D01*
X129276152Y-98659800D01*
X129276144Y-98659799D01*
X129261710Y-98659799D01*
X129162054Y-98659799D01*
X129162051Y-98659799D01*
X129098813Y-98685995D01*
X129098809Y-98685997D01*
X129069986Y-98697934D01*
X129069985Y-98697935D01*
X128999517Y-98768404D01*
X126940762Y-100827158D01*
X126940761Y-100827158D01*
X126940762Y-100827159D01*
X126887736Y-100880185D01*
X126849600Y-100972252D01*
X126849600Y-101341502D01*
X126829915Y-101408541D01*
X126806804Y-101435214D01*
X126802052Y-101439331D01*
X126717218Y-101537237D01*
X126717217Y-101537238D01*
X126663402Y-101655074D01*
X126644967Y-101783300D01*
X126663402Y-101911525D01*
X126702335Y-101996774D01*
X126717218Y-102029363D01*
X126802051Y-102127267D01*
X126911031Y-102197304D01*
X127035325Y-102233799D01*
X127035327Y-102233800D01*
X127035328Y-102233800D01*
X127164873Y-102233800D01*
X127164873Y-102233799D01*
X127289169Y-102197304D01*
X127398149Y-102127267D01*
X127482982Y-102029363D01*
X127536797Y-101911526D01*
X127555233Y-101783300D01*
X127539811Y-101676039D01*
X127549754Y-101606884D01*
X127595509Y-101554080D01*
X127662548Y-101534395D01*
X127697483Y-101539418D01*
X127735225Y-101550499D01*
X127735227Y-101550500D01*
X127735228Y-101550500D01*
X127864773Y-101550500D01*
X127864773Y-101550499D01*
X127989069Y-101514004D01*
X128052162Y-101473456D01*
X128119200Y-101453772D01*
X128186239Y-101473456D01*
X128231994Y-101526260D01*
X128243200Y-101577772D01*
X128243200Y-101984529D01*
X128281336Y-102076597D01*
X128295956Y-102091217D01*
X128329441Y-102152540D01*
X128331013Y-102196542D01*
X128327167Y-102223296D01*
X128327167Y-102223299D01*
X128345602Y-102351525D01*
X128399237Y-102468966D01*
X128399418Y-102469363D01*
X128484251Y-102567267D01*
X128593231Y-102637304D01*
X128650005Y-102653974D01*
X128715334Y-102673156D01*
X128774112Y-102710929D01*
X128803138Y-102774485D01*
X128804400Y-102792133D01*
X128804400Y-103198273D01*
X128784715Y-103265312D01*
X128731911Y-103311067D01*
X128662753Y-103321011D01*
X128599197Y-103291986D01*
X128586686Y-103279475D01*
X128523049Y-103206033D01*
X128510974Y-103198273D01*
X128414069Y-103135996D01*
X128414065Y-103135994D01*
X128414064Y-103135994D01*
X128289774Y-103099500D01*
X128289772Y-103099500D01*
X128160228Y-103099500D01*
X128160226Y-103099500D01*
X128035935Y-103135994D01*
X128035932Y-103135995D01*
X128035931Y-103135996D01*
X127993854Y-103163037D01*
X127926950Y-103206033D01*
X127842118Y-103303937D01*
X127842117Y-103303938D01*
X127788302Y-103421774D01*
X127769867Y-103550000D01*
X127783551Y-103645178D01*
X127773607Y-103714336D01*
X127727852Y-103767140D01*
X127695748Y-103781801D01*
X127664785Y-103790892D01*
X127555801Y-103860931D01*
X127470969Y-103958835D01*
X127470968Y-103958836D01*
X127417153Y-104076672D01*
X127397456Y-104213676D01*
X127394954Y-104213316D01*
X127379033Y-104267539D01*
X127326229Y-104313294D01*
X127274718Y-104324500D01*
X127185226Y-104324500D01*
X127060935Y-104360994D01*
X127060932Y-104360995D01*
X127060931Y-104360996D01*
X127044543Y-104371528D01*
X126951950Y-104431033D01*
X126867118Y-104528937D01*
X126867117Y-104528938D01*
X126813302Y-104646774D01*
X126794867Y-104775000D01*
X126813302Y-104903225D01*
X126855606Y-104995856D01*
X126867118Y-105021063D01*
X126951951Y-105118967D01*
X127060931Y-105189004D01*
X127185225Y-105225499D01*
X127185227Y-105225500D01*
X127185228Y-105225500D01*
X127314773Y-105225500D01*
X127314773Y-105225499D01*
X127439069Y-105189004D01*
X127548049Y-105118967D01*
X127632882Y-105021063D01*
X127686697Y-104903226D01*
X127705133Y-104775000D01*
X127705132Y-104774999D01*
X127706395Y-104766222D01*
X127708896Y-104766581D01*
X127724818Y-104712359D01*
X127777622Y-104666604D01*
X127829133Y-104655398D01*
X127918624Y-104655398D01*
X127918624Y-104655397D01*
X128042920Y-104618902D01*
X128151900Y-104548865D01*
X128236733Y-104450961D01*
X128290548Y-104333124D01*
X128308984Y-104204898D01*
X128295299Y-104109718D01*
X128305242Y-104040562D01*
X128350997Y-103987758D01*
X128383101Y-103973096D01*
X128414069Y-103964004D01*
X128523049Y-103893967D01*
X128551675Y-103860931D01*
X128586686Y-103820525D01*
X128645464Y-103782749D01*
X128715333Y-103782748D01*
X128774112Y-103820522D01*
X128803138Y-103884077D01*
X128804400Y-103901726D01*
X128804400Y-119140472D01*
X128804400Y-119240128D01*
X128842536Y-119332197D01*
X128842537Y-119332198D01*
X128842538Y-119332200D01*
X128863456Y-119353118D01*
X128896941Y-119414441D01*
X128898513Y-119458443D01*
X128895326Y-119480615D01*
X128894667Y-119485200D01*
X128896127Y-119495357D01*
X128913102Y-119613425D01*
X128959725Y-119715513D01*
X128966918Y-119731263D01*
X129051751Y-119829167D01*
X129160731Y-119899204D01*
X129225969Y-119918359D01*
X129285025Y-119935699D01*
X129285027Y-119935700D01*
X129285028Y-119935700D01*
X129414573Y-119935700D01*
X129414573Y-119935699D01*
X129538869Y-119899204D01*
X129647849Y-119829167D01*
X129732682Y-119731263D01*
X129786497Y-119613426D01*
X129804933Y-119485200D01*
X129786497Y-119356974D01*
X129732682Y-119239137D01*
X129647849Y-119141233D01*
X129538869Y-119071196D01*
X129538865Y-119071194D01*
X129538864Y-119071194D01*
X129414571Y-119034699D01*
X129411747Y-119034293D01*
X129409153Y-119033108D01*
X129406063Y-119032201D01*
X129406193Y-119031756D01*
X129348192Y-119005265D01*
X129310421Y-118946485D01*
X129305400Y-118911556D01*
X129305400Y-117279240D01*
X129325085Y-117212201D01*
X129377889Y-117166446D01*
X129447047Y-117156502D01*
X129510603Y-117185527D01*
X129517081Y-117191559D01*
X131828489Y-119502967D01*
X131861974Y-119564290D01*
X131856990Y-119633982D01*
X131815118Y-119689915D01*
X131775742Y-119709625D01*
X131685935Y-119735993D01*
X131576950Y-119806033D01*
X131492118Y-119903937D01*
X131492117Y-119903938D01*
X131438302Y-120021774D01*
X131419867Y-120150000D01*
X131438302Y-120278225D01*
X131492117Y-120396061D01*
X131492118Y-120396063D01*
X131576951Y-120493967D01*
X131685931Y-120564004D01*
X131808655Y-120600038D01*
X131810225Y-120600499D01*
X131810227Y-120600500D01*
X131810228Y-120600500D01*
X131939773Y-120600500D01*
X131939773Y-120600499D01*
X131994741Y-120584360D01*
X132027727Y-120574675D01*
X132097596Y-120574675D01*
X132156374Y-120612450D01*
X132185399Y-120676005D01*
X132175456Y-120745162D01*
X132163302Y-120771774D01*
X132144867Y-120900000D01*
X132163302Y-121028225D01*
X132192435Y-121092015D01*
X132217118Y-121146063D01*
X132301951Y-121243967D01*
X132410931Y-121314004D01*
X132535225Y-121350499D01*
X132535227Y-121350500D01*
X132535228Y-121350500D01*
X132664773Y-121350500D01*
X132664773Y-121350499D01*
X132789069Y-121314004D01*
X132898049Y-121243967D01*
X132982882Y-121146063D01*
X133036697Y-121028226D01*
X133036697Y-121028225D01*
X133037006Y-121027549D01*
X133082761Y-120974745D01*
X133149800Y-120955061D01*
X133216840Y-120974746D01*
X133262595Y-121027550D01*
X133273800Y-121079061D01*
X133273800Y-121777626D01*
X133254115Y-121844665D01*
X133201311Y-121890420D01*
X133132153Y-121900364D01*
X133098053Y-121887657D01*
X133097131Y-121889678D01*
X133089066Y-121885994D01*
X132964774Y-121849500D01*
X132964772Y-121849500D01*
X132835228Y-121849500D01*
X132835226Y-121849500D01*
X132710935Y-121885994D01*
X132710932Y-121885995D01*
X132710931Y-121885996D01*
X132688574Y-121900364D01*
X132601948Y-121956034D01*
X132593713Y-121965539D01*
X132534936Y-122003314D01*
X132465066Y-122003314D01*
X132406288Y-121965540D01*
X132406287Y-121965539D01*
X132398051Y-121956034D01*
X132351797Y-121926309D01*
X132289069Y-121885996D01*
X132289065Y-121885994D01*
X132289064Y-121885994D01*
X132164774Y-121849500D01*
X132164772Y-121849500D01*
X132035228Y-121849500D01*
X132035226Y-121849500D01*
X131910933Y-121885994D01*
X131910932Y-121885994D01*
X131848201Y-121926309D01*
X131781161Y-121945993D01*
X131714122Y-121926308D01*
X131668368Y-121873503D01*
X131658425Y-121804344D01*
X131680829Y-121755286D01*
X131678087Y-121753524D01*
X131682877Y-121746068D01*
X131682882Y-121746063D01*
X131736697Y-121628226D01*
X131755133Y-121500000D01*
X131736697Y-121371774D01*
X131682882Y-121253937D01*
X131598049Y-121156033D01*
X131489069Y-121085996D01*
X131489065Y-121085994D01*
X131489064Y-121085994D01*
X131364774Y-121049500D01*
X131364772Y-121049500D01*
X131313292Y-121049500D01*
X131246253Y-121029815D01*
X131200498Y-120977011D01*
X131190554Y-120907853D01*
X131190749Y-120906497D01*
X131199433Y-120846100D01*
X131180997Y-120717874D01*
X131127182Y-120600037D01*
X131042349Y-120502133D01*
X130933369Y-120432096D01*
X130933365Y-120432094D01*
X130933364Y-120432094D01*
X130809074Y-120395600D01*
X130809072Y-120395600D01*
X130679528Y-120395600D01*
X130679526Y-120395600D01*
X130555235Y-120432094D01*
X130555232Y-120432095D01*
X130555231Y-120432096D01*
X130503977Y-120465034D01*
X130446250Y-120502133D01*
X130361418Y-120600037D01*
X130361417Y-120600038D01*
X130307602Y-120717874D01*
X130292194Y-120825047D01*
X130263169Y-120888603D01*
X130204391Y-120926377D01*
X130169456Y-120931400D01*
X129714570Y-120931400D01*
X129622502Y-120969536D01*
X129622501Y-120969537D01*
X127831935Y-122760102D01*
X127770612Y-122793587D01*
X127700920Y-122788603D01*
X127644987Y-122746731D01*
X127621516Y-122690068D01*
X127615391Y-122647470D01*
X127611697Y-122621774D01*
X127557882Y-122503937D01*
X127473049Y-122406033D01*
X127364069Y-122335996D01*
X127364065Y-122335994D01*
X127364064Y-122335994D01*
X127239774Y-122299500D01*
X127239772Y-122299500D01*
X127110228Y-122299500D01*
X127110226Y-122299500D01*
X126985935Y-122335994D01*
X126985932Y-122335995D01*
X126985931Y-122335996D01*
X126939690Y-122365713D01*
X126876950Y-122406033D01*
X126792118Y-122503937D01*
X126792117Y-122503938D01*
X126738302Y-122621774D01*
X126719867Y-122750000D01*
X126738302Y-122878225D01*
X126775139Y-122958885D01*
X126792118Y-122996063D01*
X126876951Y-123093967D01*
X126957956Y-123146026D01*
X127003710Y-123198828D01*
X127013654Y-123267986D01*
X126984630Y-123331542D01*
X126957957Y-123354655D01*
X126934650Y-123369633D01*
X126849818Y-123467537D01*
X126849817Y-123467538D01*
X126796002Y-123585374D01*
X126777567Y-123713600D01*
X126796002Y-123841825D01*
X126796003Y-123841826D01*
X126798678Y-123847684D01*
X126808619Y-123916843D01*
X126779593Y-123980398D01*
X126773564Y-123986874D01*
X126672155Y-124088282D01*
X126610835Y-124121766D01*
X126584476Y-124124600D01*
X126474826Y-124124600D01*
X126350535Y-124161094D01*
X126350532Y-124161095D01*
X126350531Y-124161096D01*
X126317699Y-124182196D01*
X126241550Y-124231133D01*
X126156718Y-124329037D01*
X126156717Y-124329038D01*
X126102902Y-124446874D01*
X126084467Y-124575100D01*
X125500500Y-124575100D01*
X125500500Y-119467859D01*
X126277008Y-119467859D01*
X126295443Y-119596084D01*
X126349258Y-119713920D01*
X126349259Y-119713922D01*
X126404673Y-119777874D01*
X126433549Y-119811200D01*
X126434092Y-119811826D01*
X126543072Y-119881863D01*
X126625618Y-119906100D01*
X126667366Y-119918358D01*
X126667368Y-119918359D01*
X126667369Y-119918359D01*
X126796914Y-119918359D01*
X126796914Y-119918358D01*
X126921210Y-119881863D01*
X127030190Y-119811826D01*
X127115023Y-119713922D01*
X127168838Y-119596085D01*
X127187274Y-119467859D01*
X127168838Y-119339633D01*
X127115023Y-119221796D01*
X127030190Y-119123892D01*
X126921210Y-119053855D01*
X126921206Y-119053853D01*
X126921205Y-119053853D01*
X126796915Y-119017359D01*
X126796913Y-119017359D01*
X126667369Y-119017359D01*
X126667367Y-119017359D01*
X126543076Y-119053853D01*
X126543073Y-119053854D01*
X126543072Y-119053855D01*
X126517824Y-119070081D01*
X126434091Y-119123892D01*
X126349259Y-119221796D01*
X126349258Y-119221797D01*
X126295443Y-119339633D01*
X126277008Y-119467859D01*
X125500500Y-119467859D01*
X125500500Y-116175000D01*
X127294867Y-116175000D01*
X127313302Y-116303225D01*
X127358400Y-116401974D01*
X127367118Y-116421063D01*
X127451951Y-116518967D01*
X127560931Y-116589004D01*
X127685225Y-116625499D01*
X127685227Y-116625500D01*
X127685228Y-116625500D01*
X127814773Y-116625500D01*
X127814773Y-116625499D01*
X127939069Y-116589004D01*
X128048049Y-116518967D01*
X128132882Y-116421063D01*
X128186697Y-116303226D01*
X128205133Y-116175000D01*
X128186697Y-116046774D01*
X128132882Y-115928937D01*
X128048049Y-115831033D01*
X127939069Y-115760996D01*
X127939065Y-115760994D01*
X127939064Y-115760994D01*
X127814774Y-115724500D01*
X127814772Y-115724500D01*
X127685228Y-115724500D01*
X127685226Y-115724500D01*
X127560935Y-115760994D01*
X127560932Y-115760995D01*
X127560931Y-115760996D01*
X127509677Y-115793934D01*
X127451950Y-115831033D01*
X127367118Y-115928937D01*
X127367117Y-115928938D01*
X127313302Y-116046774D01*
X127294867Y-116175000D01*
X125500500Y-116175000D01*
X125500500Y-112100000D01*
X126944867Y-112100000D01*
X126963302Y-112228225D01*
X127003890Y-112317099D01*
X127017118Y-112346063D01*
X127101951Y-112443967D01*
X127210931Y-112514004D01*
X127335225Y-112550499D01*
X127335227Y-112550500D01*
X127335228Y-112550500D01*
X127464773Y-112550500D01*
X127464773Y-112550499D01*
X127589069Y-112514004D01*
X127698049Y-112443967D01*
X127782882Y-112346063D01*
X127836697Y-112228226D01*
X127855133Y-112100000D01*
X127836697Y-111971774D01*
X127782882Y-111853937D01*
X127698049Y-111756033D01*
X127589069Y-111685996D01*
X127589065Y-111685994D01*
X127589064Y-111685994D01*
X127464774Y-111649500D01*
X127464772Y-111649500D01*
X127335228Y-111649500D01*
X127335226Y-111649500D01*
X127210935Y-111685994D01*
X127210932Y-111685995D01*
X127210931Y-111685996D01*
X127170768Y-111711807D01*
X127101950Y-111756033D01*
X127017118Y-111853937D01*
X127017117Y-111853938D01*
X126963302Y-111971774D01*
X126944867Y-112100000D01*
X125500500Y-112100000D01*
X125500500Y-99388909D01*
X126755958Y-99388909D01*
X126774393Y-99517134D01*
X126794337Y-99560804D01*
X126828209Y-99634972D01*
X126913042Y-99732876D01*
X127022022Y-99802913D01*
X127146316Y-99839408D01*
X127146318Y-99839409D01*
X127146319Y-99839409D01*
X127275864Y-99839409D01*
X127275864Y-99839408D01*
X127400160Y-99802913D01*
X127509140Y-99732876D01*
X127593973Y-99634972D01*
X127647788Y-99517135D01*
X127666224Y-99388909D01*
X127647788Y-99260683D01*
X127593973Y-99142846D01*
X127509140Y-99044942D01*
X127400160Y-98974905D01*
X127400156Y-98974903D01*
X127400155Y-98974903D01*
X127275865Y-98938409D01*
X127275863Y-98938409D01*
X127146319Y-98938409D01*
X127146317Y-98938409D01*
X127022026Y-98974903D01*
X127022023Y-98974904D01*
X127022022Y-98974905D01*
X127000082Y-98989005D01*
X126913041Y-99044942D01*
X126828209Y-99142846D01*
X126828208Y-99142847D01*
X126774393Y-99260683D01*
X126755958Y-99388909D01*
X125500500Y-99388909D01*
X125500500Y-98100000D01*
X126644867Y-98100000D01*
X126663302Y-98228225D01*
X126707447Y-98324886D01*
X126717118Y-98346063D01*
X126801951Y-98443967D01*
X126910931Y-98514004D01*
X126959368Y-98528226D01*
X127035225Y-98550499D01*
X127035227Y-98550500D01*
X127035228Y-98550500D01*
X127164773Y-98550500D01*
X127164773Y-98550499D01*
X127289069Y-98514004D01*
X127398049Y-98443967D01*
X127482882Y-98346063D01*
X127482883Y-98346059D01*
X127487386Y-98339054D01*
X127540188Y-98293297D01*
X127609346Y-98283350D01*
X127672903Y-98312373D01*
X127685417Y-98324886D01*
X127697694Y-98339054D01*
X127701951Y-98343967D01*
X127810931Y-98414004D01*
X127935225Y-98450499D01*
X127935227Y-98450500D01*
X127935228Y-98450500D01*
X128064773Y-98450500D01*
X128064773Y-98450499D01*
X128189069Y-98414004D01*
X128298049Y-98343967D01*
X128382882Y-98246063D01*
X128436697Y-98128226D01*
X128455133Y-98000000D01*
X128436697Y-97871774D01*
X128382882Y-97753937D01*
X128298049Y-97656033D01*
X128189069Y-97585996D01*
X128189065Y-97585994D01*
X128189064Y-97585994D01*
X128064774Y-97549500D01*
X128064772Y-97549500D01*
X127935228Y-97549500D01*
X127935226Y-97549500D01*
X127810935Y-97585994D01*
X127810932Y-97585995D01*
X127810931Y-97585996D01*
X127759677Y-97618934D01*
X127701950Y-97656033D01*
X127617114Y-97753941D01*
X127612608Y-97760953D01*
X127559802Y-97806706D01*
X127490643Y-97816647D01*
X127427089Y-97787620D01*
X127414582Y-97775112D01*
X127398051Y-97756035D01*
X127398050Y-97756034D01*
X127398049Y-97756033D01*
X127289069Y-97685996D01*
X127289065Y-97685994D01*
X127289064Y-97685994D01*
X127164774Y-97649500D01*
X127164772Y-97649500D01*
X127035228Y-97649500D01*
X127035226Y-97649500D01*
X126910935Y-97685994D01*
X126910932Y-97685995D01*
X126910931Y-97685996D01*
X126859677Y-97718934D01*
X126801950Y-97756033D01*
X126717118Y-97853937D01*
X126717117Y-97853938D01*
X126663302Y-97971774D01*
X126644867Y-98100000D01*
X125500500Y-98100000D01*
X125500500Y-95000000D01*
X126144867Y-95000000D01*
X126163302Y-95128225D01*
X126206025Y-95221774D01*
X126217118Y-95246063D01*
X126301951Y-95343967D01*
X126410931Y-95414004D01*
X126535225Y-95450499D01*
X126535227Y-95450500D01*
X126535228Y-95450500D01*
X126664773Y-95450500D01*
X126664773Y-95450499D01*
X126789069Y-95414004D01*
X126898049Y-95343967D01*
X126982882Y-95246063D01*
X127036697Y-95128226D01*
X127055133Y-95000000D01*
X127036697Y-94871774D01*
X126982882Y-94753937D01*
X126898049Y-94656033D01*
X126789069Y-94585996D01*
X126789065Y-94585994D01*
X126789064Y-94585994D01*
X126664774Y-94549500D01*
X126664772Y-94549500D01*
X126535228Y-94549500D01*
X126535226Y-94549500D01*
X126410935Y-94585994D01*
X126410932Y-94585995D01*
X126410931Y-94585996D01*
X126367350Y-94614004D01*
X126301950Y-94656033D01*
X126217118Y-94753937D01*
X126217117Y-94753938D01*
X126163302Y-94871774D01*
X126144867Y-95000000D01*
X125500500Y-95000000D01*
X125500500Y-42919100D01*
X131451967Y-42919100D01*
X131470402Y-43047325D01*
X131524217Y-43165161D01*
X131524218Y-43165163D01*
X131609051Y-43263067D01*
X131718031Y-43333104D01*
X131723484Y-43334705D01*
X131842325Y-43369599D01*
X131842327Y-43369600D01*
X131951977Y-43369600D01*
X132019016Y-43389285D01*
X132039658Y-43405919D01*
X140141336Y-51507597D01*
X140211803Y-51578064D01*
X140303872Y-51616200D01*
X159410133Y-51616200D01*
X159477172Y-51635885D01*
X159503846Y-51658997D01*
X159547751Y-51709667D01*
X159656731Y-51779704D01*
X159781025Y-51816199D01*
X159781027Y-51816200D01*
X159781028Y-51816200D01*
X159910573Y-51816200D01*
X159910573Y-51816199D01*
X160034869Y-51779704D01*
X160143849Y-51709667D01*
X160228682Y-51611763D01*
X160282497Y-51493926D01*
X160300933Y-51365700D01*
X160282497Y-51237474D01*
X160228682Y-51119637D01*
X160143849Y-51021733D01*
X160034869Y-50951696D01*
X160034865Y-50951694D01*
X160034864Y-50951694D01*
X159910574Y-50915200D01*
X159910572Y-50915200D01*
X159781028Y-50915200D01*
X159781026Y-50915200D01*
X159656735Y-50951694D01*
X159656732Y-50951695D01*
X159656731Y-50951696D01*
X159605477Y-50984634D01*
X159547750Y-51021733D01*
X159503847Y-51072402D01*
X159445069Y-51110177D01*
X159410133Y-51115200D01*
X140508823Y-51115200D01*
X140441784Y-51095515D01*
X140421142Y-51078881D01*
X132393443Y-43051182D01*
X132359958Y-42989859D01*
X132358386Y-42945853D01*
X132362233Y-42919100D01*
X138336467Y-42919100D01*
X138354902Y-43047325D01*
X138408717Y-43165161D01*
X138408718Y-43165163D01*
X138493551Y-43263067D01*
X138602531Y-43333104D01*
X138607984Y-43334705D01*
X138726825Y-43369599D01*
X138726827Y-43369600D01*
X138836477Y-43369600D01*
X138903516Y-43389285D01*
X138924158Y-43405919D01*
X144525303Y-49007064D01*
X144617372Y-49045200D01*
X144717028Y-49045200D01*
X152905533Y-49045200D01*
X152972572Y-49064885D01*
X152999246Y-49087997D01*
X153043151Y-49138667D01*
X153152131Y-49208704D01*
X153276425Y-49245199D01*
X153276427Y-49245200D01*
X153276428Y-49245200D01*
X153405973Y-49245200D01*
X153405973Y-49245199D01*
X153530269Y-49208704D01*
X153639249Y-49138667D01*
X153724082Y-49040763D01*
X153777897Y-48922926D01*
X153796333Y-48794700D01*
X153777897Y-48666474D01*
X153724082Y-48548637D01*
X153639249Y-48450733D01*
X153530269Y-48380696D01*
X153530265Y-48380694D01*
X153530264Y-48380694D01*
X153405974Y-48344200D01*
X153405972Y-48344200D01*
X153276428Y-48344200D01*
X153276426Y-48344200D01*
X153152135Y-48380694D01*
X153152132Y-48380695D01*
X153152131Y-48380696D01*
X153100877Y-48413634D01*
X153043150Y-48450733D01*
X152999247Y-48501402D01*
X152940469Y-48539177D01*
X152905533Y-48544200D01*
X144822323Y-48544200D01*
X144755284Y-48524515D01*
X144734642Y-48507881D01*
X139277943Y-43051182D01*
X139244458Y-42989859D01*
X139242886Y-42945853D01*
X139246733Y-42919100D01*
X139228297Y-42790874D01*
X139174482Y-42673037D01*
X139089649Y-42575133D01*
X138980669Y-42505096D01*
X138980665Y-42505094D01*
X138980664Y-42505094D01*
X138856374Y-42468600D01*
X138856372Y-42468600D01*
X138726828Y-42468600D01*
X138726826Y-42468600D01*
X138602535Y-42505094D01*
X138602532Y-42505095D01*
X138602531Y-42505096D01*
X138551277Y-42538034D01*
X138493550Y-42575133D01*
X138408718Y-42673037D01*
X138408717Y-42673038D01*
X138354902Y-42790874D01*
X138336467Y-42919100D01*
X132362233Y-42919100D01*
X132343797Y-42790874D01*
X132289982Y-42673037D01*
X132205149Y-42575133D01*
X132096169Y-42505096D01*
X132096165Y-42505094D01*
X132096164Y-42505094D01*
X131971874Y-42468600D01*
X131971872Y-42468600D01*
X131842328Y-42468600D01*
X131842326Y-42468600D01*
X131718035Y-42505094D01*
X131718032Y-42505095D01*
X131718031Y-42505096D01*
X131666777Y-42538034D01*
X131609050Y-42575133D01*
X131524218Y-42673037D01*
X131524217Y-42673038D01*
X131470402Y-42790874D01*
X131451967Y-42919100D01*
X125500500Y-42919100D01*
X125500500Y-35787300D01*
X137449067Y-35787300D01*
X137467502Y-35915525D01*
X137521317Y-36033361D01*
X137521318Y-36033363D01*
X137606151Y-36131267D01*
X137715131Y-36201304D01*
X137839425Y-36237799D01*
X137839427Y-36237800D01*
X137839428Y-36237800D01*
X137968973Y-36237800D01*
X137968973Y-36237799D01*
X138093269Y-36201304D01*
X138202249Y-36131267D01*
X138246153Y-36080597D01*
X138304931Y-36042823D01*
X138339867Y-36037800D01*
X143143077Y-36037800D01*
X143210116Y-36057485D01*
X143230758Y-36074119D01*
X149945256Y-42788617D01*
X149978741Y-42849940D01*
X149980313Y-42893942D01*
X149976467Y-42920696D01*
X149976467Y-42920699D01*
X149994902Y-43048925D01*
X149995933Y-43051182D01*
X150048718Y-43166763D01*
X150122224Y-43251595D01*
X150132164Y-43263067D01*
X150133551Y-43264667D01*
X150242531Y-43334704D01*
X150361379Y-43369600D01*
X150366825Y-43371199D01*
X150366827Y-43371200D01*
X150366828Y-43371200D01*
X150496373Y-43371200D01*
X150496373Y-43371199D01*
X150620669Y-43334704D01*
X150729649Y-43264667D01*
X150814482Y-43166763D01*
X150868297Y-43048926D01*
X150886733Y-42920700D01*
X150868297Y-42792474D01*
X150814482Y-42674637D01*
X150729649Y-42576733D01*
X150620669Y-42506696D01*
X150620665Y-42506694D01*
X150620664Y-42506694D01*
X150496374Y-42470200D01*
X150496372Y-42470200D01*
X150386723Y-42470200D01*
X150319684Y-42450515D01*
X150299042Y-42433881D01*
X143440097Y-35574936D01*
X143348029Y-35536800D01*
X143348028Y-35536800D01*
X138339867Y-35536800D01*
X138272828Y-35517115D01*
X138246153Y-35494002D01*
X138202249Y-35443333D01*
X138093269Y-35373296D01*
X138093265Y-35373294D01*
X138093264Y-35373294D01*
X137968974Y-35336800D01*
X137968972Y-35336800D01*
X137839428Y-35336800D01*
X137839426Y-35336800D01*
X137715135Y-35373294D01*
X137715132Y-35373295D01*
X137715131Y-35373296D01*
X137663877Y-35406234D01*
X137606150Y-35443333D01*
X137521318Y-35541237D01*
X137521317Y-35541238D01*
X137467502Y-35659074D01*
X137449067Y-35787300D01*
X125500500Y-35787300D01*
X125500500Y-35064848D01*
X182099500Y-35064848D01*
X182099500Y-36135151D01*
X182114206Y-36228006D01*
X182132478Y-36263866D01*
X182171238Y-36339936D01*
X182171240Y-36339938D01*
X182171242Y-36339941D01*
X182260058Y-36428757D01*
X182260060Y-36428758D01*
X182260064Y-36428762D01*
X182371991Y-36485792D01*
X182371992Y-36485792D01*
X182371994Y-36485793D01*
X182371993Y-36485793D01*
X182464849Y-36500500D01*
X182464854Y-36500500D01*
X183535151Y-36500500D01*
X183628006Y-36485793D01*
X183628007Y-36485792D01*
X183628009Y-36485792D01*
X183739936Y-36428762D01*
X183828762Y-36339936D01*
X183885792Y-36228009D01*
X183885792Y-36228007D01*
X183885793Y-36228006D01*
X183900500Y-36135151D01*
X183900500Y-35064848D01*
X183885793Y-34971993D01*
X183885792Y-34971991D01*
X183828762Y-34860064D01*
X183828758Y-34860060D01*
X183828757Y-34860058D01*
X183739941Y-34771242D01*
X183739938Y-34771240D01*
X183739936Y-34771238D01*
X183628009Y-34714208D01*
X183628008Y-34714207D01*
X183628005Y-34714206D01*
X183628006Y-34714206D01*
X183535151Y-34699500D01*
X183535146Y-34699500D01*
X182464854Y-34699500D01*
X182464849Y-34699500D01*
X182371993Y-34714206D01*
X182297373Y-34752228D01*
X182260064Y-34771238D01*
X182260063Y-34771239D01*
X182260058Y-34771242D01*
X182171242Y-34860058D01*
X182171239Y-34860063D01*
X182114206Y-34971993D01*
X182099500Y-35064848D01*
X125500500Y-35064848D01*
X125500500Y-29424500D01*
X125520185Y-29357461D01*
X125572989Y-29311706D01*
X125624500Y-29300500D01*
X186075500Y-29300500D01*
X186142539Y-29320185D01*
G37*
%TD.AperFunction*%
%TD*%
M02*
